<?xml version="1.0" encoding="UTF-8" standalone="no"?>
<!DOCTYPE svg  PUBLIC '-//W3C//DTD SVG 1.1//EN'  'http://www.w3.org/Graphics/SVG/1.1/DTD/svg11.dtd'>
<svg xmlns="http://www.w3.org/2000/svg">
<defs>
<font id="PFAgoraSlabPro-Bold" horiz-adv-x="597">
<font-face underline-position="-50" font-weight="700" descent="-200" panose-1="2 0 8 0 0 0 0 2 0 4" units-per-em="1000" unicode-range="U+0020-25CA" bbox="-31 -269 1275 979" x-height="490" underline-thickness="50" font-family="PFAgoraSlabPro" ascent="800" cap-height="688"/>
<missing-glyph horiz-adv-x="1000"/>
<glyph glyph-name=".notdef" horiz-adv-x="1000"/>
<glyph glyph-name=".null" horiz-adv-x="0"/>
<glyph glyph-name="nonmarkingreturn" horiz-adv-x="333"/>
<glyph glyph-name="space" horiz-adv-x="297" unicode=" "/>
<glyph glyph-name="exclam" horiz-adv-x="281" unicode="!" d="M141 129q33 0 53.5 -20.5t20.5 -50.5q0 -29 -21 -50t-53 -21q-34 0 -54.5 21t-20.5 50t21.5 50t53.5 21zM206 705l-1 -266l-14 -246h-99l-13 246l-3 266h130z"/>
<glyph glyph-name="quotedbl" horiz-adv-x="362" unicode='&quot;' d="M222 448l-18 241h114l-18 -241h-78zM67 448l-18 241h115l-20 -241h-77z"/>
<glyph glyph-name="numbersign" horiz-adv-x="586" unicode="#" d="M225 264h114l30 131h-114zM446 395l-31 -131h81l-5 -67h-90l-45 -197h-77l45 197h-114l-46 -197h-77l46 197h-75l6 67h84l30 131h-82l5 66h93l42 176h75l-41 -176h115l42 176h75l-40 -176h73l-5 -66h-84z"/>
<glyph glyph-name="dollar" d="M179 495q0 -32 16 -48t42 -27v153q-26 -8 -42 -26.5t-16 -51.5zM424 196q0 32 -19.5 49.5t-50.5 29.5v-166q31 7 50.5 28t19.5 59zM278 -76h-41v83q-42 4 -82.5 14t-80.5 31v150h82v-77q23 -11 41.5 -15t39.5 -6v206q-34 10 -64 24t-52.5 34.5t-36 48.5t-13.5 66 q0 78 45 126.5t121 61.5v69h41v-816zM311 740h43v-68q34 -3 69 -11.5t64 -25.5v-146h-81v76q-12 5 -25 8.5t-27 5.5v-195q33 -11 65 -24.5t58 -34.5t42 -51t16 -73q0 -83 -49.5 -130.5t-131.5 -60.5v-86h-43v816z" unicode="$"/>
<glyph glyph-name="percent" horiz-adv-x="900" unicode="%" d="M773 199q0 21 -2 44.5t-9.5 43t-22 32.5t-39.5 13q-26 0 -41.5 -12.5t-23.5 -32t-10.5 -43.5t-2.5 -46q0 -27 3 -51t11.5 -41t23.5 -27t40 -10q22 0 36.5 11t22.5 29t11 41.5t3 48.5zM876 200q0 -39 -9 -76t-29.5 -65.5t-54.5 -45.5t-84 -17q-53 0 -87.5 16.5t-54.5 44.5 t-28.5 65t-8.5 77q0 38 8.5 75t29 66.5t55 47.5t87.5 18q54 0 88 -18.5t53.5 -48t27 -66t7.5 -73.5zM335 -20h-82l315 728h82zM274 465q0 21 -2 44.5t-9.5 43t-22 32t-39.5 12.5q-26 0 -41.5 -12.5t-23.5 -31.5t-10.5 -43t-2.5 -46q0 -28 3 -51.5t11.5 -41t23.5 -27t40 -9.5 q22 0 36.5 11t22.5 29t11 41.5t3 48.5zM377 465q0 -39 -9 -76t-29.5 -65t-54.5 -45t-84 -17q-53 0 -87.5 16.5t-54.5 44.5t-28.5 64.5t-8.5 77.5q0 38 8.5 75t29 66.5t55 47.5t87.5 18q54 0 88 -18.5t53.5 -48t27 -66.5t7.5 -74z"/>
<glyph glyph-name="ampersand" horiz-adv-x="789" unicode="&amp;" d="M266 539q0 -20 10.5 -43.5t28.5 -49.5q16 9 31.5 18.5t27.5 21.5t19.5 26t7.5 32q0 28 -18 44t-48 16q-16 0 -27 -6t-18 -16t-10.5 -21.5t-3.5 -21.5zM356 205q-24 29 -48 58.5t-45 56.5q-40 -23 -66.5 -53t-26.5 -73q0 -57 37.5 -86.5t93.5 -29.5q32 0 65.5 10.5 t64.5 30.5q-20 21 -38.5 42.5t-36.5 43.5zM288 -15q-50 0 -94 12.5t-76.5 38t-51 63t-18.5 87.5q0 62 39 116.5t120 97.5q-28 36 -39.5 69t-11.5 65q0 24 8.5 51t27.5 49.5t50.5 37t78.5 14.5q49 0 82 -15t52 -36.5t27 -46.5t8 -44q0 -29 -11.5 -54t-30.5 -46t-43.5 -38.5 t-50.5 -33.5q20 -27 43 -56.5t49 -59.5q17 -20 34 -39t35 -38q29 29 50.5 65.5t29.5 79.5h-70v87h244v-87h-64q-10 -59 -40 -113t-76 -99q33 -29 71 -55t72 -41l-47 -81q-19 8 -41.5 20.5t-46.5 27.5t-47.5 32.5t-42.5 34.5q-48 -32 -104 -48.5t-115 -16.5z"/>
<glyph glyph-name="quotesingle" horiz-adv-x="239" unicode="&apos;" d="M79 448l-18 241h115l-19 -241h-78z"/>
<glyph glyph-name="parenleft" horiz-adv-x="331" unicode="(" d="M62 280q0 73 15.5 138t39.5 120t53.5 99t58.5 76l60 -38q-13 -18 -31.5 -52t-35.5 -83.5t-29 -113.5t-12 -143q0 -87 12 -155t29.5 -119t36 -85t31.5 -52l-60 -41q-29 31 -59 76t-54 101.5t-39.5 124.5t-15.5 147z"/>
<glyph glyph-name="parenright" horiz-adv-x="333" unicode=")" d="M265 280q0 -79 -15.5 -147t-39.5 -124.5t-54 -101t-59 -75.5l-58 40q12 18 31 52t36 85t29.5 119.5t12.5 155.5q0 78 -12.5 142.5t-30 113.5t-36 83t-31.5 52l61 38q29 -32 58.5 -76t53.5 -99t39 -120t15 -138z"/>
<glyph glyph-name="asterisk" horiz-adv-x="421" unicode="*" d="M242 579q26 14 52.5 29t53.5 29q14 -25 21 -50t12 -51q-31 -5 -61 -9t-61 -7l87 -81q-19 -19 -39.5 -34t-43.5 -29l-52 110q-12 -27 -25 -54t-25 -55q-24 13 -45 27.5t-41 34.5q22 20 44.5 41t43.5 41l-119 15q6 29 13.5 53.5t19.5 49.5q26 -16 52.5 -30.5t52.5 -29.5 q-6 29 -12.5 58t-11.5 58q14 2 27.5 2.5t27.5 0.5t27 -0.5t26 -2.5q-6 -29 -11.5 -58t-12.5 -58z"/>
<glyph glyph-name="plus" d="M350 261v-170h-85v170h-164v83h164v165h85v-165h163v-83h-163z" unicode="+"/>
<glyph glyph-name="comma" horiz-adv-x="261" unicode="," d="M51 70q0 29 21 50t56 21q40 0 59.5 -26.5t19.5 -61.5q0 -27 -9.5 -54.5t-26 -53t-39 -47.5t-49.5 -38l-35 44q26 24 39.5 48t17.5 53q-30 3 -42 21.5t-12 43.5z"/>
<glyph glyph-name="hyphen" horiz-adv-x="392" unicode="-" d="M59 219v99h274v-99h-274z"/>
<glyph glyph-name="period" horiz-adv-x="261" unicode="." d="M206 66q0 -32 -22.5 -54.5t-53.5 -22.5q-32 0 -55 22.5t-23 54.5q0 16 6.5 30t17 24.5t24.5 16.5t29 6q32 0 54.5 -22.5t22.5 -54.5z"/>
<glyph glyph-name="slash" horiz-adv-x="370" unicode="/" d="M105 -33h-97l259 739h97z"/>
<glyph glyph-name="zero" d="M427 330q0 39 -3.5 82.5t-16.5 79.5t-38.5 59.5t-68.5 23.5t-69 -23.5t-40 -59.5t-18.5 -79.5t-4.5 -83.5q0 -50 5.5 -93.5t20 -75.5t40 -50t66.5 -18q39 0 63.5 20t38.5 53t19.5 76t5.5 89zM567 332q0 -66 -13.5 -127.5t-45 -108.5t-82.5 -75.5t-126 -28.5 q-81 0 -133.5 28t-83 74.5t-43 107.5t-12.5 128q0 63 12.5 125t43.5 111t83.5 79.5t132.5 30.5q81 0 133 -31t81.5 -80.5t41 -111t11.5 -121.5z" unicode="0"/>
<glyph glyph-name="one" d="M93 92h142v457q-6 -1 -28 -4t-47.5 -6t-47 -6t-27.5 -3l-15 76l180 61h123v-575h139v-92h-419v92z" unicode="1"/>
<glyph glyph-name="two" d="M505 479q0 -56 -29 -110t-72 -103.5t-91.5 -93.5t-88.5 -79v-1q51 0 102.5 -0.5t102.5 -0.5v77h104v-168h-494v83q49 41 105.5 89.5t105.5 99.5t81.5 102t32.5 97q0 96 -113 96q-26 0 -69.5 -10t-97.5 -42q-11 21 -21.5 42t-21.5 42q63 43 123 59.5t110 16.5q52 0 95 -13 t73 -37.5t46.5 -61t16.5 -84.5z" unicode="2"/>
<glyph glyph-name="three" d="M507 667l17 -75l-190 -187q44 -3 81.5 -15.5t64.5 -35.5t42.5 -57.5t15.5 -80.5q0 -57 -21 -99t-57.5 -70.5t-85.5 -42.5t-104 -14q-23 0 -51 2.5t-57.5 7.5t-59 14t-54.5 22q1 4 5.5 17.5t10 28t10 27.5t6.5 18q56 -17 95 -23.5t72 -6.5q70 0 109.5 29.5t39.5 88.5 q0 50 -37 79.5t-121 29.5q-12 0 -23 -1t-25 -3l-17 69q16 17 41.5 41.5t52.5 51t52 50.5t42 41h-182v-78h-102v172h430z" unicode="3"/>
<glyph glyph-name="four" d="M332 512q-19 -25 -42 -55t-47 -61t-47 -60.5t-42 -54.5h184l-1 231h-5zM471 667v-386h97v-92h-97v-97h67v-92h-264v92h63v97h-307v81l300 397h141z" unicode="4"/>
<glyph glyph-name="five" d="M261 335q-49 0 -105 -25l-69 37l25 320h394v-160h-105v67h-179l-12 -158q17 6 37.5 10.5t52.5 4.5q50 0 93.5 -13t76 -39.5t51.5 -66t19 -93.5q0 -57 -21 -100t-57 -71.5t-84.5 -42.5t-102.5 -14q-23 0 -51.5 2t-58.5 7t-60 14t-55 23l32 94q57 -17 96.5 -24t71.5 -7 q67 0 108.5 28.5t41.5 90.5q0 30 -11 51.5t-30 36t-44.5 21.5t-53.5 7z" unicode="5"/>
<glyph glyph-name="six" d="M309 327q-26 0 -47 -5.5t-36.5 -12.5t-26 -14t-14.5 -9v-19q0 -27 4 -58t17 -56.5t36.5 -42.5t61.5 -17q54 0 82.5 32.5t28.5 86.5q0 24 -5 45t-17 36.5t-32.5 24.5t-51.5 9zM188 379q38 20 76 31t79 11q40 0 77 -12t65.5 -37.5t45.5 -64.5t17 -93t-18 -95t-50.5 -69.5 t-77.5 -43t-99 -14.5q-72 0 -121 23.5t-79.5 65t-43.5 98t-13 121.5q0 79 16 147.5t51.5 119t91 79.5t135.5 29q53 0 91 -8t60 -17l-22 -94q-37 12 -67.5 15.5t-52.5 3.5q-47 0 -77.5 -20t-49.5 -49.5t-28 -62.5t-11 -60z" unicode="6"/>
<glyph glyph-name="seven" d="M80 479v187h443v-87q-67 -146 -132.5 -289.5t-132.5 -289.5h-132l260 574h-200v-95h-106z" unicode="7"/>
<glyph glyph-name="eight" d="M530 506q0 -35 -18 -75t-72 -81q48 -25 78.5 -66t30.5 -101q0 -41 -18 -76t-51.5 -60.5t-81 -40t-105.5 -14.5q-120 0 -186 50t-66 134q0 22 5.5 47.5t19 51t36 49.5t55.5 44q-42 26 -62.5 56t-20.5 77q0 38 17 70.5t47.5 56.5t72.5 37.5t92 13.5q39 0 79 -9.5t73 -30 t54 -53.5t21 -80zM295 94q28 0 49.5 8t36.5 21.5t22.5 31.5t7.5 37q0 21 -9.5 37.5t-28.5 31t-48 28.5t-68 30q-45 -31 -60.5 -65t-15.5 -66q0 -38 28.5 -66t85.5 -28zM206 499q0 -20 10 -34t27.5 -26t40.5 -22.5t50 -22.5q39 29 54 53.5t15 48.5q0 14 -5.5 29t-18 27 t-32 20t-46.5 8q-26 0 -44 -8.5t-29 -21t-16.5 -26.5t-5.5 -25z" unicode="8"/>
<glyph glyph-name="nine" d="M280 338q26 0 47 5.5t36.5 12.5t26 13.5t14.5 9.5v19q0 27 -4 57.5t-17 56t-36 42.5t-62 17q-54 0 -83 -32t-29 -85q0 -24 5 -45.5t17.5 -37t33 -24.5t51.5 -9zM401 287q-74 -43 -154 -43q-42 0 -79.5 12.5t-65.5 38t-44.5 64.5t-16.5 92q0 54 18.5 95.5t51 70t77.5 43.5 t98 15q72 0 121 -24t79.5 -65.5t43.5 -98t13 -122.5q0 -78 -16.5 -146t-51.5 -118.5t-91.5 -79t-135.5 -28.5q-53 0 -91.5 6.5t-64.5 15.5l21 92q39 -11 71.5 -14t55.5 -3q46 0 77 20t50 50t28 63.5t11 60.5z" unicode="9"/>
<glyph glyph-name="colon" horiz-adv-x="258" unicode=":" d="M206 363q0 -33 -22.5 -55.5t-53.5 -22.5q-32 0 -55 22.5t-23 55.5q0 31 23 53.5t54 22.5q32 0 54.5 -22.5t22.5 -53.5zM206 66q0 -32 -22.5 -54.5t-53.5 -22.5q-32 0 -55 22.5t-23 54.5q0 16 6.5 30t17 24.5t24.5 16.5t29 6q32 0 54.5 -22.5t22.5 -54.5z"/>
<glyph glyph-name="semicolon" horiz-adv-x="258" unicode=";" d="M53 70q0 29 20.5 50t55.5 21q41 0 60.5 -26.5t19.5 -61.5q0 -27 -9.5 -54.5t-26 -53t-39.5 -47.5t-50 -38l-34 44q26 24 39.5 48t17.5 53q-30 3 -42 21.5t-12 43.5zM206 363q0 -33 -22.5 -55.5t-53.5 -22.5q-32 0 -55 22.5t-23 55.5q0 31 23 53.5t54 22.5 q32 0 54.5 -22.5t22.5 -53.5z"/>
<glyph glyph-name="less" d="M523 48l-443 216v68l443 217v-96l-331 -154l331 -156v-95z" unicode="&lt;"/>
<glyph glyph-name="equal" d="M86 180v80h424v-80h-424zM86 340v81h424v-81h-424z" unicode="="/>
<glyph glyph-name="greater" d="M80 143l332 156l-332 154v96l444 -217v-68l-444 -216v95z" unicode="&gt;"/>
<glyph glyph-name="question" horiz-adv-x="495" unicode="?" d="M299 56q0 -28 -21.5 -47.5t-51.5 -19.5q-31 0 -52.5 19.5t-21.5 47.5q0 29 21.5 49.5t51.5 20.5q31 0 52.5 -20.5t21.5 -49.5zM251 709q104 0 157.5 -43t53.5 -116q0 -34 -15 -63t-37 -55t-48 -49t-48 -46.5t-37 -48t-15 -51.5q0 -11 1 -23.5t3 -27.5q-29 -1 -55.5 -2 t-55.5 -3q-4 23 -5.5 42t-1.5 33q0 32 12.5 59.5t31.5 51.5t41 46t41 42.5t31.5 40.5t12.5 41q0 35 -25.5 51.5t-67.5 16.5q-19 0 -40.5 -3t-42.5 -9v-82h-99v161q58 20 112.5 28.5t95.5 8.5z"/>
<glyph glyph-name="at" horiz-adv-x="922" unicode="@" d="M512 340l-42 -4t-38.5 -7t-28.5 -15.5t-11 -29.5q0 -24 11.5 -37.5t37.5 -13.5q35 0 71 31v76zM477 701q84 0 151 -24t113.5 -67.5t71 -105.5t24.5 -137q0 -50 -15.5 -89t-42 -65.5t-61.5 -40.5t-74 -14q-17 0 -35 3.5t-34.5 11.5t-29.5 20t-19 30q-24 -26 -59 -41 t-69 -15q-33 0 -54 11t-33 26.5t-16.5 34t-4.5 33.5q0 37 18 58t48.5 32t71 15.5t84.5 9.5v18q0 35 -13 49t-51 14q-52 0 -106 -17l-17 62q32 13 70 20.5t76 7.5q30 0 54.5 -6t42.5 -20t28 -37t10 -57v-147q0 -20 13.5 -34t43.5 -14q12 0 29 7t32.5 23.5t26.5 42t11 63.5 q0 61 -19.5 111t-56.5 85.5t-90 54.5t-119 19q-67 0 -126 -22.5t-102.5 -62.5t-69 -93.5t-25.5 -116.5q0 -64 22.5 -118.5t62 -94t94 -62t119.5 -22.5q27 0 59 4.5t74 17.5q5 -15 10.5 -30t12.5 -30q-35 -16 -76.5 -23t-79.5 -7q-87 0 -156 27.5t-117 75.5t-74 114.5 t-26 144.5q0 79 31 146.5t84.5 116.5t126 76.5t156.5 27.5z"/>
<glyph glyph-name="A" horiz-adv-x="736" unicode="A" d="M383 521q-3 13 -7 25.5t-8 26.5h-3l-16 -53q-8 -25 -18 -56t-20.5 -63t-20.5 -63t-18 -56h186zM516 94l-30 96h-245q-6 -19 -15 -46t-15 -50h65v-94h-256v94h55l208 593h177l201 -593h55v-94h-263v94h63z"/>
<glyph glyph-name="B" horiz-adv-x="686" unicode="B" d="M257 592v-193h113q51 0 79 26.5t28 69.5t-25.5 70t-81.5 27h-113zM257 308v-214h126q59 0 85.5 31.5t26.5 75.5q0 43 -27.5 75t-84.5 32h-126zM535 360q32 -11 53 -30.5t33.5 -42t17.5 -47t5 -46.5q0 -44 -16.5 -80t-45.5 -61.5t-69 -39t-87 -13.5h-385v94h72v498h-69v95 h352q115 0 171 -48.5t56 -133.5q0 -14 -3.5 -33t-13 -39.5t-26.5 -39.5t-45 -32v-1z"/>
<glyph glyph-name="C" horiz-adv-x="623" unicode="C" d="M201 345q0 -61 10.5 -106t34.5 -75t63.5 -44.5t96.5 -14.5q12 0 31.5 1t41.5 3.5t45 6.5t42 10l22 -100q-21 -8 -47.5 -15t-55 -11.5t-57.5 -7t-55 -2.5q-94 0 -156.5 27.5t-99.5 75t-52 111.5t-15 138q0 60 14 124t51 116t102 85.5t166 33.5q55 0 100 -7.5t83 -20.5 v-193h-101v103q-20 5 -40.5 7t-38.5 2q-50 0 -85.5 -17.5t-57.5 -50t-32 -78t-10 -101.5z"/>
<glyph glyph-name="D" horiz-adv-x="729" unicode="D" d="M260 591v-496h92q27 0 58 10t57.5 37t43.5 75t17 124q0 77 -16 126t-41 76.5t-56.5 37.5t-61.5 10h-93zM43 0v95h72v496h-68v97h326q91 0 150 -27.5t93.5 -74.5t48.5 -109t14 -131t-15.5 -132t-51.5 -110.5t-96 -75.5t-149 -28h-324z"/>
<glyph glyph-name="E" horiz-adv-x="649" unicode="E" d="M43 0v96h69v496h-68v95h560v-202h-101v107h-247v-192l230 6v-99l-230 6v-217h259v112h102v-208h-574z"/>
<glyph glyph-name="F" horiz-adv-x="633" unicode="F" d="M43 0v95h70v497h-69v95h562v-202h-103v107h-247v-192l230 7v-100l-230 6v-218h94v-95h-307z"/>
<glyph glyph-name="G" horiz-adv-x="689" unicode="G" d="M394 701q55 0 104.5 -7.5t87.5 -20.5v-189h-101v98q-17 5 -40 7.5t-45 2.5q-53 0 -90.5 -17.5t-61.5 -50t-35.5 -78t-11.5 -101.5q0 -57 9 -102t30 -76t55 -47.5t85 -16.5q21 0 48 3t47 8v162h-89v89h268v-89h-49v-249q-57 -20 -117.5 -28.5t-114.5 -8.5q-94 0 -156 28 t-99 76t-52.5 112t-15.5 136q0 40 6 82t20.5 82t39.5 75.5t63.5 62t91 42t123.5 15.5z"/>
<glyph glyph-name="H" horiz-adv-x="786" unicode="H" d="M468 0v95h62v217h-275v-217h63v-95h-276v95h70v497h-70v95h276v-95h-63v-190h275v190h-62v95h275v-95h-69v-497h69v-95h-275z"/>
<glyph glyph-name="I" horiz-adv-x="419" unicode="I" d="M70 0v95h68v497h-68v96h279v-96h-68v-497h68v-95h-279z"/>
<glyph glyph-name="J" horiz-adv-x="438" unicode="J" d="M71 688h312v-96h-79v-432q0 -142 -74 -224.5t-215 -116.5l-34 97q59 27 94.5 51.5t54.5 53t25 63t6 80.5v428h-90v96z"/>
<glyph glyph-name="K" horiz-adv-x="722" unicode="K" d="M429 418l218 -323h57v-95h-277l-1 95h59l-159 238l-75 -69v-170h62v-94h-270v94h69v500h-69v93h273v-93h-65v-209l225 209h-59v93h266v-93h-60z"/>
<glyph glyph-name="L" horiz-adv-x="629" unicode="L" d="M43 0v95h70v497h-69v95h285v-95h-72v-497h258v125h103v-220h-575z"/>
<glyph glyph-name="M" horiz-adv-x="963" unicode="M" d="M485 247q11 23 20 46t19 45l15 36t23 53.5t27 62.5t28 64q19 43 34 78.5t23 54.5h251v-95h-63v-498h63v-94h-264v94h59v404h-2q-12 -27 -23.5 -54.5t-22.5 -54.5q-14 -33 -32 -74t-36 -81.5t-33.5 -76t-24.5 -57.5h-126q-39 82 -73 158t-73 163q-8 19 -16.5 38t-16.5 39 h-3q0 -102 -0.5 -202.5t-0.5 -201.5h64v-94h-267v94h69v498h-69v95h253q14 -31 30.5 -67.5t33.5 -76.5q21 -46 42.5 -95t41.5 -96q14 -29 25 -55.5t20 -49.5h5z"/>
<glyph glyph-name="N" horiz-adv-x="814" unicode="N" d="M570 207v385h-68v95h268v-95h-66v-592h-140q-67 104 -134.5 206.5t-133.5 207.5q-13 21 -25.5 42t-26.5 42q-1 0 -1 -0.5t-1 -0.5v-403h68v-94h-270v94h69q0 125 0.5 248.5t0.5 249.5h-69v95h222q36 -59 67 -106.5t59.5 -92.5l57 -90t60.5 -98q15 -23 29.5 -46t28.5 -47 h5z"/>
<glyph glyph-name="O" horiz-adv-x="740" unicode="O" d="M538 342q0 48 -6.5 94t-25 81.5t-50.5 57.5t-83 22t-84.5 -21.5t-53 -57t-27 -81.5t-7.5 -96q0 -119 39.5 -183.5t132.5 -64.5q44 0 75 19t51 52t29.5 78.5t9.5 99.5zM690 344q0 -76 -20 -140.5t-60 -112t-99 -74.5t-138 -27q-84 0 -145 25.5t-100.5 72t-58.5 111 t-19 143.5q0 74 18.5 139t57.5 114t100 77t147 28t146.5 -28.5t98.5 -77t55 -113t17 -137.5z"/>
<glyph glyph-name="P" horiz-adv-x="633" unicode="P" d="M253 592v-233h94q22 0 42 6.5t34.5 20.5t23 35.5t8.5 52.5q0 61 -29 89.5t-83 28.5h-90zM605 479q0 -37 -12 -75t-39 -68.5t-69 -50t-102 -19.5h-130v-171h89v-95h-299v95h67v497h-67v96h327q117 0 176 -56.5t59 -152.5z"/>
<glyph glyph-name="Q" horiz-adv-x="743" unicode="Q" d="M537 341q0 48 -6.5 94t-24.5 81.5t-50.5 57.5t-84.5 22q-51 0 -84.5 -21.5t-53 -57t-27 -81.5t-7.5 -96q0 -119 39.5 -183t132.5 -64q44 0 75.5 18.5t51.5 51.5t29.5 78.5t9.5 99.5zM688 342q0 -104 -36.5 -185.5t-110.5 -123.5q38 -10 77 -19.5t77 -18.5l-42 -109 l-283 95q-24 4 -47 9t-43 10q-120 28 -175 116t-55 225q0 73 18 138.5t57 114.5t99.5 77.5t146.5 28.5t146.5 -28.5t98.5 -77.5t55 -114t17 -138z"/>
<glyph glyph-name="R" horiz-adv-x="688" unicode="R" d="M252 285v-189h73v-96h-280v96h65v496h-65v96h340q59 0 102 -14.5t71.5 -41t42 -63.5t13.5 -82q0 -24 -6 -50.5t-20 -51t-36.5 -45t-55.5 -31.5l100 -217l77 -10v-78q-12 -5 -27 -8t-30.5 -5t-29.5 -3t-23 -1q-43 0 -64 18.5t-37 54.5l-99 225h-111zM463 488q0 28 -8.5 48 t-23.5 32.5t-34.5 18t-41.5 5.5h-103v-215h100q20 0 40 5t35.5 17.5t25.5 34t10 54.5z"/>
<glyph glyph-name="S" horiz-adv-x="614" unicode="S" d="M142 199q0 -20 0.5 -38t0.5 -38q34 -15 71 -20.5t66 -5.5q39 0 65 8t41.5 21t22.5 30t7 34q0 24 -11 40.5t-30.5 28t-46 20t-58.5 16.5q-49 12 -90 27.5t-71 38t-47 53.5t-17 75q0 50 19 88.5t53.5 65t82.5 40.5t105 14q50 0 109.5 -9.5t107.5 -34.5q0 -39 0.5 -77.5 t0.5 -77.5h-102q0 20 -0.5 39t-0.5 39q-22 9 -54 13t-56 4q-60 0 -88 -25t-28 -64q0 -21 10 -35.5t28.5 -26t46 -20.5t63.5 -18q43 -12 85 -26t74.5 -36.5t52.5 -57t20 -86.5q0 -53 -20 -92.5t-57 -65t-90 -38t-118 -12.5q-61 0 -125.5 10.5t-121.5 37.5q0 40 -0.5 80 t-0.5 81h101z"/>
<glyph glyph-name="T" horiz-adv-x="630" unicode="T" d="M163 0v95h82v497h-129l1 -112h-101v208h599v-208h-101v112h-127v-497h81v-95h-305z"/>
<glyph glyph-name="U" horiz-adv-x="757" unicode="U" d="M664 253q0 -122 -69 -192t-217 -70q-77 0 -131.5 18t-89 51.5t-50.5 82t-16 110.5v339h-58v96h263v-96h-65v-342q0 -80 38 -117.5t110 -37.5q67 0 106.5 36.5t39.5 118.5v342h-63v96h262v-96h-60v-339z"/>
<glyph glyph-name="V" horiz-adv-x="715" unicode="V" d="M446 687h258v-96h-57q-51 -149 -100 -296.5t-100 -294.5h-177q-51 147 -101.5 294.5t-102.5 296.5h-56v96h265v-96h-59q28 -95 57 -185.5t58 -184.5q8 -24 14.5 -48.5t14.5 -49.5h4q8 25 15 49.5t14 50.5q29 92 56.5 184.5t56.5 183.5h-60v96z"/>
<glyph glyph-name="W" horiz-adv-x="1042" unicode="W" d="M520 384l-30 -101l-86 -283h-176l-160 591h-57v97h271v-97h-61l76 -310l35 -151h3l41 150l79 272l-13 39h-63l-1 97h274l1 -97h-67l97 -313l41 -134h3l32 145l70 302h-62v97h267v-97h-60q-7 -27 -19.5 -74t-28 -103.5t-32.5 -118.5t-32.5 -118.5t-28 -103t-18.5 -73.5 h-177l-86 286l-30 98h-2z"/>
<glyph glyph-name="X" horiz-adv-x="706" unicode="X" d="M610 96h68l1 -96h-295v96h57l-110 173l-111 -173h59v-96h-251v96h60l173 259l-156 236h-75v97h293v-97h-54l101 -158l106 158h-58v97h252v-97h-60l-172 -241z"/>
<glyph glyph-name="Y" horiz-adv-x="666" unicode="Y" d="M457 591h-58v97h255v-97h-55l-193 -319v-177h78v-95h-307v95h78v175l-189 321h-53v97h257v-97h-57l119 -221h4z"/>
<glyph glyph-name="Z" horiz-adv-x="608" unicode="Z" d="M203 96h279v127h103v-223h-560v94l360 498h-234v-111h-102v207h516v-92z"/>
<glyph glyph-name="bracketleft" horiz-adv-x="311" unicode="[" d="M63 -160v859h213v-79h-95v-704h95v-76h-213z"/>
<glyph glyph-name="backslash" horiz-adv-x="370" unicode="\" d="M8 706h97l259 -739h-97z"/>
<glyph glyph-name="bracketright" horiz-adv-x="311" unicode="]" d="M38 -160v76h96v704h-96v79h214v-859h-214z"/>
<glyph glyph-name="asciicircum" horiz-adv-x="485" unicode="^" d="M364 356l-127 224l-124 -224h-94l186 323h67l186 -323h-94z"/>
<glyph glyph-name="underscore" horiz-adv-x="500" unicode="_" d="M0 -145v70h500v-70h-500z"/>
<glyph glyph-name="grave" horiz-adv-x="518" unicode="`" d="M151 672l72 77l148 -169l-46 -48z"/>
<glyph glyph-name="a" horiz-adv-x="565" unicode="a" d="M472 93h75l7 -75q-36 -16 -71 -21t-59 -5q-32 0 -53.5 11.5t-22.5 51.5q-1 0 -1 0.5t-1 0.5q-25 -24 -50 -37.5t-46.5 -19.5t-39.5 -7.5t-28 -1.5q-45 0 -74.5 14t-46 35.5t-23 46.5t-6.5 46q0 28 11 53.5t32.5 45t54 32t74.5 15.5l137 9v24q0 43 -18.5 65.5t-71.5 22.5 q-36 0 -76.5 -7t-73.5 -18q-6 21 -12 42.5t-11 43.5q43 19 99 29t108 10q43 0 78 -8.5t59 -28.5t37 -52.5t13 -79.5v-237zM247 213q-36 -4 -53.5 -22t-17.5 -43q0 -35 16 -51.5t53 -16.5q23 0 48.5 11.5t45.5 30.5v100z"/>
<glyph glyph-name="b" horiz-adv-x="605" unicode="b" d="M324 399q-28 0 -55.5 -10t-50.5 -23v-257q26 -11 51 -15t45 -4q23 0 42.5 6.5t33.5 24t22 47t8 75.5q0 50 -7.5 81t-21 47.5t-31 22t-36.5 5.5zM322 -9q-21 0 -50.5 2.5t-62 8.5t-66.5 15.5t-65 24.5v581h-70v93h209v-254q41 23 77.5 32t63.5 9q58 0 97 -19.5t62.5 -54 t33 -81.5t9.5 -103q0 -51 -11 -97t-38 -81t-73 -55.5t-116 -20.5z"/>
<glyph glyph-name="c" horiz-adv-x="494" unicode="c" d="M287 501q41 0 81 -6t74 -19v-148h-94v66q-28 5 -47 5q-63 0 -92 -40t-29 -115q0 -83 32.5 -117.5t89.5 -34.5q35 0 70 7t66 18l26 -88q-34 -17 -83.5 -27.5t-100.5 -10.5q-71 0 -117.5 20t-73.5 53.5t-38 79t-11 96.5q0 43 10 89t37 84t75 63t125 25z"/>
<glyph glyph-name="d" horiz-adv-x="610" unicode="d" d="M282 401q-19 0 -37.5 -6.5t-32.5 -24.5t-23 -50t-9 -83q0 -45 7.5 -73t21 -44t32 -22t39.5 -6q26 0 55.5 12t47.5 26v243q-17 11 -46 19.5t-55 8.5zM389 43q-16 -13 -35.5 -22.5t-39.5 -16t-39.5 -10t-35.5 -3.5q-57 0 -95 19.5t-61.5 52.5t-33 77.5t-9.5 94.5 q0 57 11 106t36 85t65 56.5t98 20.5q26 0 63 -6t70 -23v149h-74v93h213v-624h69v-92h-200v42z"/>
<glyph glyph-name="e" horiz-adv-x="532" unicode="e" d="M279 502q71 0 113.5 -23.5t65 -59t29.5 -77.5t7 -79v-50h-314q-1 -62 26 -92t96 -30q39 0 76 8t75 23l30 -84q-48 -26 -100.5 -37t-102.5 -11q-73 0 -119.5 21.5t-73.5 57t-37 81t-10 94.5q0 40 10.5 85.5t37.5 84t73.5 63.5t117.5 25zM279 405q-25 0 -42.5 -9.5 t-29.5 -24.5t-18 -34t-7 -39h184q0 21 -4.5 40.5t-14 34t-26.5 23.5t-42 9z"/>
<glyph glyph-name="f" horiz-adv-x="423" unicode="f" d="M35 92h65v306h-70v76l71 20v64q0 35 8.5 65.5t29.5 53t56.5 35.5t89.5 13q26 0 63 -3.5t71 -13.5l-19 -95q-21 4 -43 6t-39 2q-39 0 -60.5 -15t-21.5 -53v-63h142v-92h-142v-306h79v-92h-280v92z"/>
<glyph glyph-name="g" horiz-adv-x="576" unicode="g" d="M367 326q0 13 -4.5 28t-15 27t-27.5 20t-42 8q-43 0 -65 -23.5t-22 -60.5q0 -38 21 -59t60 -21q41 0 68 20t27 61zM212 10q-17 -7 -30.5 -25.5t-13.5 -38.5q0 -13 5 -25t17.5 -21.5t34 -15t54.5 -5.5q57 0 88.5 19t31.5 49q0 24 -19 43.5t-66 19.5h-102zM478 419 q14 -17 21.5 -44t7.5 -50q0 -42 -17.5 -74t-48 -53.5t-71.5 -32.5t-88 -12h-57q-31 0 -46.5 -7t-15.5 -25q0 -27 40 -27h140q92 0 146 -34.5t54 -109.5q0 -33 -15.5 -63.5t-49.5 -54t-88 -37t-131 -13.5q-67 0 -111 11t-70 29t-36.5 41.5t-10.5 49.5q0 41 19 71t45 44 q-28 7 -42.5 26.5t-14.5 48.5q0 37 25.5 58t57.5 31q-29 13 -49.5 44.5t-20.5 83.5q0 49 19.5 83.5t51 56.5t72 32t82.5 10q29 0 56 -3.5t47 -8.5h174v-68h-71z"/>
<glyph glyph-name="h" horiz-adv-x="640" unicode="h" d="M86 0v623h-66v92h205v-269q41 27 83.5 41.5t80.5 14.5q51 0 82 -16t48 -41t22.5 -55t5.5 -57v-238h70v-82q-25 -11 -56.5 -16t-54.5 -5q-34 0 -53.5 10.5t-29.5 26t-12.5 32.5t-2.5 30v215q0 47 -15 67t-57 20q-26 0 -56.5 -11.5t-54.5 -27.5v-354h-139z"/>
<glyph glyph-name="i" horiz-adv-x="345" unicode="i" d="M249 636q0 -34 -24.5 -58.5t-58.5 -24.5q-35 0 -58.5 24.5t-23.5 58.5q0 35 23.5 59t58.5 24q34 0 58.5 -24t24.5 -59zM50 397v93h189v-394h71v-83q-24 -11 -56 -16.5t-55 -5.5q-54 0 -76 22t-23 70v314h-50z"/>
<glyph glyph-name="j" horiz-adv-x="328" unicode="j" d="M250 636q0 -17 -7 -32t-18 -26.5t-26.5 -18t-31.5 -6.5q-35 0 -59 24.5t-24 58.5q0 35 24 59t59 24q16 0 31.5 -6.5t26.5 -18t18 -26.5t7 -32zM39 490h201v-432q0 -62 -12 -108.5t-39 -81t-70 -59t-105 -42.5l-38 86q41 24 65.5 44.5t37.5 43t17 49.5t4 63v344h-61v93z "/>
<glyph glyph-name="k" horiz-adv-x="595" unicode="k" d="M300 490h254v-92h-63l-110 -93l128 -214q17 -2 33.5 -5.5t33.5 -5.5v-76q-23 -8 -50.5 -11.5t-44.5 -3.5q-26 0 -46 5.5t-36 33.5l-117 204l-51 -43v-98h55v-91h-259v91h65v531h-70v91h209v-410l117 96h-48v91z"/>
<glyph glyph-name="l" horiz-adv-x="349" unicode="l" d="M248 92h66v-92h-271v92h65v528h-70v93h210v-621z"/>
<glyph glyph-name="m" horiz-adv-x="939" unicode="m" d="M395 500q45 0 74.5 -15.5t47.5 -49.5q18 15 40 27t45 20.5t45.5 13.5t42.5 5q49 0 79.5 -14t47.5 -37.5t23 -54.5t6 -65v-235h66v-82q-26 -11 -55 -16t-53 -5q-35 0 -54 7.5t-29 23t-12 38.5t-2 53v194q0 45 -14 63t-54 18q-23 0 -54 -9.5t-52 -24.5q3 -15 3.5 -30.5 t0.5 -27.5v-297h-138v317q0 38 -16 54.5t-47 16.5q-25 0 -53.5 -9.5t-52.5 -26.5v-352h-140v397h-68v93h204v-44l4 -3q40 29 84.5 43t80.5 14z"/>
<glyph glyph-name="n" horiz-adv-x="645" unicode="n" d="M393 502q51 0 82 -16t47.5 -41t22 -55t5.5 -57v-238h70v-82q-25 -11 -56 -16t-55 -5q-38 0 -58 14t-29 32t-10 35t-1 24v209q0 47 -15 67t-57 20q-26 0 -56.5 -11.5t-53.5 -27.5v-354h-140v398h-66v92h204v-43q2 0 2.5 -0.5t2.5 -0.5q41 27 82 41.5t79 14.5z"/>
<glyph glyph-name="o" horiz-adv-x="574" unicode="o" d="M391 244q0 28 -4 56.5t-15 50.5t-30.5 36t-50.5 14q-32 0 -53 -13.5t-33 -35.5t-17 -50.5t-5 -57.5q0 -32 4 -60t15.5 -49t32 -33.5t53.5 -12.5q31 0 51.5 13t31.5 35t15.5 49.5t4.5 57.5zM534 245q0 -51 -14 -97t-44 -81t-77.5 -55.5t-115.5 -20.5q-65 0 -111.5 20 t-75.5 54t-42.5 80t-13.5 99q0 52 14.5 98.5t45 81.5t77.5 56t112 21q66 0 113 -20.5t76 -56t42.5 -82t13.5 -97.5z"/>
<glyph glyph-name="p" horiz-adv-x="607" unicode="p" d="M329 93q19 0 37 6.5t32 24t23 48.5t9 81q0 44 -7.5 71.5t-21 43t-31.5 21t-39 5.5q-26 0 -56 -12t-48 -26v-234q18 -11 46.5 -20t55.5 -9zM20 -118h68v515h-68v93h199v-44l2 -1q16 13 35 23t39.5 16.5t40 10t35.5 3.5q57 0 95.5 -19.5t61.5 -52.5t33 -77t10 -94 q0 -57 -11 -106t-36 -84t-65.5 -55t-98.5 -20q-25 0 -62 6.5t-71 23.5v-138h73v-93h-280v93z"/>
<glyph glyph-name="q" horiz-adv-x="601" unicode="q" d="M282 94q28 0 55.5 9t50.5 22v256q-22 8 -44.5 12t-44.5 4q-24 0 -45 -7.5t-36 -25.5t-23.5 -47t-8.5 -72v-11q0 -41 7 -69t20.5 -44t31 -21.5t37.5 -5.5zM314 -118h75v147q-41 -23 -77.5 -32t-63.5 -9q-56 0 -95 18t-63 50t-34 75.5t-10 92.5v9q0 53 12 101.5t40.5 85 t77 58.5t121.5 22q21 0 48.5 -2.5t58 -7.5t62.5 -14.5t61 -22.5v-571h70v-93h-283v93z"/>
<glyph glyph-name="r" horiz-adv-x="458" unicode="r" d="M239 418q16 13 37.5 28t45.5 27.5t49.5 20.5t49.5 8q18 0 25.5 -9.5t7.5 -32.5q0 -12 -2.5 -27t-7.5 -31t-13 -30.5t-18 -25.5l-176 10v-264h68v-92h-271v92h64v306h-61v93h198v-72z"/>
<glyph glyph-name="s" horiz-adv-x="499" unicode="s" d="M128 158l2 -58q17 -8 45 -12.5t50 -4.5q38 0 66 12.5t28 38.5q0 15 -7 25.5t-18.5 18t-26 12.5t-30.5 9q-36 10 -72 21t-64.5 27t-46 40t-17.5 61q0 79 57 116t154 37q45 0 92.5 -9t84.5 -29v-61.5t1 -62.5h-97l-1 56q-15 6 -34.5 9t-36.5 3q-34 0 -56 -13t-22 -38 q0 -12 8 -20.5t20 -14.5t26.5 -10t26.5 -7q30 -8 65.5 -18t66 -28t50.5 -47t20 -77q0 -72 -59.5 -107.5t-168.5 -35.5q-21 0 -46.5 1.5t-52 6t-53 12t-49.5 19.5v64t-1 64h96z"/>
<glyph glyph-name="t" horiz-adv-x="421" unicode="t" d="M224 626v-135h142v-93h-143v-221q0 -42 12.5 -60t54.5 -18q15 0 37.5 3t48.5 9l18 -91q-32 -14 -70 -21t-70 -7q-52 0 -85 11.5t-51.5 31.5t-25.5 46.5t-7 55.5v261h-69v77l78 23l35 119z"/>
<glyph glyph-name="u" horiz-adv-x="635" unicode="u" d="M242 -11q-44 0 -73 12t-46.5 33.5t-25 50.5t-7.5 63v249h-66v93h206v-313q0 -38 11.5 -58t52.5 -20q20 0 50.5 10.5t57.5 36.5v251h-57v93h197v-395h66v-82q-35 -12 -63.5 -16.5t-47.5 -4.5q-45 0 -64.5 15.5t-24.5 50.5q-42 -38 -85 -53.5t-81 -15.5z"/>
<glyph glyph-name="v" horiz-adv-x="599" unicode="v" d="M305 108q4 14 10.5 34t13.5 41l13.5 40.5t10.5 33.5q5 14 11 32l12.5 37.5t12.5 38t11 32.5h-39v94h218v-94h-44q-8 -22 -19.5 -54t-25.5 -68.5t-29.5 -76t-29.5 -76t-26 -68.5t-20 -54h-171q-11 33 -31 85.5t-41.5 108.5t-41 109t-30.5 86h-51v102h156l72 -217 q5 -15 12 -37t15 -45.5t15 -45.5t12 -38h4z"/>
<glyph glyph-name="w" horiz-adv-x="897" unicode="w" d="M630 99l35 127l50 172h-54v93h224v-93l-44 -1l-122 -397h-180l-50 129l-43 115h-5l-39 -115l-41 -129h-180l-117 389h-52v102h155l71 -251l39 -142h6l39 125l51 154l-8 20h-70v94h269v-94h-50l66 -177l46 -121h4z"/>
<glyph glyph-name="x" horiz-adv-x="587" unicode="x" d="M33 493h169l111 -155l53 66h-46v89h227v-89h-50l-133 -153l120 -162h69v-89h-262v89h35l-61 83l-69 -83h34v-89h-206l1 89h38l145 173l-103 141h-73z"/>
<glyph glyph-name="y" d="M299 101q4 15 17.5 56t28.5 88.5t29 90.5t20 61h-54v93h234v-93h-47l-181 -508q-18 -51 -50 -77.5t-98 -26.5q-3 0 -15 0.5t-30 2t-40 5.5t-45 12l19 100q21 -4 39.5 -6.5t35.5 -2.5q33 0 47 9.5t22 28.5l30 77h-63q-32 95 -61.5 189.5t-61.5 190.5h-54v99h155 q5 -16 15 -47.5t22 -71t25 -82t24.5 -80t20 -67t12.5 -41.5h4z" unicode="y"/>
<glyph glyph-name="z" horiz-adv-x="512" unicode="z" d="M200 87h186v84h94v-171h-450v80l269 322h-159v-77h-94v166h424v-78z"/>
<glyph glyph-name="braceleft" horiz-adv-x="325" unicode="{" d="M220 -166q-35 0 -58 11.5t-36.5 31t-19 45t-5.5 54.5v180q0 40 -17 65t-54 28v73q71 13 71 97v136q0 26 4.5 52.5t17 47.5t35 34.5t58.5 13.5h88v-78h-27q-33 0 -44.5 -19.5t-11.5 -46.5v-153q0 -44 -14.5 -76t-55.5 -41v-2q44 -17 57 -50.5t13 -85.5v-175q0 -13 2 -25 t8 -21t16.5 -14.5t27.5 -5.5h29v-76h-84z"/>
<glyph glyph-name="bar" horiz-adv-x="311" unicode="|" d="M107 -146v853h94v-853h-94z"/>
<glyph glyph-name="braceright" horiz-adv-x="325" unicode="}" d="M23 -166v76h29q17 0 27.5 5.5t16.5 14.5t8 21t2 25v175q0 52 13 85.5t57 50.5v2q-41 9 -55.5 41t-14.5 76v153q0 27 -11.5 46.5t-44.5 19.5h-27v78h88q36 0 58.5 -13.5t35 -34.5t17 -47.5t4.5 -52.5v-136q0 -84 71 -97v-73q-37 -3 -54 -28t-17 -65v-180q0 -29 -5.5 -54.5 t-19 -45t-36.5 -31t-58 -11.5h-84z"/>
<glyph glyph-name="asciitilde" d="M413 231q-32 0 -63 7t-60 16t-55 16t-47 7l-70 -47l-49 38q22 56 55 81t74 25q27 0 56.5 -7t59.5 -15.5t58.5 -15.5t52.5 -7l68 48l47 -37q-20 -52 -51 -80.5t-76 -28.5z" unicode="~"/>
<glyph glyph-name="exclamdown" horiz-adv-x="281" unicode="¡" d="M141 358q-32 0 -53.5 21t-21.5 50t20.5 50.5t54.5 21.5q32 0 53 -21.5t21 -50.5t-20.5 -50t-53.5 -21zM76 -218l3 267l13 246h99l14 -246l1 -267h-130z"/>
<glyph glyph-name="cent" d="M226 244q0 -60 17.5 -94t49.5 -48v286q-35 -15 -51 -51.5t-16 -92.5zM293 -7q-61 4 -101 25.5t-63.5 54.5t-33 76t-9.5 91q0 40 8.5 83t31.5 79.5t63 63t104 33.5v91h56v-89q37 -2 72.5 -8t66.5 -17v-148h-94v66q-12 2 -23.5 3.5t-21.5 1.5v-307q35 0 69.5 7t65.5 18 l26 -88q-30 -16 -73 -25.5t-88 -11.5v-77h-56v78z" unicode="¢"/>
<glyph glyph-name="sterling" d="M136 373l6 93q3 48 17.5 88t41 68t66.5 43.5t94 15.5q57 0 102.5 -11.5t78.5 -25.5v-152h-99v75q-17 5 -35 8t-40 3q-54 0 -75 -31t-25 -89l-5 -85h157v-71h-162l-4 -60q-2 -45 -12.5 -86t-36.5 -65h331v-91h-481l1 91q21 13 34.5 30.5t21 38t11 43t5.5 45.5l3 54h-62v71 h67z" unicode="£"/>
<glyph glyph-name="currency" d="M65 480l58 58l64 -64q50 33 111 33q58 0 111 -34l63 65l59 -59l-66 -63q33 -49 33 -110q0 -29 -8.5 -57t-24.5 -53l66 -61l-59 -60l-64 64q-26 -19 -53.5 -26t-56.5 -7t-56.5 7t-53.5 26l-65 -65l-58 60l65 63q-19 26 -26.5 54t-7.5 54q0 29 8.5 57.5t25.5 52.5zM181 306 q0 -24 9 -45.5t24.5 -37t37 -24.5t45.5 -9t45 9t37 24.5t25 37t9 45.5t-9 45t-24.5 36.5t-37 25t-45.5 9.5t-45.5 -9t-37 -25t-24.5 -37t-9 -45z" unicode="¤"/>
<glyph glyph-name="yen" d="M529 257v-52h-167v-113h75v-92h-285v92h75v112l-1 1h-161v52h464zM65 302v50h107q-27 57 -54.5 111t-54.5 110h-48v94h236v-94h-55q25 -57 50 -111.5t51 -110.5h4q25 56 49.5 111t50.5 111h-57v94h233v-94h-47q-28 -56 -55.5 -110t-55.5 -111h110v-50h-464z" unicode="¥"/>
<glyph glyph-name="brokenbar" horiz-adv-x="311" unicode="¦" d="M201 230v-376h-94v376h94zM107 361v346h94v-346h-94z"/>
<glyph glyph-name="section" horiz-adv-x="525" unicode="§" d="M359 276q0 20 -12.5 35t-33 27t-47 23t-53.5 23q-41 -32 -41 -71q0 -23 12 -37t32.5 -24.5t47.5 -21t57 -25.5q18 17 28 36.5t10 34.5zM464 298q0 -38 -16 -69.5t-50 -60.5q42 -27 59 -59.5t17 -62.5q0 -78 -61 -121.5t-168 -43.5q-52 0 -94 9.5t-75 20.5v137h92 q0 -17 -0.5 -34.5t-0.5 -35.5q18 -5 37.5 -8.5t41.5 -3.5q29 0 49 6.5t32 17t17.5 22.5t5.5 23q0 30 -25 50.5t-78 40.5q-34 13 -67 27t-59.5 33t-42.5 44.5t-16 61.5q0 79 71 130q-29 21 -45.5 46t-16.5 63q0 41 16.5 71.5t45.5 50.5t68 29.5t83 9.5q53 0 94.5 -9.5 t69.5 -20.5v-138h-93v75q-20 5 -36.5 8t-36.5 3q-44 0 -68.5 -19.5t-24.5 -51.5q0 -17 13.5 -30.5t33 -25.5t42 -21.5t40.5 -16.5q28 -11 54.5 -24t46.5 -30t32.5 -39.5t12.5 -53.5z"/>
<glyph glyph-name="dieresis" horiz-adv-x="454" unicode="¨" d="M188 607q0 -24 -16.5 -40.5t-42.5 -16.5q-25 0 -41.5 16.5t-16.5 40.5q0 25 17 41.5t40 16.5q26 0 43 -16t17 -42zM389 607q0 -24 -17.5 -40.5t-43.5 -16.5q-24 0 -40.5 16.5t-16.5 40.5q0 25 17 41.5t40 16.5q26 0 43.5 -16t17.5 -42z"/>
<glyph glyph-name="copyright" horiz-adv-x="858" unicode="©" d="M315 325q0 -84 33 -125.5t111 -41.5q9 0 23 1t29.5 2.5t31 4.5t27.5 6l14 -68q-29 -11 -70.5 -17.5t-77.5 -6.5q-65 0 -107.5 19t-68.5 51.5t-36.5 76.5t-10.5 95q0 42 10.5 86t36.5 80.5t71.5 60t115.5 23.5q39 0 70 -6t56 -14v-130h-68v68q-27 6 -55 6 q-70 0 -102.5 -45.5t-32.5 -125.5zM748 330q0 66 -25 124t-68.5 101.5t-101.5 68.5t-125 25q-66 0 -124.5 -25t-102 -68.5t-69 -101.5t-25.5 -124t25.5 -123.5t69 -101t102 -68.5t124.5 -25q67 0 125 25t101.5 68.5t68.5 101t25 123.5zM808 330q0 -78 -30 -147t-82 -120 t-121 -81t-147 -30q-79 0 -148.5 30t-121 81t-81.5 120t-30 147t30 147t81.5 120t121 81t148.5 30q78 0 147 -30t121 -81t82 -120t30 -147z"/>
<glyph glyph-name="ordfeminine" horiz-adv-x="385" unicode="ª" d="M230 412q-20 -1 -39 -2t-34 -6q-33 -9 -33 -39q0 -20 10.5 -30t34.5 -10q14 0 31 6.5t30 17.5v63zM328 337h40l5 -59q-17 -7 -40.5 -11.5t-40.5 -4.5q-20 0 -37 8.5t-20 31.5q-17 -15 -33 -23t-30 -11.5t-25.5 -4.5t-18.5 -1q-32 0 -53 9.5t-33 23.5t-17 31t-5 31 q0 32 17 54.5t55 32.5q29 8 64.5 11.5t73.5 5.5v12q0 27 -11.5 40t-46.5 13q-23 0 -51 -4t-53 -12q-4 14 -8.5 29.5t-9.5 31.5q32 13 71 20t75 7q62 0 97 -25t35 -89v-147z"/>
<glyph glyph-name="guillemotleft" horiz-adv-x="493" unicode="«" d="M233 216l167 179l56 -40l-104 -158l103 -156l-56 -42l-166 179v38zM49 216l166 179l56 -40l-104 -158l103 -156l-57 -42l-164 179v38z"/>
<glyph glyph-name="logicalnot" d="M513 91h-86v170h-326v83h412v-253z" unicode="¬"/>
<glyph glyph-name="sfthyphen" horiz-adv-x="392" unicode="­" d="M59 219v99h274v-99h-274z"/>
<glyph glyph-name="registered" horiz-adv-x="608" unicode="®" d="M355 532q0 23 -13 32.5t-31 9.5h-40v-86h39q18 0 31.5 9t13.5 35zM271 445v-75h29v-43h-121v43h28v203h-28v44h144q51 0 74.5 -24t23.5 -62q0 -19 -12 -41.5t-38 -33.5l42 -86l33 -4v-38q-11 -3 -25.5 -4.5t-23.5 -1.5q-18 0 -27.5 8.5t-15.5 23.5l-43 91h-40zM512 466 q0 43 -16 81.5t-44 67t-66.5 45t-83.5 16.5t-84 -16.5t-67 -45t-44 -67t-16 -81.5t15.5 -81.5t43.5 -67t67 -45t85 -16.5q47 0 86 16.5t66.5 45t42.5 67t15 81.5zM558 466q0 -53 -19.5 -99.5t-54 -81t-81.5 -54.5t-101 -20q-55 0 -102 20t-81.5 54.5t-54.5 81t-20 99.5 t19.5 99.5t54 81t81.5 54.5t103 20q55 0 101.5 -20t81 -54.5t54 -81t19.5 -99.5z"/>
<glyph glyph-name="macron" horiz-adv-x="556" unicode="¯" d="M96 674h363v-91h-363v91z"/>
<glyph glyph-name="degree" horiz-adv-x="373" unicode="°" d="M266 536q0 35 -20.5 59t-58.5 24q-35 0 -57 -24t-22 -59q0 -34 22 -56.5t57 -22.5q33 0 56 22.5t23 56.5zM336 538q0 -31 -11.5 -58t-31.5 -47.5t-47 -32t-58 -11.5q-33 0 -60 11t-47 31t-31 47t-11 60q0 30 12 57.5t32 47.5t47.5 32t57.5 12q31 0 58 -10.5t47 -30 t31.5 -47t11.5 -61.5z"/>
<glyph glyph-name="plusminus" d="M512 79v-79h-411v79h411zM350 277v-152h-86v152h-163v83h163v150h86v-150h162v-83h-162z" unicode="±"/>
<glyph glyph-name="twosuperior" horiz-adv-x="392" unicode="²" d="M332 646q0 -31 -17.5 -62t-44 -59t-57 -52t-55.5 -42h112v39h81v-115h-326v66q32 24 67 52t64.5 57t49 56.5t19.5 49.5q0 24 -16.5 35.5t-45.5 11.5q-17 0 -44 -6.5t-64 -26.5l-35 65q43 29 83 39.5t74 10.5q73 0 114 -31t41 -88z"/>
<glyph glyph-name="threesuperior" horiz-adv-x="392" unicode="³" d="M102 587q11 10 26 23t30.5 26t30 26t25.5 23h-96v-43h-77v117h290q1 -4 3 -11.5t4 -16t3.5 -16t3.5 -11.5q-11 -10 -26 -23t-30 -26.5l-30 -27t-26 -23.5q52 -8 85.5 -35.5t33.5 -78.5q0 -34 -14 -60t-38.5 -43.5t-57 -26.5t-69.5 -9q-34 0 -75 5.5t-78 24.5l6 15t8 20.5 t7.5 20.5t5.5 15q42 -13 70.5 -16t47.5 -3q37 0 59 15.5t22 42.5q0 23 -19.5 38t-65.5 15q-12 0 -22.5 -1t-23.5 -3z"/>
<glyph glyph-name="acute" horiz-adv-x="522" unicode="´" d="M236 532l-46 48l147 169l73 -77z"/>
<glyph glyph-name="mu" horiz-adv-x="612" unicode="µ" d="M272 -5q-19 -3 -31.5 -3.5t-23.5 -0.5v-109h69v-91h-274v91h66q0 77 -0.5 138.5t-0.5 120v119.5v136h-64v93h204v-312q0 -33 16 -56.5t60 -23.5q21 0 47.5 11t52.5 35v254h-56v93h196q0 -100 -0.5 -197.5t-0.5 -197.5h65q0 -21 0.5 -41.5t1.5 -40.5q-34 -12 -63 -16.5 t-48 -4.5q-45 0 -64.5 15.5t-24.5 50.5q-36 -33 -68.5 -46t-58.5 -17z"/>
<glyph glyph-name="mu" horiz-adv-x="612" unicode="μ" d="M272 -5q-19 -3 -31.5 -3.5t-23.5 -0.5v-109h69v-91h-274v91h66q0 77 -0.5 138.5t-0.5 120v119.5v136h-64v93h204v-312q0 -33 16 -56.5t60 -23.5q21 0 47.5 11t52.5 35v254h-56v93h196q0 -100 -0.5 -197.5t-0.5 -197.5h65q0 -21 0.5 -41.5t1.5 -40.5q-34 -12 -63 -16.5 t-48 -4.5q-45 0 -64.5 15.5t-24.5 50.5q-36 -33 -68.5 -46t-58.5 -17z"/>
<glyph glyph-name="paragraph" horiz-adv-x="611" unicode="¶" d="M244 295q-44 0 -81 14.5t-64 41t-42 63.5t-15 82q0 42 14.5 80t41 66t64 44.5t82.5 16.5h336v-92h-67v-817h-94v817h-61v-817h-182v86h87v415h-19z"/>
<glyph glyph-name="periodcentered" horiz-adv-x="258" unicode="·" d="M207 281q0 -31 -22.5 -53t-53.5 -22t-53 22t-22 53q0 32 21.5 54t53.5 22t54 -22t22 -54z"/>
<glyph glyph-name="cedilla" horiz-adv-x="477" unicode="¸" d="M314 18q-14 -18 -29 -37t-29 -39q50 -3 79 -24.5t29 -61.5q0 -21 -11.5 -40.5t-34.5 -34.5t-59.5 -24t-85.5 -9q0 12 -0.5 24t-0.5 24q54 5 84 18.5t30 36.5q0 12 -8 19t-21.5 11t-30 5t-34.5 1q-5 7 -8 12.5t-8 11.5q26 33 50 65.5t50 64.5q9 -7 19 -12t19 -11z"/>
<glyph glyph-name="onesuperior" horiz-adv-x="392" unicode="¹" d="M55 430h89v239q-8 -1 -20.5 -2.5t-26 -3t-26 -3t-19.5 -2.5l-13 64l121 37h90v-329h87v-75h-282v75z"/>
<glyph glyph-name="ordmasculine" horiz-adv-x="397" unicode="º" d="M266 431q0 18 -2.5 35.5t-10 31.5t-20 23t-33.5 9t-34 -9t-21 -23.5t-11 -32t-3 -35.5q0 -19 2.5 -36.5t10 -31t21 -21.5t35.5 -8q20 0 33 8.5t20.5 22t10 31.5t2.5 36zM370 431q0 -34 -9.5 -64t-30.5 -53t-54.5 -36.5t-80.5 -13.5q-45 0 -77.5 13t-52.5 35.5t-29.5 53 t-9.5 65.5q0 34 10 64.5t31 53.5t54 36.5t79 13.5t78.5 -13.5t52.5 -36.5t29.5 -53.5t9.5 -64.5z"/>
<glyph glyph-name="guillemotright" horiz-adv-x="493" unicode="»" d="M265 178l-164 -179l-57 42l103 156l-104 158l57 40l165 -179v-38zM451 178l-165 -179l-56 42l102 156l-103 158l57 40l165 -179v-38z"/>
<glyph glyph-name="onequarter" horiz-adv-x="900" unicode="¼" d="M680 302q-26 -34 -52 -64t-49 -59h101v123zM358 -20h-82l315 728h82zM81 340h89v239q-8 -1 -20.5 -2.5t-26 -3t-26 -3t-19.5 -2.5l-13 64l121 37h90v-329h87v-75h-282v75zM779 403v-224h62v-66h-62v-47h43v-65h-182v65h39v47h-195v55l195 235h100z"/>
<glyph glyph-name="onehalf" horiz-adv-x="900" unicode="½" d="M832 290q0 -31 -17.5 -61.5t-44 -58.5t-57 -52.5t-55.5 -42.5h112v40h81v-116h-326v66q32 24 67 52t64.5 57t49 56.5t19.5 50.5t-16.5 34.5t-45.5 11.5q-17 0 -44 -6.5t-64 -26.5l-35 65q43 29 83 39.5t74 10.5q73 0 114 -30.5t41 -88.5zM329 -20h-82l315 728h82zM59 340 h89v239q-8 -1 -20.5 -2.5t-26 -3t-26 -3t-19.5 -2.5l-13 64l121 37h90v-329h87v-75h-282v75z"/>
<glyph glyph-name="threequarters" horiz-adv-x="900" unicode="¾" d="M678 302q-26 -34 -52 -64t-49 -59h101v123zM344 -20h-82l315 728h82zM130 497q11 10 26 23t30.5 26t30 26t25.5 23h-96v-43h-77v117h290q1 -4 3 -11.5t4 -16t3.5 -16t3.5 -11.5q-11 -10 -26 -23t-30 -26.5l-30 -27t-26 -23.5q52 -8 85.5 -35.5t33.5 -78.5q0 -34 -14 -60 t-38.5 -43.5t-57 -26.5t-69.5 -9q-34 0 -75 5.5t-78 24.5l6 15t8 20.5t7.5 20.5t5.5 15q42 -13 70.5 -16t47.5 -3q37 0 59 15.5t22 42.5q0 23 -19.5 38t-65.5 15q-12 0 -22.5 -1t-23.5 -3zM777 403v-224h62v-66h-62v-47h43v-65h-182v65h39v47h-195v55l195 235h100z"/>
<glyph glyph-name="questiondown" horiz-adv-x="495" unicode="¿" d="M211 427q0 29 21.5 50t50.5 21q32 0 53.5 -21t21.5 -50q0 -28 -21.5 -48.5t-52.5 -20.5q-30 0 -51.5 20t-21.5 49zM189 -53q0 -35 28 -50t67 -15q33 0 51 3t33 8v82h99v-160q-59 -22 -113 -29.5t-96 -7.5q-96 0 -150 36.5t-59 99.5q0 22 4.5 40t12.5 33t19 29.5t25 29.5 q29 32 54 58t44 50t29.5 46.5t10.5 48.5q0 11 -2 22t-4 27q29 1 56.5 2t56.5 3q4 -23 5.5 -41.5t1.5 -32.5q0 -36 -11 -63.5t-29 -51t-40.5 -45t-45.5 -45.5q-20 -18 -33.5 -36t-13.5 -41z"/>
<glyph glyph-name="Agrave" horiz-adv-x="736" unicode="À" d="M198 875l70 77l148 -169l-46 -47zM383 521q-3 13 -7 25.5t-8 26.5h-3l-16 -53q-8 -25 -18 -56t-20.5 -63t-20.5 -63t-18 -56h186zM516 94l-30 96h-245q-6 -19 -15 -46t-15 -50h65v-94h-256v94h55l208 593h177l201 -593h55v-94h-263v94h63z"/>
<glyph glyph-name="Aacute" horiz-adv-x="736" unicode="Á" d="M378 736l-47 48l148 169l73 -78zM383 521q-3 13 -7 25.5t-8 26.5h-3l-16 -53q-8 -25 -18 -56t-20.5 -63t-20.5 -63t-18 -56h186zM516 94l-30 96h-245q-6 -19 -15 -46t-15 -50h65v-94h-256v94h55l208 593h177l201 -593h55v-94h-263v94h63z"/>
<glyph glyph-name="Acircumflex" horiz-adv-x="736" unicode="Â" d="M383 521q-3 13 -7 25.5t-8 26.5h-3l-16 -53q-8 -25 -18 -56t-20.5 -63t-20.5 -63t-18 -56h186zM529 737l-164 99l-163 -100l-33 40l153 147h87l156 -145zM516 94l-30 96h-245q-6 -19 -15 -46t-15 -50h65v-94h-256v94h55l208 593h177l201 -593h55v-94h-263v94h63z"/>
<glyph glyph-name="Atilde" horiz-adv-x="736" unicode="Ã" d="M383 521q-3 13 -7 25.5t-8 26.5h-3l-16 -53q-8 -25 -18 -56t-20.5 -63t-20.5 -63t-18 -56h186zM451 758q-25 0 -49.5 6t-47 13.5t-42 13.5t-34.5 6l-56 -39l-41 31q17 48 43.5 69.5t59.5 21.5q21 0 43.5 -6t45 -12.5t44 -12.5t39.5 -6l55 40l40 -31q-15 -45 -40 -69.5 t-60 -24.5zM516 94l-30 96h-245q-6 -19 -15 -46t-15 -50h65v-94h-256v94h55l208 593h177l201 -593h55v-94h-263v94h63z"/>
<glyph glyph-name="Adieresis" horiz-adv-x="736" unicode="Ä" d="M328 785q0 -25 -17 -41.5t-42 -16.5t-41.5 16.5t-16.5 41.5q0 24 17 41t40 17q26 0 43 -16.5t17 -41.5zM528 785q0 -25 -17 -41.5t-43 -16.5q-24 0 -40.5 16.5t-16.5 41.5q0 24 16.5 41t40.5 17q26 0 43 -16.5t17 -41.5zM383 521q-3 13 -7 25.5t-8 26.5h-3l-16 -53 q-8 -25 -18 -56t-20.5 -63t-20.5 -63t-18 -56h186zM516 94l-30 96h-245q-6 -19 -15 -46t-15 -50h65v-94h-256v94h55l208 593h177l201 -593h55v-94h-263v94h63z"/>
<glyph glyph-name="Aring" horiz-adv-x="736" unicode="Å" d="M364 914q-24 0 -40.5 -17t-16.5 -40q0 -21 15.5 -37.5t41.5 -16.5q23 0 38 16.5t15 37.5q0 23 -14.5 40t-38.5 17zM383 521q-3 13 -7 25.5t-8 26.5h-3l-16 -53q-8 -25 -18 -56t-20.5 -63t-20.5 -63t-18 -56h186zM364 740q-26 0 -49 9.5t-39.5 26t-26 38t-9.5 46.5 q0 24 9.5 45.5t26 38t39.5 26t49 9.5t48 -9.5t38 -26t25 -38t9 -45.5q0 -26 -9.5 -47.5t-25.5 -38t-38 -25.5t-47 -9zM516 94l-30 96h-245q-6 -19 -15 -46t-15 -50h65v-94h-256v94h55l208 593h177l201 -593h55v-94h-263v94h63z"/>
<glyph glyph-name="AE" horiz-adv-x="1026" unicode="Æ" d="M330 293h188v295h-5zM518 202h-239l-67 -108h62v-94h-264v94h56l311 498h-53v95h650v-198h-102v105h-211v-194l211 6v-98l-211 5v-219h223v110h102v-204h-539v94h71v108z"/>
<glyph glyph-name="Ccedilla" horiz-adv-x="623" unicode="Ç" d="M201 345q0 -61 10.5 -106t34.5 -75t63.5 -44.5t96.5 -14.5q12 0 31.5 1t41.5 3.5t45 6.5t42 10l22 -100q-38 -15 -89 -24t-100 -11q-12 -16 -25 -32.5t-25 -33.5q50 -3 79 -24.5t29 -61.5q0 -21 -11.5 -40.5t-34.5 -34.5t-59.5 -24t-85.5 -9q0 12 -0.5 24t-0.5 24 q54 5 84 18.5t30 36.5q0 12 -8 19t-21.5 11t-30 5t-34.5 1q-5 7 -8 12.5t-8 11.5l74 97q-85 4 -141.5 33t-90 76.5t-47.5 109t-14 132.5q0 60 14 124t51 116t102 85.5t166 33.5q55 0 100 -7.5t83 -20.5v-193h-101v103q-20 5 -40.5 7t-38.5 2q-50 0 -85.5 -17.5t-57.5 -50 t-32 -78t-10 -101.5z"/>
<glyph glyph-name="Egrave" horiz-adv-x="649" unicode="È" d="M198 875l70 77l148 -169l-46 -47zM43 0v96h69v496h-68v95h560v-202h-101v107h-247v-192l230 6v-99l-230 6v-217h259v112h102v-208h-574z"/>
<glyph glyph-name="Eacute" horiz-adv-x="649" unicode="É" d="M330 736l-47 48l148 169l73 -78zM43 0v96h69v496h-68v95h560v-202h-101v107h-247v-192l230 6v-99l-230 6v-217h259v112h102v-208h-574z"/>
<glyph glyph-name="Ecircumflex" horiz-adv-x="649" unicode="Ê" d="M507 737l-164 99l-163 -100l-33 40l153 147h87l156 -145zM43 0v96h69v496h-68v95h560v-202h-101v107h-247v-192l230 6v-99l-230 6v-217h259v112h102v-208h-574z"/>
<glyph glyph-name="Edieresis" horiz-adv-x="649" unicode="Ë" d="M301 785q0 -25 -17 -41.5t-42 -16.5t-41.5 16.5t-16.5 41.5q0 24 17 41t40 17q26 0 43 -16.5t17 -41.5zM501 785q0 -25 -17 -41.5t-43 -16.5q-24 0 -40.5 16.5t-16.5 41.5q0 24 16.5 41t40.5 17q26 0 43 -16.5t17 -41.5zM43 0v96h69v496h-68v95h560v-202h-101v107h-247 v-192l230 6v-99l-230 6v-217h259v112h102v-208h-574z"/>
<glyph glyph-name="Igrave" horiz-adv-x="419" unicode="Ì" d="M42 875l70 77l148 -169l-46 -47zM70 0v95h68v497h-68v96h279v-96h-68v-497h68v-95h-279z"/>
<glyph glyph-name="Iacute" horiz-adv-x="419" unicode="Í" d="M217 736l-47 48l148 169l73 -78zM70 0v95h68v497h-68v96h279v-96h-68v-497h68v-95h-279z"/>
<glyph glyph-name="Icircumflex" horiz-adv-x="419" unicode="Î" d="M373 737l-164 99l-163 -100l-33 40l153 147h87l156 -145zM70 0v95h68v497h-68v96h279v-96h-68v-497h68v-95h-279z"/>
<glyph glyph-name="Idieresis" horiz-adv-x="419" unicode="Ï" d="M164 785q0 -25 -17 -41.5t-42 -16.5t-41.5 16.5t-16.5 41.5q0 24 17 41t40 17q26 0 43 -16.5t17 -41.5zM364 785q0 -25 -17 -41.5t-43 -16.5q-24 0 -40.5 16.5t-16.5 41.5q0 24 16.5 41t40.5 17q26 0 43 -16.5t17 -41.5zM70 0v95h68v497h-68v96h279v-96h-68v-497h68v-95 h-279z"/>
<glyph glyph-name="Eth" horiz-adv-x="729" unicode="Ð" d="M260 594v-200h117v-64h-117v-236h92q27 0 58 10t57.5 37.5t43.5 75.5t17 124q0 77 -16 126.5t-41 77.5t-56.5 38.5t-61.5 10.5h-93zM43 0v94h72v236h-68v64h68v200h-68v94h326q91 0 150 -27.5t93.5 -74.5t48.5 -109t14 -131t-15.5 -132t-51.5 -110.5t-96 -75.5t-149 -28 h-324z"/>
<glyph glyph-name="Ntilde" horiz-adv-x="814" unicode="Ñ" d="M493 761q-25 0 -49.5 6t-47 13.5t-42 13.5t-34.5 6l-56 -39l-41 31q17 48 43.5 69.5t59.5 21.5q21 0 43.5 -6t45 -12.5t44 -12.5t39.5 -6l55 40l40 -31q-15 -45 -40 -69.5t-60 -24.5zM570 207v385h-68v95h268v-95h-66v-592h-140q-67 104 -134.5 206.5t-133.5 207.5 q-13 21 -25.5 42t-26.5 42q-1 0 -1 -0.5t-1 -0.5v-403h68v-94h-270v94h69q0 125 0.5 248.5t0.5 249.5h-69v95h222q36 -59 67 -106.5t59.5 -92.5l57 -90t60.5 -98q15 -23 29.5 -46t28.5 -47h5z"/>
<glyph glyph-name="Ograve" horiz-adv-x="740" unicode="Ò" d="M208 875l70 77l148 -169l-46 -47zM538 342q0 48 -6.5 94t-25 81.5t-50.5 57.5t-83 22t-84.5 -21.5t-53 -57t-27 -81.5t-7.5 -96q0 -119 39.5 -183.5t132.5 -64.5q44 0 75 19t51 52t29.5 78.5t9.5 99.5zM690 344q0 -76 -20 -140.5t-60 -112t-99 -74.5t-138 -27 q-84 0 -145 25.5t-100.5 72t-58.5 111t-19 143.5q0 74 18.5 139t57.5 114t100 77t147 28t146.5 -28.5t98.5 -77t55 -113t17 -137.5z"/>
<glyph glyph-name="Oacute" horiz-adv-x="740" unicode="Ó" d="M372 736l-47 48l148 169l73 -78zM538 342q0 48 -6.5 94t-25 81.5t-50.5 57.5t-83 22t-84.5 -21.5t-53 -57t-27 -81.5t-7.5 -96q0 -119 39.5 -183.5t132.5 -64.5q44 0 75 19t51 52t29.5 78.5t9.5 99.5zM690 344q0 -76 -20 -140.5t-60 -112t-99 -74.5t-138 -27 q-84 0 -145 25.5t-100.5 72t-58.5 111t-19 143.5q0 74 18.5 139t57.5 114t100 77t147 28t146.5 -28.5t98.5 -77t55 -113t17 -137.5z"/>
<glyph glyph-name="Ocircumflex" horiz-adv-x="740" unicode="Ô" d="M536 737l-164 99l-163 -100l-33 40l153 147h87l156 -145zM538 342q0 48 -6.5 94t-25 81.5t-50.5 57.5t-83 22t-84.5 -21.5t-53 -57t-27 -81.5t-7.5 -96q0 -119 39.5 -183.5t132.5 -64.5q44 0 75 19t51 52t29.5 78.5t9.5 99.5zM690 344q0 -76 -20 -140.5t-60 -112 t-99 -74.5t-138 -27q-84 0 -145 25.5t-100.5 72t-58.5 111t-19 143.5q0 74 18.5 139t57.5 114t100 77t147 28t146.5 -28.5t98.5 -77t55 -113t17 -137.5z"/>
<glyph glyph-name="Otilde" horiz-adv-x="740" unicode="Õ" d="M464 763q-25 0 -49.5 6t-47 13.5t-42 13.5t-34.5 6l-56 -39l-41 31q17 48 43.5 69.5t59.5 21.5q21 0 43.5 -6t45 -12.5t44 -12.5t39.5 -6l55 40l40 -31q-15 -45 -40 -69.5t-60 -24.5zM538 342q0 48 -6.5 94t-25 81.5t-50.5 57.5t-83 22t-84.5 -21.5t-53 -57t-27 -81.5 t-7.5 -96q0 -119 39.5 -183.5t132.5 -64.5q44 0 75 19t51 52t29.5 78.5t9.5 99.5zM690 344q0 -76 -20 -140.5t-60 -112t-99 -74.5t-138 -27q-84 0 -145 25.5t-100.5 72t-58.5 111t-19 143.5q0 74 18.5 139t57.5 114t100 77t147 28t146.5 -28.5t98.5 -77t55 -113t17 -137.5z "/>
<glyph glyph-name="Odieresis" horiz-adv-x="740" unicode="Ö" d="M326 785q0 -25 -17 -41.5t-42 -16.5t-41.5 16.5t-16.5 41.5q0 24 17 41t40 17q26 0 43 -16.5t17 -41.5zM526 785q0 -25 -17 -41.5t-43 -16.5q-24 0 -40.5 16.5t-16.5 41.5q0 24 16.5 41t40.5 17q26 0 43 -16.5t17 -41.5zM538 342q0 48 -6.5 94t-25 81.5t-50.5 57.5 t-83 22t-84.5 -21.5t-53 -57t-27 -81.5t-7.5 -96q0 -119 39.5 -183.5t132.5 -64.5q44 0 75 19t51 52t29.5 78.5t9.5 99.5zM690 344q0 -76 -20 -140.5t-60 -112t-99 -74.5t-138 -27q-84 0 -145 25.5t-100.5 72t-58.5 111t-19 143.5q0 74 18.5 139t57.5 114t100 77t147 28 t146.5 -28.5t98.5 -77t55 -113t17 -137.5z"/>
<glyph glyph-name="multiply" d="M304 237l-128 -128l-60 60l128 128l-127 127l59 59l126 -128l124 126l61 -61l-124 -125l126 -125l-59 -60z" unicode="×"/>
<glyph glyph-name="Oslash" horiz-adv-x="740" unicode="Ø" d="M201 341q0 -88 22 -139l269 339q-20 26 -48.5 42t-70.5 16q-51 0 -84.5 -21.5t-53 -57.5t-27 -82.5t-7.5 -96.5zM538 342q0 38 -5.5 77.5t-19.5 71.5l-270 -340q22 -29 53.5 -44t76.5 -15q44 0 75 19t51 52.5t29.5 79t9.5 99.5zM690 344q0 -76 -20 -140.5t-60 -112 t-99 -74.5t-138 -27q-69 0 -121.5 16.5t-90.5 48.5l-52 -63h-61l78 96q-39 47 -57.5 111t-18.5 143q0 74 18.5 139t57.5 114t100 77t147 28q66 0 115 -16t87 -47l51 65h67l-82 -98q42 -50 60.5 -117.5t18.5 -142.5z"/>
<glyph glyph-name="Ugrave" horiz-adv-x="757" unicode="Ù" d="M212 875l70 77l148 -169l-46 -47zM664 253q0 -122 -69 -192t-217 -70q-77 0 -131.5 18t-89 51.5t-50.5 82t-16 110.5v339h-58v96h263v-96h-65v-342q0 -80 38 -117.5t110 -37.5q67 0 106.5 36.5t39.5 118.5v342h-63v96h262v-96h-60v-339z"/>
<glyph glyph-name="Uacute" horiz-adv-x="757" unicode="Ú" d="M383 736l-47 48l148 169l73 -78zM664 253q0 -122 -69 -192t-217 -70q-77 0 -131.5 18t-89 51.5t-50.5 82t-16 110.5v339h-58v96h263v-96h-65v-342q0 -80 38 -117.5t110 -37.5q67 0 106.5 36.5t39.5 118.5v342h-63v96h262v-96h-60v-339z"/>
<glyph glyph-name="Ucircumflex" horiz-adv-x="757" unicode="Û" d="M550 737l-170 97l-169 -98l-34 40l158 144h91l162 -142zM664 253q0 -122 -69 -192t-217 -70q-77 0 -131.5 18t-89 51.5t-50.5 82t-16 110.5v339h-58v96h263v-96h-65v-342q0 -80 38 -117.5t110 -37.5q67 0 106.5 36.5t39.5 118.5v342h-63v96h262v-96h-60v-339z"/>
<glyph glyph-name="Udieresis" horiz-adv-x="757" unicode="Ü" d="M335 785q0 -25 -17 -41.5t-42 -16.5t-41.5 16.5t-16.5 41.5q0 24 17 41t40 17q26 0 43 -16.5t17 -41.5zM535 785q0 -25 -17 -41.5t-43 -16.5q-24 0 -40.5 16.5t-16.5 41.5q0 24 16.5 41t40.5 17q26 0 43 -16.5t17 -41.5zM664 253q0 -122 -69 -192t-217 -70 q-77 0 -131.5 18t-89 51.5t-50.5 82t-16 110.5v339h-58v96h263v-96h-65v-342q0 -80 38 -117.5t110 -37.5q67 0 106.5 36.5t39.5 118.5v342h-63v96h262v-96h-60v-339z"/>
<glyph glyph-name="Yacute" horiz-adv-x="666" unicode="Ý" d="M339 735l-47 48l148 169l73 -78zM457 591h-58v97h255v-97h-55l-193 -319v-177h78v-95h-307v95h78v175l-189 321h-53v97h257v-97h-57l119 -221h4z"/>
<glyph glyph-name="Thorn" horiz-adv-x="633" unicode="Þ" d="M254 460v-218h95q23 0 43 6t35 19t23.5 34t8.5 50q0 57 -31.5 83t-82.5 26h-91zM254 540h117q118 0 177.5 -48.5t59.5 -138.5q0 -35 -12.5 -69.5t-39.5 -62t-68.5 -44t-97.5 -16.5h-7h-129v-74h75v-87h-288v87h70v509h-70v92h288v-92h-75v-56z"/>
<glyph glyph-name="germandbls" horiz-adv-x="663" unicode="ß" d="M496 128q0 21 -7.5 37t-20 30.5t-28 27t-30.5 26.5q-19 17 -38 35t-34 37t-24.5 40t-9.5 44q0 30 15.5 52.5t33.5 41t33.5 36t15.5 38.5q0 7 -2.5 18t-11 21t-24 17t-41.5 7t-43 -8t-27.5 -22t-15 -32t-4.5 -39v-535h-209v91h71v286h-67v77h67v73q0 20 6 55t28.5 68.5 t67.5 58t123 24.5q62 0 102.5 -15t64 -36.5t32.5 -46.5t9 -44q0 -37 -16.5 -64t-36 -47.5t-35.5 -37t-16 -33.5q0 -18 15.5 -34.5t38 -34t49.5 -37.5t49.5 -44t38 -53.5t15.5 -66.5q0 -32 -12 -59.5t-36 -48t-60.5 -32.5t-85.5 -12q-39 0 -78 6.5t-71 16.5v137h82v-63 q20 -6 36 -8t27 -2q26 0 45 14t19 40z"/>
<glyph glyph-name="agrave" horiz-adv-x="565" unicode="à" d="M142 672l72 77l148 -169l-46 -48zM472 93h75l7 -75q-36 -16 -71 -21t-59 -5q-32 0 -53.5 11.5t-22.5 51.5q-1 0 -1 0.5t-1 0.5q-25 -24 -50 -37.5t-46.5 -19.5t-39.5 -7.5t-28 -1.5q-45 0 -74.5 14t-46 35.5t-23 46.5t-6.5 46q0 28 11 53.5t32.5 45t54 32t74.5 15.5 l137 9v24q0 43 -18.5 65.5t-71.5 22.5q-36 0 -76.5 -7t-73.5 -18q-6 21 -12 42.5t-11 43.5q43 19 99 29t108 10q43 0 78 -8.5t59 -28.5t37 -52.5t13 -79.5v-237zM247 213q-36 -4 -53.5 -22t-17.5 -43q0 -35 16 -51.5t53 -16.5q23 0 48.5 11.5t45.5 30.5v100z"/>
<glyph glyph-name="aacute" horiz-adv-x="565" unicode="á" d="M239 532l-46 48l147 169l73 -77zM472 93h75l7 -75q-36 -16 -71 -21t-59 -5q-32 0 -53.5 11.5t-22.5 51.5q-1 0 -1 0.5t-1 0.5q-25 -24 -50 -37.5t-46.5 -19.5t-39.5 -7.5t-28 -1.5q-45 0 -74.5 14t-46 35.5t-23 46.5t-6.5 46q0 28 11 53.5t32.5 45t54 32t74.5 15.5l137 9 v24q0 43 -18.5 65.5t-71.5 22.5q-36 0 -76.5 -7t-73.5 -18q-6 21 -12 42.5t-11 43.5q43 19 99 29t108 10q43 0 78 -8.5t59 -28.5t37 -52.5t13 -79.5v-237zM247 213q-36 -4 -53.5 -22t-17.5 -43q0 -35 16 -51.5t53 -16.5q23 0 48.5 11.5t45.5 30.5v100z"/>
<glyph glyph-name="acircumflex" horiz-adv-x="565" unicode="â" d="M442 530l-165 100l-163 -100l-34 40l154 150h87l156 -149zM472 93h75l7 -75q-36 -16 -71 -21t-59 -5q-32 0 -53.5 11.5t-22.5 51.5q-1 0 -1 0.5t-1 0.5q-25 -24 -50 -37.5t-46.5 -19.5t-39.5 -7.5t-28 -1.5q-45 0 -74.5 14t-46 35.5t-23 46.5t-6.5 46q0 28 11 53.5 t32.5 45t54 32t74.5 15.5l137 9v24q0 43 -18.5 65.5t-71.5 22.5q-36 0 -76.5 -7t-73.5 -18q-6 21 -12 42.5t-11 43.5q43 19 99 29t108 10q43 0 78 -8.5t59 -28.5t37 -52.5t13 -79.5v-237zM247 213q-36 -4 -53.5 -22t-17.5 -43q0 -35 16 -51.5t53 -16.5q23 0 48.5 11.5 t45.5 30.5v100z"/>
<glyph glyph-name="atilde" horiz-adv-x="565" unicode="ã" d="M366 567q-25 0 -49.5 6t-47 13.5t-42 13.5t-34.5 6l-56 -39l-41 31q17 48 43.5 69.5t59.5 21.5q21 0 43.5 -6t45 -12.5t44 -12.5t39.5 -6l55 40l40 -31q-15 -45 -40 -69.5t-60 -24.5zM472 93h75l7 -75q-36 -16 -71 -21t-59 -5q-32 0 -53.5 11.5t-22.5 51.5q-1 0 -1 0.5 t-1 0.5q-25 -24 -50 -37.5t-46.5 -19.5t-39.5 -7.5t-28 -1.5q-45 0 -74.5 14t-46 35.5t-23 46.5t-6.5 46q0 28 11 53.5t32.5 45t54 32t74.5 15.5l137 9v24q0 43 -18.5 65.5t-71.5 22.5q-36 0 -76.5 -7t-73.5 -18q-6 21 -12 42.5t-11 43.5q43 19 99 29t108 10q43 0 78 -8.5 t59 -28.5t37 -52.5t13 -79.5v-237zM247 213q-36 -4 -53.5 -22t-17.5 -43q0 -35 16 -51.5t53 -16.5q23 0 48.5 11.5t45.5 30.5v100z"/>
<glyph glyph-name="adieresis" horiz-adv-x="565" unicode="ä" d="M218 607q0 -24 -16.5 -40.5t-42.5 -16.5q-25 0 -41.5 16.5t-16.5 40.5q0 25 17 41.5t40 16.5q26 0 43 -16t17 -42zM419 607q0 -24 -17.5 -40.5t-43.5 -16.5q-24 0 -40.5 16.5t-16.5 40.5q0 25 17 41.5t40 16.5q26 0 43.5 -16t17.5 -42zM472 93h75l7 -75q-36 -16 -71 -21 t-59 -5q-32 0 -53.5 11.5t-22.5 51.5q-1 0 -1 0.5t-1 0.5q-25 -24 -50 -37.5t-46.5 -19.5t-39.5 -7.5t-28 -1.5q-45 0 -74.5 14t-46 35.5t-23 46.5t-6.5 46q0 28 11 53.5t32.5 45t54 32t74.5 15.5l137 9v24q0 43 -18.5 65.5t-71.5 22.5q-36 0 -76.5 -7t-73.5 -18 q-6 21 -12 42.5t-11 43.5q43 19 99 29t108 10q43 0 78 -8.5t59 -28.5t37 -52.5t13 -79.5v-237zM247 213q-36 -4 -53.5 -22t-17.5 -43q0 -35 16 -51.5t53 -16.5q23 0 48.5 11.5t45.5 30.5v100z"/>
<glyph glyph-name="aring" horiz-adv-x="565" unicode="å" d="M282 722q-24 0 -40.5 -17t-16.5 -40q0 -21 15.5 -37.5t41.5 -16.5q23 0 38 16.5t15 37.5q0 23 -14.5 40t-38.5 17zM282 548q-26 0 -49 9.5t-39.5 26t-26 38t-9.5 46.5q0 24 9.5 45.5t26 38t39.5 26t49 9.5t48 -9.5t38 -26t25 -38t9 -45.5q0 -26 -9.5 -47.5t-25.5 -38 t-38 -25.5t-47 -9zM472 93h75l7 -75q-36 -16 -71 -21t-59 -5q-32 0 -53.5 11.5t-22.5 51.5q-1 0 -1 0.5t-1 0.5q-25 -24 -50 -37.5t-46.5 -19.5t-39.5 -7.5t-28 -1.5q-45 0 -74.5 14t-46 35.5t-23 46.5t-6.5 46q0 28 11 53.5t32.5 45t54 32t74.5 15.5l137 9v24 q0 43 -18.5 65.5t-71.5 22.5q-36 0 -76.5 -7t-73.5 -18q-6 21 -12 42.5t-11 43.5q43 19 99 29t108 10q43 0 78 -8.5t59 -28.5t37 -52.5t13 -79.5v-237zM247 213q-36 -4 -53.5 -22t-17.5 -43q0 -35 16 -51.5t53 -16.5q23 0 48.5 11.5t45.5 30.5v100z"/>
<glyph glyph-name="ae" horiz-adv-x="831" unicode="æ" d="M589 406q-26 0 -44 -10t-29.5 -27t-17 -39.5t-6.5 -46.5h184q0 55 -18.5 89t-68.5 34zM248 78q10 0 25 3t32 9t33.5 15t29.5 21q-15 43 -16 96h-89q-44 0 -66.5 -19t-22.5 -52q0 -73 74 -73zM588 502q71 0 113 -25t64 -61.5t28.5 -78t6.5 -74.5v-39h-311 q0 -61 26.5 -96.5t95.5 -35.5q38 0 75 8t75 22l26 -83q-47 -26 -98 -36.5t-100 -10.5q-74 0 -117.5 18.5t-69.5 55.5q-32 -27 -62.5 -42t-58 -23t-50.5 -10t-41 -2q-49 0 -80 14.5t-49 36t-24.5 46.5t-6.5 46q0 26 8.5 53t29.5 48.5t55 35.5t85 14h146v29q0 49 -24 68.5 t-77 19.5q-43 0 -84 -7t-74 -18l-23 86q43 19 100 29.5t109 10.5q22 0 45 -3.5t43 -12t36.5 -21.5t25.5 -31q25 32 63.5 50.5t93.5 18.5z"/>
<glyph glyph-name="ccedilla" horiz-adv-x="494" unicode="ç" d="M287 501q41 0 81 -6t74 -19v-148h-94v66q-28 5 -47 5q-63 0 -92 -40t-29 -115q0 -83 32.5 -117.5t89.5 -34.5q35 0 70 7t66 18l26 -88q-31 -16 -75.5 -26t-91.5 -12q-9 -12 -18.5 -24t-18.5 -25q50 -3 79 -24.5t29 -61.5q0 -21 -11.5 -40.5t-34.5 -34.5t-59.5 -24 t-85.5 -9q0 12 -0.5 24t-0.5 24q54 5 84 18.5t30 36.5q0 12 -8 19t-21.5 11t-30 5t-34.5 1q-5 7 -8 12.5t-8 11.5l62 82q-60 5 -99 26.5t-62 54.5t-32 75.5t-9 90.5q0 43 10 89t37 84t75 63t125 25z"/>
<glyph glyph-name="egrave" horiz-adv-x="532" unicode="è" d="M127 672l72 77l148 -169l-46 -48zM279 502q71 0 113.5 -23.5t65 -59t29.5 -77.5t7 -79v-50h-314q-1 -62 26 -92t96 -30q39 0 76 8t75 23l30 -84q-48 -26 -100.5 -37t-102.5 -11q-73 0 -119.5 21.5t-73.5 57t-37 81t-10 94.5q0 40 10.5 85.5t37.5 84t73.5 63.5t117.5 25z M279 405q-25 0 -42.5 -9.5t-29.5 -24.5t-18 -34t-7 -39h184q0 21 -4.5 40.5t-14 34t-26.5 23.5t-42 9z"/>
<glyph glyph-name="eacute" horiz-adv-x="532" unicode="é" d="M243 532l-46 48l147 169l73 -77zM279 502q71 0 113.5 -23.5t65 -59t29.5 -77.5t7 -79v-50h-314q-1 -62 26 -92t96 -30q39 0 76 8t75 23l30 -84q-48 -26 -100.5 -37t-102.5 -11q-73 0 -119.5 21.5t-73.5 57t-37 81t-10 94.5q0 40 10.5 85.5t37.5 84t73.5 63.5t117.5 25z M279 405q-25 0 -42.5 -9.5t-29.5 -24.5t-18 -34t-7 -39h184q0 21 -4.5 40.5t-14 34t-26.5 23.5t-42 9z"/>
<glyph glyph-name="ecircumflex" horiz-adv-x="532" unicode="ê" d="M445 530l-165 100l-163 -100l-34 40l154 150h87l156 -149zM279 502q71 0 113.5 -23.5t65 -59t29.5 -77.5t7 -79v-50h-314q-1 -62 26 -92t96 -30q39 0 76 8t75 23l30 -84q-48 -26 -100.5 -37t-102.5 -11q-73 0 -119.5 21.5t-73.5 57t-37 81t-10 94.5q0 40 10.5 85.5 t37.5 84t73.5 63.5t117.5 25zM279 405q-25 0 -42.5 -9.5t-29.5 -24.5t-18 -34t-7 -39h184q0 21 -4.5 40.5t-14 34t-26.5 23.5t-42 9z"/>
<glyph glyph-name="edieresis" horiz-adv-x="532" unicode="ë" d="M246 607q0 -24 -16.5 -40.5t-42.5 -16.5q-25 0 -41.5 16.5t-16.5 40.5q0 25 17 41.5t40 16.5q26 0 43 -16t17 -42zM447 607q0 -24 -17.5 -40.5t-43.5 -16.5q-24 0 -40.5 16.5t-16.5 40.5q0 25 17 41.5t40 16.5q26 0 43.5 -16t17.5 -42zM279 502q71 0 113.5 -23.5t65 -59 t29.5 -77.5t7 -79v-50h-314q-1 -62 26 -92t96 -30q39 0 76 8t75 23l30 -84q-48 -26 -100.5 -37t-102.5 -11q-73 0 -119.5 21.5t-73.5 57t-37 81t-10 94.5q0 40 10.5 85.5t37.5 84t73.5 63.5t117.5 25zM279 405q-25 0 -42.5 -9.5t-29.5 -24.5t-18 -34t-7 -39h184 q0 21 -4.5 40.5t-14 34t-26.5 23.5t-42 9z"/>
<glyph glyph-name="igrave" horiz-adv-x="345" unicode="ì" d="M13 672l72 77l148 -169l-46 -48zM47 401v90h192v-395h71v-83q-24 -11 -56 -16.5t-55 -5.5q-54 0 -75.5 22t-22.5 70v318h-54z"/>
<glyph glyph-name="iacute" horiz-adv-x="345" unicode="í" d="M128 532l-46 48l147 169l73 -77zM47 401v90h192v-395h71v-83q-24 -11 -56 -16.5t-55 -5.5q-54 0 -75.5 22t-22.5 70v318h-54z"/>
<glyph glyph-name="icircumflex" horiz-adv-x="345" unicode="î" d="M331 530l-165 100l-163 -100l-34 40l154 150h87l156 -149zM47 401v90h192v-395h71v-83q-24 -11 -56 -16.5t-55 -5.5q-54 0 -75.5 22t-22.5 70v318h-54z"/>
<glyph glyph-name="idieresis" horiz-adv-x="345" unicode="ï" d="M120 607q0 -24 -16.5 -40.5t-42.5 -16.5q-25 0 -41.5 16.5t-16.5 40.5q0 25 17 41.5t40 16.5q26 0 43 -16t17 -42zM321 607q0 -24 -17.5 -40.5t-43.5 -16.5q-24 0 -40.5 16.5t-16.5 40.5q0 25 17 41.5t40 16.5q26 0 43.5 -16t17.5 -42zM47 401v90h192v-395h71v-83 q-24 -11 -56 -16.5t-55 -5.5q-54 0 -75.5 22t-22.5 70v318h-54z"/>
<glyph glyph-name="eth" horiz-adv-x="577" unicode="ð" d="M289 367q-30 0 -51 -12.5t-33.5 -32.5t-18 -45t-5.5 -50q0 -23 3.5 -47.5t14.5 -45t32 -33.5t56 -13q34 0 55.5 16.5t33.5 41.5t16.5 54.5t4.5 55.5q0 21 -1.5 39.5t-5.5 41.5q-28 17 -54 23.5t-47 6.5zM445 716l29 -40l-75 -50q73 -69 105 -153.5t32 -176.5 q0 -16 -1 -33q-2 -44 -13.5 -92t-40 -88t-77.5 -66t-124 -26q-71 0 -117 21t-73 54.5t-38 74.5t-11 81q0 47 15.5 90t45 76t72 53t96.5 20q24 0 53 -5t57 -20q-23 75 -71 130l-88 -59l-28 40l81 54q-21 20 -44 37t-48 33l37 70q81 -35 139 -83z"/>
<glyph glyph-name="ntilde" horiz-adv-x="645" unicode="ñ" d="M382 576q-25 0 -49.5 6t-47 13.5t-42 13.5t-34.5 6l-56 -39l-41 31q17 48 43.5 69.5t59.5 21.5q21 0 43.5 -6t45 -12.5t44 -12.5t39.5 -6l55 40l40 -31q-15 -45 -40 -69.5t-60 -24.5zM393 502q51 0 82 -16t47.5 -41t22 -55t5.5 -57v-238h70v-82q-25 -11 -56 -16t-55 -5 q-38 0 -58 14t-29 32t-10 35t-1 24v209q0 47 -15 67t-57 20q-26 0 -56.5 -11.5t-53.5 -27.5v-354h-140v398h-66v92h204v-43q2 0 2.5 -0.5t2.5 -0.5q41 27 82 41.5t79 14.5z"/>
<glyph glyph-name="ograve" horiz-adv-x="574" unicode="ò" d="M131 672l72 77l148 -169l-46 -48zM391 244q0 28 -4 56.5t-15 50.5t-30.5 36t-50.5 14q-32 0 -53 -13.5t-33 -35.5t-17 -50.5t-5 -57.5q0 -32 4 -60t15.5 -49t32 -33.5t53.5 -12.5q31 0 51.5 13t31.5 35t15.5 49.5t4.5 57.5zM534 245q0 -51 -14 -97t-44 -81t-77.5 -55.5 t-115.5 -20.5q-65 0 -111.5 20t-75.5 54t-42.5 80t-13.5 99q0 52 14.5 98.5t45 81.5t77.5 56t112 21q66 0 113 -20.5t76 -56t42.5 -82t13.5 -97.5z"/>
<glyph glyph-name="oacute" horiz-adv-x="574" unicode="ó" d="M258 532l-46 48l147 169l73 -77zM391 244q0 28 -4 56.5t-15 50.5t-30.5 36t-50.5 14q-32 0 -53 -13.5t-33 -35.5t-17 -50.5t-5 -57.5q0 -32 4 -60t15.5 -49t32 -33.5t53.5 -12.5q31 0 51.5 13t31.5 35t15.5 49.5t4.5 57.5zM534 245q0 -51 -14 -97t-44 -81t-77.5 -55.5 t-115.5 -20.5q-65 0 -111.5 20t-75.5 54t-42.5 80t-13.5 99q0 52 14.5 98.5t45 81.5t77.5 56t112 21q66 0 113 -20.5t76 -56t42.5 -82t13.5 -97.5z"/>
<glyph glyph-name="ocircumflex" horiz-adv-x="574" unicode="ô" d="M453 530l-165 100l-163 -100l-34 40l154 150h87l156 -149zM391 244q0 28 -4 56.5t-15 50.5t-30.5 36t-50.5 14q-32 0 -53 -13.5t-33 -35.5t-17 -50.5t-5 -57.5q0 -32 4 -60t15.5 -49t32 -33.5t53.5 -12.5q31 0 51.5 13t31.5 35t15.5 49.5t4.5 57.5zM534 245 q0 -51 -14 -97t-44 -81t-77.5 -55.5t-115.5 -20.5q-65 0 -111.5 20t-75.5 54t-42.5 80t-13.5 99q0 52 14.5 98.5t45 81.5t77.5 56t112 21q66 0 113 -20.5t76 -56t42.5 -82t13.5 -97.5z"/>
<glyph glyph-name="otilde" horiz-adv-x="574" unicode="õ" d="M379 563q-25 0 -49.5 6t-47 13.5t-42 13.5t-34.5 6l-56 -39l-41 31q17 48 43.5 69.5t59.5 21.5q21 0 43.5 -6t45 -12.5t44 -12.5t39.5 -6l55 40l40 -31q-15 -45 -40 -69.5t-60 -24.5zM391 244q0 28 -4 56.5t-15 50.5t-30.5 36t-50.5 14q-32 0 -53 -13.5t-33 -35.5 t-17 -50.5t-5 -57.5q0 -32 4 -60t15.5 -49t32 -33.5t53.5 -12.5q31 0 51.5 13t31.5 35t15.5 49.5t4.5 57.5zM534 245q0 -51 -14 -97t-44 -81t-77.5 -55.5t-115.5 -20.5q-65 0 -111.5 20t-75.5 54t-42.5 80t-13.5 99q0 52 14.5 98.5t45 81.5t77.5 56t112 21q66 0 113 -20.5 t76 -56t42.5 -82t13.5 -97.5z"/>
<glyph glyph-name="odieresis" horiz-adv-x="574" unicode="ö" d="M248 607q0 -24 -16.5 -40.5t-42.5 -16.5q-25 0 -41.5 16.5t-16.5 40.5q0 25 17 41.5t40 16.5q26 0 43 -16t17 -42zM449 607q0 -24 -17.5 -40.5t-43.5 -16.5q-24 0 -40.5 16.5t-16.5 40.5q0 25 17 41.5t40 16.5q26 0 43.5 -16t17.5 -42zM391 244q0 28 -4 56.5t-15 50.5 t-30.5 36t-50.5 14q-32 0 -53 -13.5t-33 -35.5t-17 -50.5t-5 -57.5q0 -32 4 -60t15.5 -49t32 -33.5t53.5 -12.5q31 0 51.5 13t31.5 35t15.5 49.5t4.5 57.5zM534 245q0 -51 -14 -97t-44 -81t-77.5 -55.5t-115.5 -20.5q-65 0 -111.5 20t-75.5 54t-42.5 80t-13.5 99 q0 52 14.5 98.5t45 81.5t77.5 56t112 21q66 0 113 -20.5t76 -56t42.5 -82t13.5 -97.5z"/>
<glyph glyph-name="divide" d="M364 131q0 -27 -19.5 -46.5t-45.5 -19.5q-27 0 -46.5 20t-19.5 46q0 28 19 46.5t47 18.5q27 0 46 -18.5t19 -46.5zM90 261v83h417v-83h-417zM364 474q0 -27 -19.5 -46.5t-45.5 -19.5q-27 0 -46.5 20t-19.5 46q0 27 19 46t47 19q27 0 46 -19t19 -46z" unicode="÷"/>
<glyph glyph-name="oslash" horiz-adv-x="574" unicode="ø" d="M288 402q-30 0 -50 -12.5t-32.5 -33.5t-18 -47.5t-5.5 -54.5q0 -24 2.5 -47t10.5 -43l164 205q-11 15 -28 24t-43 9zM389 243q0 20 -2.5 42.5t-10.5 40.5q-42 -52 -83 -103.5t-83 -103.5q13 -14 31.5 -23t46.5 -9q31 0 51 13t31 35t15 50t4 58zM288 500q49 0 86.5 -12 t66.5 -33q10 11 19.5 22t18.5 23h56l-62 -71q32 -36 46 -83.5t14 -101.5q0 -51 -13.5 -97t-43.5 -80.5t-78 -54.5t-116 -20q-96 0 -154 41q-8 -10 -17 -20t-18 -19q-14 0 -28.5 -0.5t-28.5 -0.5l60 68q-30 35 -43 81.5t-13 100.5q0 52 14.5 98.5t44.5 81.5t77 56t112 21z "/>
<glyph glyph-name="ugrave" horiz-adv-x="635" unicode="ù" d="M154 672l72 77l148 -169l-46 -48zM242 -11q-44 0 -73 12t-46.5 33.5t-25 50.5t-7.5 63v249h-66v93h206v-313q0 -38 11.5 -58t52.5 -20q20 0 50.5 10.5t57.5 36.5v251h-57v93h197v-395h66v-82q-35 -12 -63.5 -16.5t-47.5 -4.5q-45 0 -64.5 15.5t-24.5 50.5 q-42 -38 -85 -53.5t-81 -15.5z"/>
<glyph glyph-name="uacute" horiz-adv-x="635" unicode="ú" d="M269 532l-46 48l147 169l73 -77zM242 -11q-44 0 -73 12t-46.5 33.5t-25 50.5t-7.5 63v249h-66v93h206v-313q0 -38 11.5 -58t52.5 -20q20 0 50.5 10.5t57.5 36.5v251h-57v93h197v-395h66v-82q-35 -12 -63.5 -16.5t-47.5 -4.5q-45 0 -64.5 15.5t-24.5 50.5 q-42 -38 -85 -53.5t-81 -15.5z"/>
<glyph glyph-name="ucircumflex" horiz-adv-x="635" unicode="û" d="M473 530l-165 100l-163 -100l-34 40l154 150h87l156 -149zM242 -11q-44 0 -73 12t-46.5 33.5t-25 50.5t-7.5 63v249h-66v93h206v-313q0 -38 11.5 -58t52.5 -20q20 0 50.5 10.5t57.5 36.5v251h-57v93h197v-395h66v-82q-35 -12 -63.5 -16.5t-47.5 -4.5q-45 0 -64.5 15.5 t-24.5 50.5q-42 -38 -85 -53.5t-81 -15.5z"/>
<glyph glyph-name="udieresis" horiz-adv-x="635" unicode="ü" d="M263 607q0 -24 -16.5 -40.5t-42.5 -16.5q-25 0 -41.5 16.5t-16.5 40.5q0 25 17 41.5t40 16.5q26 0 43 -16t17 -42zM464 607q0 -24 -17.5 -40.5t-43.5 -16.5q-24 0 -40.5 16.5t-16.5 40.5q0 25 17 41.5t40 16.5q26 0 43.5 -16t17.5 -42zM242 -11q-44 0 -73 12t-46.5 33.5 t-25 50.5t-7.5 63v249h-66v93h206v-313q0 -38 11.5 -58t52.5 -20q20 0 50.5 10.5t57.5 36.5v251h-57v93h197v-395h66v-82q-35 -12 -63.5 -16.5t-47.5 -4.5q-45 0 -64.5 15.5t-24.5 50.5q-42 -38 -85 -53.5t-81 -15.5z"/>
<glyph glyph-name="yacute" d="M288 532l-46 48l147 169l73 -77zM299 101q4 15 17.5 56t28.5 88.5t29 90.5t20 61h-54v93h234v-93h-47l-181 -508q-18 -51 -50 -77.5t-98 -26.5q-3 0 -15 0.5t-30 2t-40 5.5t-45 12l19 100q21 -4 39.5 -6.5t35.5 -2.5q33 0 47 9.5t22 28.5l30 77h-63q-32 95 -61.5 189.5 t-61.5 190.5h-54v99h155q5 -16 15 -47.5t22 -71t25 -82t24.5 -80t20 -67t12.5 -41.5h4z" unicode="ý"/>
<glyph glyph-name="thorn" horiz-adv-x="607" unicode="þ" d="M224 117q17 -11 45.5 -19.5t54.5 -8.5q19 0 37.5 7t33 26t23.5 50.5t9 81.5q0 44 -8 72t-21.5 44t-31.5 22t-39 6q-12 0 -26 -3t-28.5 -8.5t-27 -12.5t-21.5 -14v-243zM15 -120h69v717h-70v90h206v-238q1 0 1 -0.5t1 -0.5q32 24 72.5 36.5t72.5 12.5q57 0 95 -19 t61.5 -52t33 -77.5t9.5 -94.5q0 -57 -11 -105.5t-36 -84t-65 -55t-98 -19.5q-12 0 -29 2t-35 5.5t-35.5 9t-32.5 13.5v-140h72v-89h-281v89z"/>
<glyph glyph-name="OE" horiz-adv-x="894" unicode="Œ" d="M367 90h11t11 1v506q-5 0 -10.5 0.5t-14.5 0.5q-51 -1 -83.5 -22.5t-51.5 -57.5t-26.5 -82.5t-7.5 -95.5q0 -119 39.5 -184.5t132.5 -65.5zM367 700q29 0 56 -4t50 -10h377v-198h-100v104h-217v-192l201 5v-97l-201 3v-217h228v109h103v-203h-411q-20 -4 -41.5 -6 t-44.5 -2q-84 0 -145 25t-100.5 70.5t-58.5 110t-19 143.5q0 73 18.5 138.5t57.5 114.5t100 77.5t147 28.5z"/>
<glyph glyph-name="oe" horiz-adv-x="880" unicode="œ" d="M722 285q-1 56 -19.5 90t-69.5 34q-26 0 -44 -10t-29.5 -27t-17.5 -39.5t-7 -47.5h187zM388 244q0 29 -4 57.5t-15 51t-31 36.5t-52 14t-52.5 -14t-32.5 -36.5t-16.5 -51t-4.5 -57.5q0 -32 4 -60t16 -49.5t32.5 -34t53.5 -12.5q31 0 51 13.5t31.5 35t15.5 49.5t4 58z M835 42q-48 -26 -99.5 -37t-101.5 -11q-66 0 -107.5 19t-67.5 54q-29 -34 -72 -55t-106 -21q-66 0 -112 20t-75.5 54t-43 80t-13.5 99q0 52 14.5 98.5t45 81.5t77.5 56t112 21q62 0 103.5 -21.5t67.5 -56.5q26 35 67.5 58t107.5 23q71 0 114 -25t65.5 -61.5t29.5 -77.5 t7 -74v-36h-315q0 -60 27 -98t96 -38q38 0 75 8t75 23z"/>
<glyph glyph-name="Scaron" horiz-adv-x="614" unicode="Š" d="M496 886l-156 -145h-86l-154 146l33 39l164 -100l164 101zM142 199q0 -20 0.5 -38t0.5 -38q34 -15 71 -20.5t66 -5.5q39 0 65 8t41.5 21t22.5 30t7 34q0 24 -11 40.5t-30.5 28t-46 20t-58.5 16.5q-49 12 -90 27.5t-71 38t-47 53.5t-17 75q0 50 19 88.5t53.5 65t82.5 40.5 t105 14q50 0 109.5 -9.5t107.5 -34.5q0 -39 0.5 -77.5t0.5 -77.5h-102q0 20 -0.5 39t-0.5 39q-22 9 -54 13t-56 4q-60 0 -88 -25t-28 -64q0 -21 10 -35.5t28.5 -26t46 -20.5t63.5 -18q43 -12 85 -26t74.5 -36.5t52.5 -57t20 -86.5q0 -53 -20 -92.5t-57 -65t-90 -38 t-118 -12.5q-61 0 -125.5 10.5t-121.5 37.5q0 40 -0.5 80t-0.5 81h101z"/>
<glyph glyph-name="scaron" horiz-adv-x="499" unicode="š" d="M446 693l-156 -149h-87l-154 150l34 40l163 -100l165 100zM128 158l2 -58q17 -8 45 -12.5t50 -4.5q38 0 66 12.5t28 38.5q0 15 -7 25.5t-18.5 18t-26 12.5t-30.5 9q-36 10 -72 21t-64.5 27t-46 40t-17.5 61q0 79 57 116t154 37q45 0 92.5 -9t84.5 -29v-61.5t1 -62.5h-97 l-1 56q-15 6 -34.5 9t-36.5 3q-34 0 -56 -13t-22 -38q0 -12 8 -20.5t20 -14.5t26.5 -10t26.5 -7q30 -8 65.5 -18t66 -28t50.5 -47t20 -77q0 -72 -59.5 -107.5t-168.5 -35.5q-21 0 -46.5 1.5t-52 6t-53 12t-49.5 19.5v64t-1 64h96z"/>
<glyph glyph-name="Ydieresis" horiz-adv-x="666" unicode="Ÿ" d="M293 785q0 -25 -17 -41.5t-42 -16.5t-41.5 16.5t-16.5 41.5q0 24 17 41t40 17q26 0 43 -16.5t17 -41.5zM493 785q0 -25 -17 -41.5t-43 -16.5q-24 0 -40.5 16.5t-16.5 41.5q0 24 16.5 41t40.5 17q26 0 43 -16.5t17 -41.5zM457 591h-58v97h255v-97h-55l-193 -319v-177h78 v-95h-307v95h78v175l-189 321h-53v97h257v-97h-57l119 -221h4z"/>
<glyph glyph-name="circumflex" horiz-adv-x="556" unicode="ˆ" d="M442 530l-165 100l-163 -100l-34 40l154 150h87l156 -149z"/>
<glyph glyph-name="tilde" horiz-adv-x="556" unicode="˜" d="M367 563q-25 0 -49.5 6t-47 13.5t-42 13.5t-34.5 6l-56 -39l-41 31q17 48 43.5 69.5t59.5 21.5q21 0 43.5 -6t45 -12.5t44 -12.5t39.5 -6l55 40l40 -31q-15 -45 -40 -69.5t-60 -24.5z"/>
<glyph glyph-name="Alpha" horiz-adv-x="736" unicode="Α" d="M383 521q-3 13 -7 25.5t-8 26.5h-3l-16 -53q-8 -25 -18 -56t-20.5 -63t-20.5 -63t-18 -56h186zM516 94l-30 96h-245q-6 -19 -15 -46t-15 -50h65v-94h-256v94h55l208 593h177l201 -593h55v-94h-263v94h63z"/>
<glyph glyph-name="Beta" horiz-adv-x="686" unicode="Β" d="M257 592v-193h113q51 0 79 26.5t28 69.5t-25.5 70t-81.5 27h-113zM257 308v-214h126q59 0 85.5 31.5t26.5 75.5q0 43 -27.5 75t-84.5 32h-126zM535 360q32 -11 53 -30.5t33.5 -42t17.5 -47t5 -46.5q0 -44 -16.5 -80t-45.5 -61.5t-69 -39t-87 -13.5h-385v94h72v498h-69v95 h352q115 0 171 -48.5t56 -133.5q0 -14 -3.5 -33t-13 -39.5t-26.5 -39.5t-45 -32v-1z"/>
<glyph glyph-name="Gamma" horiz-adv-x="619" unicode="Γ" d="M43 0v94h70v500h-69v93h559v-198h-101v105h-246v-500h94v-94h-307z"/>
<glyph glyph-name="Epsilon" horiz-adv-x="649" unicode="Ε" d="M43 0v96h69v496h-68v95h560v-202h-101v107h-247v-192l230 6v-99l-230 6v-217h259v112h102v-208h-574z"/>
<glyph glyph-name="Zeta" horiz-adv-x="608" unicode="Ζ" d="M203 96h279v127h103v-223h-560v94l360 498h-234v-111h-102v207h516v-92z"/>
<glyph glyph-name="Eta" horiz-adv-x="786" unicode="Η" d="M468 0v95h62v217h-275v-217h63v-95h-276v95h70v497h-70v95h276v-95h-63v-190h275v190h-62v95h275v-95h-69v-497h69v-95h-275z"/>
<glyph glyph-name="Theta" horiz-adv-x="740" unicode="Θ" d="M538 342q0 48 -6.5 94t-25 82.5t-50.5 58.5t-83 22t-84.5 -21.5t-53 -57.5t-27 -82.5t-7.5 -96.5q0 -119 39.5 -184t132.5 -65q44 0 75 19t51 52.5t29.5 79t9.5 99.5zM690 344q0 -76 -20 -140.5t-60 -112t-99 -74.5t-138 -27q-84 0 -145 25.5t-100.5 72t-58.5 111 t-19 143.5q0 74 18.5 139t57.5 114t100 77t147 28t146.5 -28.5t98.5 -77t55 -113t17 -137.5zM250 399l238 3v-94l-238 2v89z"/>
<glyph glyph-name="Iota" horiz-adv-x="419" unicode="Ι" d="M70 0v95h68v497h-68v96h279v-96h-68v-497h68v-95h-279z"/>
<glyph glyph-name="Kappa" horiz-adv-x="722" unicode="Κ" d="M429 418l218 -323h57v-95h-277l-1 95h59l-159 238l-75 -69v-170h62v-94h-270v94h69v500h-69v93h273v-93h-65v-209l225 209h-59v93h266v-93h-60z"/>
<glyph glyph-name="Lambda" horiz-adv-x="728" unicode="Λ" d="M207 93h65v-93h-258v93h55q51 146 104.5 297t104.5 297h179l201 -594h55v-93h-263v93h63q-11 34 -22 70t-26 83t-34.5 110.5t-46.5 152.5q-5 16 -9.5 31.5t-9.5 32.5h-3l-33 -102z"/>
<glyph glyph-name="Mu" horiz-adv-x="963" unicode="Μ" d="M485 247q11 23 20 46t19 45l15 36t23 53.5t27 62.5t28 64q19 43 34 78.5t23 54.5h251v-95h-63v-498h63v-94h-264v94h59v404h-2q-12 -27 -23.5 -54.5t-22.5 -54.5q-14 -33 -32 -74t-36 -81.5t-33.5 -76t-24.5 -57.5h-126q-39 82 -73 158t-73 163q-8 19 -16.5 38t-16.5 39 h-3q0 -102 -0.5 -202.5t-0.5 -201.5h64v-94h-267v94h69v498h-69v95h253q14 -31 30.5 -67.5t33.5 -76.5q21 -46 42.5 -95t41.5 -96q14 -29 25 -55.5t20 -49.5h5z"/>
<glyph glyph-name="Nu" horiz-adv-x="814" unicode="Ν" d="M570 207v385h-68v95h268v-95h-66v-592h-140q-67 104 -134.5 206.5t-133.5 207.5q-13 21 -25.5 42t-26.5 42q-1 0 -1 -0.5t-1 -0.5v-403h68v-94h-270v94h69q0 125 0.5 248.5t0.5 249.5h-69v95h222q36 -59 67 -106.5t59.5 -92.5l57 -90t60.5 -98q15 -23 29.5 -46t28.5 -47 h5z"/>
<glyph glyph-name="Xi" horiz-adv-x="628" unicode="Ξ" d="M167 310v90l294 3v-96zM495 113v99h102v-212h-566v212h102v-99h362zM143 575v-89h-101v201h541v-201h-101v89h-339z"/>
<glyph glyph-name="Omicron" horiz-adv-x="740" unicode="Ο" d="M538 342q0 48 -6.5 94t-25 81.5t-50.5 57.5t-83 22t-84.5 -21.5t-53 -57t-27 -81.5t-7.5 -96q0 -119 39.5 -183.5t132.5 -64.5q44 0 75 19t51 52t29.5 78.5t9.5 99.5zM690 344q0 -76 -20 -140.5t-60 -112t-99 -74.5t-138 -27q-84 0 -145 25.5t-100.5 72t-58.5 111 t-19 143.5q0 74 18.5 139t57.5 114t100 77t147 28t146.5 -28.5t98.5 -77t55 -113t17 -137.5z"/>
<glyph glyph-name="Pi" horiz-adv-x="786" unicode="Π" d="M468 0v94h62v499h-274v-499h63v-94h-276v94h69v499h-69v95h701v-95h-69v-499h69v-94h-276z"/>
<glyph glyph-name="Rho" horiz-adv-x="633" unicode="Ρ" d="M253 592v-233h94q22 0 42 6.5t34.5 20.5t23 35.5t8.5 52.5q0 61 -29 89.5t-83 28.5h-90zM605 479q0 -37 -12 -75t-39 -68.5t-69 -50t-102 -19.5h-130v-171h89v-95h-299v95h67v497h-67v96h327q117 0 176 -56.5t59 -152.5z"/>
<glyph glyph-name="Sigma" horiz-adv-x="622" unicode="Σ" d="M372 346l-168 -253h283v113h102v-206h-562v81l186 277l-182 249v80h546v-204h-100v110h-267l162 -222v-25z"/>
<glyph glyph-name="Tau" horiz-adv-x="630" unicode="Τ" d="M163 0v95h82v497h-129l1 -112h-101v208h599v-208h-101v112h-127v-497h81v-95h-305z"/>
<glyph glyph-name="Upsilon" horiz-adv-x="666" unicode="Υ" d="M457 591h-58v97h255v-97h-55l-193 -319v-177h78v-95h-307v95h78v175l-189 321h-53v97h257v-97h-57l119 -221h4z"/>
<glyph glyph-name="Phi" horiz-adv-x="873" unicode="Φ" d="M690 353q0 34 -10.5 66t-32.5 57.5t-56.5 42t-81.5 19.5v-369q36 3 69 18t57.5 39t39.5 56.5t15 70.5zM181 351q0 -79 49.5 -125.5t138.5 -56.5v369q-43 -4 -78 -20t-59.5 -40.5t-37.5 -57t-13 -69.5zM833 356q0 -60 -23.5 -111t-66.5 -89.5t-102.5 -61.5t-131.5 -27 l-1 -67h-139v67q-76 3 -137 25t-103.5 59.5t-65.5 88.5t-23 113q0 56 23.5 107t66.5 90t103.5 63.5t135.5 28.5v45h139l1 -46q77 -4 137 -28.5t101.5 -63t63.5 -88.5t22 -105z"/>
<glyph glyph-name="Chi" horiz-adv-x="706" unicode="Χ" d="M610 96h68l1 -96h-295v96h57l-110 173l-111 -173h59v-96h-251v96h60l173 259l-156 236h-75v97h293v-97h-54l101 -158l106 158h-58v97h252v-97h-60l-172 -241z"/>
<glyph glyph-name="Psi" horiz-adv-x="898" unicode="Ψ" d="M520 284q73 4 113.5 40t40.5 116v248h202v-94h-62v-150q-1 -117 -73.5 -185t-220.5 -72v-93h73v-94h-284v94h73v92q-154 7 -225 74t-71 192v142h-63v94h204v-251q0 -76 40 -112.5t115 -40.5v310h-55v94h247v-94h-54v-310z"/>
<glyph glyph-name="alpha" horiz-adv-x="607" unicode="α" d="M271 98q23 0 50.5 10.5t57.5 33.5v216q-9 7 -20.5 14.5t-24.5 13.5t-26 10t-25 4q-55 0 -81 -42t-26 -109q0 -47 8 -76.5t21 -46t30.5 -22.5t35.5 -6zM518 93h67l1 -82q-11 -4 -25 -7.5t-29 -6t-29.5 -4t-26.5 -1.5q-33 0 -55 10t-30 49q-25 -22 -50 -34t-47 -18 t-40 -7.5t-28 -1.5q-57 0 -93.5 21t-58 56.5t-30 81t-8.5 94.5q0 47 11.5 93t37 82t66.5 58.5t99 22.5q38 0 75 -14t66 -37l19 43h108v-398z"/>
<glyph glyph-name="beta" horiz-adv-x="562" unicode="β" d="M271 624q-42 0 -64 -26t-22 -75v-405q25 -16 52.5 -21.5t44.5 -5.5q53 0 78.5 36.5t25.5 102.5q0 57 -26.5 90.5t-91.5 33.5h-36v82h36q37 0 61.5 25.5t24.5 73.5q0 41 -23 65t-60 24zM44 -190v37.5v62.5v74.5v74.5v62v37v326q0 48 12.5 91t39.5 75.5t69.5 51.5t101.5 19 q57 0 98.5 -14.5t68.5 -38.5t39.5 -56t12.5 -67q0 -48 -22.5 -86t-56.5 -55q35 -11 57.5 -30.5t35.5 -44t18 -53t5 -58.5q0 -113 -57 -170t-150 -57q-36 0 -73 9.5t-60 24.5v-215h-139z"/>
<glyph glyph-name="gamma" horiz-adv-x="589" unicode="γ" d="M223 3q-8 21 -21 52t-28.5 67t-32 74.5t-32 74.5t-28.5 67t-21 52h-53v101h158q6 -15 16 -42t21 -56t21 -55.5t15 -41.5l54 -149h4q3 11 9 27t12 33t11.5 33t9.5 27q4 14 10.5 31t12.5 34.5t12 34.5t11 30h-40v94h230v-94h-51q-8 -21 -20.5 -52t-27.5 -67t-31 -74 t-30.5 -74t-27 -67t-19.5 -52l1 -221h-145v213z"/>
<glyph glyph-name="delta" horiz-adv-x="567" unicode="δ" d="M276 391q-28 -5 -47 -20t-30 -37t-16 -48.5t-5 -53.5q0 -28 4 -54t16 -45.5t33 -31.5t54 -12q31 0 50.5 13t31 33.5t15.5 46t4 51.5q0 24 -3 49t-14 46.5t-33 38t-60 24.5zM293 716q42 0 90 -8t84 -26v-126h-95v58q-15 6 -33 9.5t-35 3.5q-33 0 -57.5 -14t-24.5 -44 q0 -16 8 -27t20 -18.5t25.5 -12.5t24.5 -9q54 -19 96 -41t71 -53t44.5 -73t15.5 -101q0 -47 -13.5 -90.5t-43.5 -77.5t-77.5 -54.5t-114.5 -20.5q-65 0 -110.5 19.5t-74.5 52.5t-42.5 77t-13.5 93q0 70 29.5 129t95.5 88q-34 20 -56 47.5t-22 69.5q0 75 56 112t153 37z"/>
<glyph glyph-name="epsilon" horiz-adv-x="460" unicode="ε" d="M244 504q56 0 104.5 -9.5t73.5 -20.5v-128h-91v63q-16 5 -34.5 6.5t-33.5 1.5q-45 0 -65 -18.5t-20 -43.5q0 -34 21.5 -45t50.5 -11h65v-79h-65q-14 0 -27.5 -3t-25 -10.5t-18.5 -20t-7 -31.5q0 -39 30 -55.5t78 -16.5q34 0 69 8t73 22l26 -80q-32 -16 -84.5 -29.5 t-116.5 -13.5q-100 0 -158 37.5t-58 110.5q0 39 23 72t61 46l1 2q-34 11 -56 36.5t-22 61.5q0 31 14 58.5t40 47t64.5 31t87.5 11.5z"/>
<glyph glyph-name="zeta" horiz-adv-x="439" unicode="ζ" d="M319 627h-171v-56h-88v142h408v-84q-69 -55 -122 -111t-89.5 -108t-55.5 -98.5t-19 -83.5q0 -26 8.5 -44t29.5 -33t55.5 -29t86.5 -32q51 -17 72 -41.5t21 -53.5q0 -21 -10 -43.5t-27 -46.5t-39.5 -47.5t-47.5 -45.5l-67 61q3 4 9 10.5t11.5 14t10.5 13.5t7 9 q14 20 18 31t3 17q0 12 -13 21t-34 16q-56 18 -99 34t-72 37.5t-44.5 52t-15.5 77.5q0 39 19.5 90t55 107t86.5 113t114 107z"/>
<glyph glyph-name="eta" horiz-adv-x="645" unicode="η" d="M393 502q51 0 82 -16t47.5 -41t22 -55t5.5 -57v-238h70v-82q-25 -11 -56 -16t-55 -5q-38 0 -58 14t-29 32t-10 35t-1 24v209q0 47 -15 67t-57 20q-26 0 -56.5 -11.5t-53.5 -27.5v-354h-140v398h-66v92h204v-43q2 0 2.5 -0.5t2.5 -0.5q41 27 82 41.5t79 14.5z"/>
<glyph glyph-name="theta" horiz-adv-x="567" unicode="θ" d="M387 409q0 44 -4.5 82.5t-15.5 67.5t-31 46t-52 17q-34 0 -55 -16.5t-32.5 -45.5t-16 -67.5t-5.5 -83.5h212zM175 320q0 -56 2.5 -99.5t13.5 -73t32.5 -45t58.5 -15.5q33 0 54 18.5t32.5 50.5t15.5 74.5t4 89.5h-213zM529 358q0 -74 -12 -140.5t-40.5 -116.5t-77 -80 t-120.5 -30q-74 0 -121 29t-75 78t-38.5 114.5t-10.5 138.5q0 74 12 141t41 118t77 81t121 30t120.5 -30.5t75 -81t38 -116t10.5 -135.5z"/>
<glyph glyph-name="iota" horiz-adv-x="333" unicode="ι" d="M33 397v94h193v-395h71v-83q-25 -11 -57 -16.5t-55 -5.5q-54 0 -75.5 22t-22.5 70v314h-54z"/>
<glyph glyph-name="kappa" horiz-adv-x="593" unicode="κ" d="M300 490h254v-92h-63l-110 -93l128 -214q17 -2 33.5 -5.5t33.5 -5.5v-76q-23 -8 -50.5 -11.5t-44.5 -3.5q-26 0 -46 5.5t-36 33.5l-117 204l-51 -43v-98h55v-91h-259v91h65v310h-70v91h209v-189l117 96h-48v91z"/>
<glyph glyph-name="lambda" horiz-adv-x="575" unicode="λ" d="M285 373l-133 -373h-137l172 461h75l-50 160l-111 17v70q32 14 68 21t59 7q49 0 70.5 -18t32.5 -53l185 -576h47l3 -79q-23 -10 -51.5 -13.5t-45.5 -3.5q-36 0 -53.5 14.5t-27.5 47.5l-99 318h-4z"/>
<glyph glyph-name="nu" horiz-adv-x="599" unicode="ν" d="M305 108q4 14 10.5 34t13.5 41l13.5 40.5t10.5 33.5q5 14 11 32l12.5 37.5t12.5 38t11 32.5h-39v94h218v-94h-44q-8 -22 -19.5 -54t-25.5 -68.5t-29.5 -76t-29.5 -76t-26 -68.5t-20 -54h-171q-11 33 -31 85.5t-41.5 108.5t-41 109t-30.5 86h-51v102h156l72 -217 q5 -15 12 -37t15 -45.5t15 -45.5t12 -38h4z"/>
<glyph glyph-name="xi" horiz-adv-x="466" unicode="ξ" d="M286 722q15 0 35.5 -1.5t43.5 -5t46 -9t42 -12.5l-22 -93q-44 13 -77.5 17t-56.5 4q-60 0 -84 -27t-24 -68q0 -45 33.5 -67.5t86.5 -22.5h92v-94h-95q-34 0 -58.5 -9.5t-40.5 -25.5t-23.5 -38t-7.5 -47q0 -23 7 -41t24.5 -33.5t47.5 -30t75 -32.5q69 -26 106 -50t37 -62 q0 -21 -10 -43.5t-26.5 -45.5t-37 -45t-41.5 -43l-71 55q51 62 51 85q0 13 -12 23t-40 20q-49 20 -94 37.5t-79.5 41t-55 58.5t-20.5 89q0 25 6 53t20 53.5t36.5 47t55.5 33.5q-56 23 -79.5 62.5t-23.5 83.5q3 86 62 134.5t172 48.5z"/>
<glyph glyph-name="omicron" horiz-adv-x="574" unicode="ο" d="M391 244q0 28 -4 56.5t-15 50.5t-30.5 36t-50.5 14q-32 0 -53 -13.5t-33 -35.5t-17 -50.5t-5 -57.5q0 -32 4 -60t15.5 -49t32 -33.5t53.5 -12.5q31 0 51.5 13t31.5 35t15.5 49.5t4.5 57.5zM534 245q0 -51 -14 -97t-44 -81t-77.5 -55.5t-115.5 -20.5q-65 0 -111.5 20 t-75.5 54t-42.5 80t-13.5 99q0 52 14.5 98.5t45 81.5t77.5 56t112 21q66 0 113 -20.5t76 -56t42.5 -82t13.5 -97.5z"/>
<glyph glyph-name="pi" horiz-adv-x="644" unicode="π" d="M227 397v-397h-137v397h-66v92h593v-92h-68v-302h71v-82q-25 -11 -57 -16.5t-55 -5.5q-31 0 -50 7.5t-29.5 20t-14.5 30t-4 38.5v310h-183z"/>
<glyph glyph-name="rho" horiz-adv-x="573" unicode="ρ" d="M43 221q0 73 19 126t52.5 87t80 50.5t102.5 16.5q62 0 106.5 -19.5t73.5 -53t42.5 -79.5t13.5 -100q0 -57 -13 -105t-39.5 -82t-68 -53t-98.5 -19q-26 0 -63 6.5t-68 24.5v-228h-141v52.5t0.5 79t0.5 75.5v42v179zM282 91q22 0 42 6.5t35.5 24.5t25 49t9.5 81q0 46 -9 75 t-24 45.5t-34 22.5t-40 6q-49 0 -76.5 -38.5t-27.5 -96.5v-147q17 -11 45 -19.5t54 -8.5z"/>
<glyph glyph-name="sigma1" horiz-adv-x="475" unicode="ς" d="M288 501q46 0 85 -7t72 -19q0 -37 -0.5 -73.5t-0.5 -73.5h-92v68q-11 4 -24 6t-31 2q-32 0 -54.5 -11.5t-37.5 -31.5t-22 -47.5t-7 -59.5q0 -29 5.5 -51t21.5 -41.5t43.5 -38t72.5 -39.5q65 -31 90.5 -55.5t25.5 -53.5q0 -13 -8.5 -31.5t-24.5 -40.5t-37.5 -46t-48.5 -48 q-17 14 -34 29l-34 30q19 24 31.5 44.5t12.5 37.5q0 13 -14 23t-44 24q-57 25 -95 49.5t-61.5 53t-33 64.5t-9.5 84q0 53 14 99t45 80.5t78.5 54t115.5 19.5z"/>
<glyph glyph-name="sigma" horiz-adv-x="577" unicode="σ" d="M281 394q-31 0 -51.5 -13t-32.5 -34.5t-17 -50t-5 -58.5q0 -73 24 -112t82 -39q53 0 78.5 43t25.5 109q0 29 -4 57t-15.5 49.5t-32 35t-52.5 13.5zM474 392q27 -27 38.5 -69.5t11.5 -85.5q0 -53 -15.5 -97.5t-46 -77t-76.5 -50.5t-106 -18q-65 0 -111.5 17.5t-76.5 50 t-44 77.5t-14 100q0 51 15 96.5t45.5 80t78 54.5t112.5 20h273v-93h-81z"/>
<glyph glyph-name="tau" horiz-adv-x="449" unicode="τ" d="M397 491v-93h-143v-225q0 -42 17 -60t60 -18q14 0 36 3.5t48 9.5l17 -88q-32 -14 -71.5 -21t-70.5 -7q-51 0 -84.5 11.5t-53 31.5t-27.5 46.5t-8 55.5v261h-109v93h389z"/>
<glyph glyph-name="upsilon" horiz-adv-x="605" unicode="υ" d="M539 491v-284q0 -52 -17 -92.5t-47.5 -68t-73.5 -41.5t-94 -14q-113 0 -170.5 54t-57.5 143v209h-58v94h198v-306q0 -42 19.5 -67.5t68.5 -25.5q40 0 65.5 26t25.5 74v299h141z"/>
<glyph glyph-name="phi" horiz-adv-x="748" unicode="φ" d="M572 250q0 32 -6 60t-21.5 49t-41.5 33t-66 13l1 -319q72 2 103 45.5t31 118.5zM37 245q0 41 10 80.5t32.5 73t58 59t85.5 39.5l38 -75q-45 -26 -66 -71t-21 -106q0 -35 6 -64t21 -49.5t40.5 -32.5t65.5 -14v416h157q60 0 106 -18.5t77.5 -52t47.5 -79.5t16 -101 t-16 -101.5t-49.5 -80.5t-85.5 -54t-123 -22v-199h-132v199q-83 4 -135 27t-81.5 58t-40.5 78.5t-11 89.5z"/>
<glyph glyph-name="chi" horiz-adv-x="587" unicode="χ" d="M33 493h169l111 -155l53 66h-46v89h227v-89h-50l-133 -153l120 -162h69v-89h-262v89h35l-61 83l-69 -83h34v-89h-206l1 89h38l145 173l-103 141h-73z"/>
<glyph glyph-name="psi" horiz-adv-x="796" unicode="ψ" d="M262 -118h69v113q-63 2 -111.5 18.5t-82.5 44t-51.5 65t-17.5 81.5v193h-53v93h190v-290q0 -18 7 -36t22.5 -33t39.5 -25t57 -11v404h-50v96h186v-500q35 1 59 11t39 25.5t21.5 36t6.5 44.5v278h189v-93h-53v-193q0 -44 -18 -81.5t-51.5 -65t-82.5 -44t-110 -18.5v-113 h72v-93h-277v93z"/>
<glyph glyph-name="afii10023" horiz-adv-x="649" unicode="Ё" d="M43 0v96h69v496h-68v95h560v-202h-101v107h-247v-192l230 6v-99l-230 6v-217h259v112h102v-208h-574zM298 785q0 -25 -17 -41.5t-42 -16.5t-41.5 16.5t-16.5 41.5q0 24 17 41t40 17q26 0 43 -16.5t17 -41.5zM498 785q0 -25 -17 -41.5t-43 -16.5q-24 0 -40.5 16.5 t-16.5 41.5q0 24 16.5 41t40.5 17q26 0 43 -16.5t17 -41.5z"/>
<glyph glyph-name="afii10051" horiz-adv-x="844" unicode="Ђ" d="M803 211q0 -59 -19 -110.5t-49 -93.5t-67 -74.5t-73 -54.5l-59 74q51 42 84 99.5t33 135.5q0 74 -34.5 105t-91.5 31q-29 0 -64.5 -6.5t-70.5 -19.5v-203h77v-94h-291v94h72v500h-126v-82h-101v175h662v-175h-101v82h-192v-202q45 17 91.5 25t87.5 8q51 0 94 -13.5 t73.5 -40.5t47.5 -67t17 -93z"/>
<glyph glyph-name="afii10052" horiz-adv-x="619" unicode="Ѓ" d="M43 0v94h70v500h-69v93h559v-198h-101v105h-246v-500h94v-94h-307zM321 737l-47 48l148 169l73 -78z"/>
<glyph glyph-name="afii10053" horiz-adv-x="628" unicode="Є" d="M590 25q-21 -8 -48 -14.5t-56 -10.5t-58.5 -6t-55.5 -2q-94 0 -156 27t-99 74t-52 110.5t-15 137.5q0 60 14 124t50.5 116t101 85.5t166.5 33.5q54 0 101.5 -8t85.5 -19v-182h-103v91q-17 5 -38.5 7.5t-42.5 2.5q-44 0 -77 -14t-56 -39.5t-35.5 -61t-14.5 -77.5 q57 1 122.5 2t122.5 3v-96q-58 1 -123 2t-123 1q1 -48 12.5 -86.5t35.5 -65.5t62 -41.5t93 -14.5q13 0 33 1.5t42.5 4.5t45.5 6.5t43 8.5z"/>
<glyph glyph-name="afii10054" horiz-adv-x="614" unicode="Ѕ" d="M142 199q0 -20 0.5 -38t0.5 -38q34 -15 71 -20.5t66 -5.5q39 0 65 8t41.5 21t22.5 30t7 34q0 24 -11 40.5t-30.5 28t-46 20t-58.5 16.5q-49 12 -90 27.5t-71 38t-47 53.5t-17 75q0 50 19 88.5t53.5 65t82.5 40.5t105 14q50 0 109.5 -9.5t107.5 -34.5q0 -39 0.5 -77.5 t0.5 -77.5h-102q0 20 -0.5 39t-0.5 39q-22 9 -54 13t-56 4q-60 0 -88 -25t-28 -64q0 -21 10 -35.5t28.5 -26t46 -20.5t63.5 -18q43 -12 85 -26t74.5 -36.5t52.5 -57t20 -86.5q0 -53 -20 -92.5t-57 -65t-90 -38t-118 -12.5q-61 0 -125.5 10.5t-121.5 37.5q0 40 -0.5 80 t-0.5 81h101z"/>
<glyph glyph-name="afii10055" horiz-adv-x="419" unicode="І" d="M70 0v95h68v497h-68v96h279v-96h-68v-497h68v-95h-279z"/>
<glyph glyph-name="afii10056" horiz-adv-x="419" unicode="Ї" d="M70 0v95h68v497h-68v96h279v-96h-68v-497h68v-95h-279zM167 785q0 -25 -17 -41.5t-42 -16.5t-41.5 16.5t-16.5 41.5q0 24 17 41t40 17q26 0 43 -16.5t17 -41.5zM367 785q0 -25 -17 -41.5t-43 -16.5q-24 0 -40.5 16.5t-16.5 41.5q0 24 16.5 41t40.5 17q26 0 43 -16.5 t17 -41.5z"/>
<glyph glyph-name="afii10057" horiz-adv-x="438" unicode="Ј" d="M71 688h312v-96h-79v-432q0 -142 -74 -224.5t-215 -116.5l-34 97q59 27 94.5 51.5t54.5 53t25 63t6 80.5v428h-90v96z"/>
<glyph glyph-name="afii10058" horiz-adv-x="1040" unicode="Љ" d="M611 325v-231h128q48 0 79.5 29.5t31.5 86.5q0 29 -9.5 50.5t-25.5 36t-37.5 21.5t-44.5 7h-122zM684 594h-73v-176h141q53 0 98.5 -13.5t78.5 -39.5t52 -65.5t19 -91.5q0 -53 -17 -92.5t-47 -65t-71.5 -38t-91.5 -12.5h-370v94h65v500h-152v-55q0 -109 -8 -202.5 t-36 -166t-80.5 -121t-142.5 -66.5l-34 101q56 21 89.5 54.5t51.5 84.5t23.5 122.5t5.5 167.5v81h-89v94h588v-94z"/>
<glyph glyph-name="afii10059" horiz-adv-x="1075" unicode="Њ" d="M647 321v-227h128q48 0 79 28.5t31 85.5q0 29 -9.5 50.5t-25.5 35.5t-37 20.5t-45 6.5h-121zM719 594h-72v-181h140q53 0 98.5 -13t78.5 -38.5t52 -64t19 -90.5q0 -51 -16.5 -90t-46.5 -65t-71.5 -39t-91.5 -13h-369v94h63v228h-245v-228h61v-94h-274v94h70v500h-70v93 h274v-93h-61v-183h245v183h-65v94h281v-94z"/>
<glyph glyph-name="afii10060" horiz-adv-x="897" unicode="Ћ" d="M859 94v-94h-272v94h63v140q0 26 -8.5 44t-23.5 29t-36 15.5t-46 4.5q-38 0 -76 -9.5t-65 -21.5v-202h68v-94h-284v94h74v500h-127v-82h-101v175h658v-175h-101v82h-187v-199q44 14 90.5 22.5t89.5 8.5q45 0 84.5 -9.5t69 -30t47 -53t17.5 -79.5v-160h66z"/>
<glyph glyph-name="afii10061" horiz-adv-x="721" unicode="Ќ" d="M372 739l-47 48l148 169l73 -78zM606 100l93 -9v-80q-25 -10 -55.5 -15t-49.5 -5h-12q-30 0 -52 9.5t-42 38.5l-203 293v44l186 265q20 32 41.5 43.5t48.5 11.5h5q57 0 107 -26l-8 -79l-87 -8l-163 -218zM254 94h66v-94h-277v94h68v500h-68v93h277v-93h-66v-500z"/>
<glyph glyph-name="afii10062" horiz-adv-x="667" unicode="Ў" d="M334 737q-29 0 -55 10.5t-48.5 28t-42.5 40.5t-37 49l58 45q32 -43 66.5 -65.5t62.5 -22.5q9 0 22 1.5t31.5 9.5t42.5 24.5t55 46.5l39 -38q-48 -73 -99 -101t-95 -28zM263 688v-95h-59l78 -185l56 -144h5l54 146l71 183h-62v95h247v-95h-51l-204 -496q-25 -60 -60 -85 t-89 -25q-23 0 -56.5 3.5t-81.5 17.5l22 92q28 -6 47 -8.5t34 -2.5q21 0 36 11t26 38l16 40h-39l-190 415h-51v95h251z"/>
<glyph glyph-name="afii10145" horiz-adv-x="786" unicode="Џ" d="M743 687v-94h-69v-500h69v-93h-294v-190h-110v190h-297v93h70v500h-70v94h276v-94h-63v-500h275v500h-62v94h275z"/>
<glyph glyph-name="afii10017" horiz-adv-x="736" unicode="А" d="M383 521q-3 13 -7 25.5t-8 26.5h-3l-16 -53q-8 -25 -18 -56t-20.5 -63t-20.5 -63t-18 -56h186zM516 94l-30 96h-245q-6 -19 -15 -46t-15 -50h65v-94h-256v94h55l208 593h177l201 -593h55v-94h-263v94h63z"/>
<glyph glyph-name="afii10018" horiz-adv-x="682" unicode="Б" d="M254 325v-231h131q47 0 78 32t31 87q0 58 -33 85t-84 27h-123zM575 517h-101v77h-220v-176h141q54 0 99.5 -12.5t78.5 -38t51 -63.5t18 -90q0 -53 -16.5 -93t-46 -67t-71 -40.5t-92.5 -13.5h-373v94h68v500h-68v93h532v-170z"/>
<glyph glyph-name="afii10019" horiz-adv-x="686" unicode="В" d="M257 592v-193h113q51 0 79 26.5t28 69.5t-25.5 70t-81.5 27h-113zM257 308v-214h126q59 0 85.5 31.5t26.5 75.5q0 43 -27.5 75t-84.5 32h-126zM535 360q32 -11 53 -30.5t33.5 -42t17.5 -47t5 -46.5q0 -44 -16.5 -80t-45.5 -61.5t-69 -39t-87 -13.5h-385v94h72v498h-69v95 h352q115 0 171 -48.5t56 -133.5q0 -14 -3.5 -33t-13 -39.5t-26.5 -39.5t-45 -32v-1z"/>
<glyph glyph-name="afii10020" horiz-adv-x="619" unicode="Г" d="M43 0v94h70v500h-69v93h559v-198h-101v105h-246v-500h94v-94h-307z"/>
<glyph glyph-name="afii10021" horiz-adv-x="774" unicode="Д" d="M325 541q0 -157 -21 -267t-78 -180h282v500h-183v-53zM127 0v-177h-107v268l58 3q38 37 61.5 85t37 106t18.5 124.5t5 140.5v44h-76v93h596v-93h-69v-500l71 -3v-268h-106v177h-489z"/>
<glyph glyph-name="afii10022" horiz-adv-x="649" unicode="Е" d="M43 0v96h69v496h-68v95h560v-202h-101v107h-247v-192l230 6v-99l-230 6v-217h259v112h102v-208h-574z"/>
<glyph glyph-name="afii10024" horiz-adv-x="1039" unicode="Ж" d="M290 365l-166 218l-87 8l-8 79q50 26 107 26h5q27 0 48.5 -11.5t41.5 -43.5l189 -265v-44l-185 -293q-20 -29 -42 -38.5t-52 -9.5h-12q-19 0 -49.5 5t-55.5 15v80l93 9zM926 100l93 -9v-80q-25 -10 -55.5 -15t-49.5 -5h-12q-30 0 -52 9.5t-42 38.5l-189 293v44l186 265 q20 32 41.5 43.5t48.5 11.5h5q57 0 107 -26l-8 -79l-87 -8l-163 -218zM590 93h66v-93h-272v93h66v500h-66v93h272v-93h-66v-500z"/>
<glyph glyph-name="afii10025" horiz-adv-x="614" unicode="З" d="M59 656q26 12 56.5 20.5t61 14t59.5 8t52 2.5q50 0 96.5 -8.5t82.5 -29t58 -55t22 -86.5q0 -20 -7 -41t-20.5 -40.5t-33 -36.5t-45.5 -27v-1q60 -20 92.5 -63.5t32.5 -97.5q0 -56 -23.5 -97.5t-63 -69.5t-92.5 -41.5t-113 -13.5q-23 0 -54 2t-64 7t-65.5 13.5t-59.5 21.5 l30 93q54 -14 98.5 -22.5t76.5 -8.5q90 0 135 29.5t45 86.5q0 51 -37.5 78.5t-98.5 27.5h-88v89h80q31 0 55 8.5t40 22.5t24 31.5t8 36.5q0 51 -35.5 71t-92.5 20q-28 0 -56 -5t-51 -13v-99h-105v173z"/>
<glyph glyph-name="afii10026" horiz-adv-x="804" unicode="И" d="M478 686h286v-93h-72v-500h72v-93h-279v93h68v350h-2q-75 -81 -148.5 -160.5t-148.5 -158.5v-31h67v-93h-281v93h73v500h-71v93h280v-93h-68v-345h2l297 318v27h-75v93z"/>
<glyph glyph-name="afii10027" horiz-adv-x="804" unicode="Й" d="M399 751q-29 0 -55 10.5t-48.5 28t-42.5 41t-37 49.5l58 45q32 -44 66.5 -65.5t61.5 -21.5q9 0 22.5 1t32 8.5t42.5 24t55 46.5l39 -38q-48 -73 -98.5 -101t-95.5 -28zM478 686h286v-93h-72v-500h72v-93h-279v93h68v350h-2q-75 -81 -148.5 -160.5t-148.5 -158.5v-31h67 v-93h-281v93h73v500h-71v93h280v-93h-68v-345h2l297 318v27h-75v93z"/>
<glyph glyph-name="afii10028" horiz-adv-x="721" unicode="К" d="M606 100l93 -9v-80q-25 -10 -55.5 -15t-49.5 -5h-12q-30 0 -52 9.5t-42 38.5l-203 293v44l186 265q20 32 41.5 43.5t48.5 11.5h5q57 0 107 -26l-8 -79l-87 -8l-163 -218zM254 94h66v-94h-277v94h68v500h-68v93h277v-93h-66v-500z"/>
<glyph glyph-name="afii10029" horiz-adv-x="755" unicode="Л" d="M430 0v94h62v500h-176v-55q0 -109 -8 -202.5t-36 -166t-80.5 -121t-142.5 -66.5l-34 101q56 21 89.5 54.5t51.5 84.5t23.5 122.5t5.5 167.5v81h-89v94h609v-94h-69v-500h69v-94h-275z"/>
<glyph glyph-name="afii10030" horiz-adv-x="963" unicode="М" d="M485 247q11 23 20 46t19 45l15 36t23 53.5t27 62.5t28 64q19 43 34 78.5t23 54.5h251v-95h-63v-498h63v-94h-264v94h59v404h-2q-12 -27 -23.5 -54.5t-22.5 -54.5q-14 -33 -32 -74t-36 -81.5t-33.5 -76t-24.5 -57.5h-126q-39 82 -73 158t-73 163q-8 19 -16.5 38t-16.5 39 h-3q0 -102 -0.5 -202.5t-0.5 -201.5h64v-94h-267v94h69v498h-69v95h253q14 -31 30.5 -67.5t33.5 -76.5q21 -46 42.5 -95t41.5 -96q14 -29 25 -55.5t20 -49.5h5z"/>
<glyph glyph-name="afii10031" horiz-adv-x="786" unicode="Н" d="M468 0v95h62v217h-275v-217h63v-95h-276v95h70v497h-70v95h276v-95h-63v-190h275v190h-62v95h275v-95h-69v-497h69v-95h-275z"/>
<glyph glyph-name="afii10032" horiz-adv-x="740" unicode="О" d="M538 342q0 48 -6.5 94t-25 81.5t-50.5 57.5t-83 22t-84.5 -21.5t-53 -57t-27 -81.5t-7.5 -96q0 -119 39.5 -183.5t132.5 -64.5q44 0 75 19t51 52t29.5 78.5t9.5 99.5zM690 344q0 -76 -20 -140.5t-60 -112t-99 -74.5t-138 -27q-84 0 -145 25.5t-100.5 72t-58.5 111 t-19 143.5q0 74 18.5 139t57.5 114t100 77t147 28t146.5 -28.5t98.5 -77t55 -113t17 -137.5z"/>
<glyph glyph-name="afii10033" horiz-adv-x="786" unicode="П" d="M468 0v94h62v499h-274v-499h63v-94h-276v94h69v499h-69v95h701v-95h-69v-499h69v-94h-276z"/>
<glyph glyph-name="afii10034" horiz-adv-x="633" unicode="Р" d="M253 592v-233h94q22 0 42 6.5t34.5 20.5t23 35.5t8.5 52.5q0 61 -29 89.5t-83 28.5h-90zM605 479q0 -37 -12 -75t-39 -68.5t-69 -50t-102 -19.5h-130v-171h89v-95h-299v95h67v497h-67v96h327q117 0 176 -56.5t59 -152.5z"/>
<glyph glyph-name="afii10035" horiz-adv-x="623" unicode="С" d="M201 345q0 -61 10.5 -106t34.5 -75t63.5 -44.5t96.5 -14.5q12 0 31.5 1t41.5 3.5t45 6.5t42 10l22 -100q-21 -8 -47.5 -15t-55 -11.5t-57.5 -7t-55 -2.5q-94 0 -156.5 27.5t-99.5 75t-52 111.5t-15 138q0 60 14 124t51 116t102 85.5t166 33.5q55 0 100 -7.5t83 -20.5 v-193h-101v103q-20 5 -40.5 7t-38.5 2q-50 0 -85.5 -17.5t-57.5 -50t-32 -78t-10 -101.5z"/>
<glyph glyph-name="afii10036" horiz-adv-x="630" unicode="Т" d="M163 0v95h82v497h-129l1 -112h-101v208h599v-208h-101v112h-127v-497h81v-95h-305z"/>
<glyph glyph-name="afii10037" horiz-adv-x="667" unicode="У" d="M263 688v-95h-59l78 -185l56 -144h5l54 146l71 183h-62v95h247v-95h-51l-204 -496q-25 -60 -60 -85t-89 -25q-23 0 -56.5 3.5t-81.5 17.5l22 92q28 -6 47 -8.5t34 -2.5q21 0 36 11t26 38l16 40h-39l-190 415h-51v95h251z"/>
<glyph glyph-name="afii10038" horiz-adv-x="873" unicode="Ф" d="M690 353q0 34 -10.5 66t-32.5 57.5t-56.5 42t-81.5 19.5v-369q36 3 69 18t57.5 39t39.5 56.5t15 70.5zM181 351q0 -79 49.5 -125.5t138.5 -56.5v369q-43 -4 -78 -20t-59.5 -40.5t-37.5 -57t-13 -69.5zM833 356q0 -60 -23.5 -111t-66.5 -89.5t-102.5 -61.5t-131.5 -27 l-1 -67h-139v67q-76 3 -137 25t-103.5 59.5t-65.5 88.5t-23 113q0 56 23.5 107t66.5 90t103.5 63.5t135.5 28.5v45h139l1 -46q77 -4 137 -28.5t101.5 -63t63.5 -88.5t22 -105z"/>
<glyph glyph-name="afii10039" horiz-adv-x="706" unicode="Х" d="M610 96h68l1 -96h-295v96h57l-110 173l-111 -173h59v-96h-251v96h60l173 259l-156 236h-75v97h293v-97h-54l101 -158l106 158h-58v97h252v-97h-60l-172 -241z"/>
<glyph glyph-name="afii10040" horiz-adv-x="786" unicode="Ц" d="M655 0h-614v93h70v500h-70v94h276v-94h-63v-500h275v500h-62v94h275v-94h-69v-500h89v-269h-107v176z"/>
<glyph glyph-name="afii10041" horiz-adv-x="744" unicode="Ч" d="M698 0h-278v93h68v192q-41 -11 -82 -17.5t-82 -6.5q-47 0 -89 9t-74 30t-51 54.5t-19 83.5v155h-67v93h272v-93h-62v-130q0 -56 31 -77.5t83 -23.5q35 0 71.5 7t68.5 18v206h-62v93h272v-93h-68v-500h68v-93z"/>
<glyph glyph-name="afii10042" horiz-adv-x="1072" unicode="Ш" d="M466 593h-58v94h256v-94h-58v-500h215v500h-59v94h268v-94h-69v-500h69v-93h-987v93h69v500h-69v94h269v-94h-61v-500h215v500z"/>
<glyph glyph-name="afii10043" horiz-adv-x="1072" unicode="Щ" d="M466 593h-58v94h256v-94h-58v-500h215v500h-59v94h268v-94h-69v-500h87v-270h-106v177h-899v93h69v500h-69v94h269v-94h-61v-500h215v500z"/>
<glyph glyph-name="afii10044" horiz-adv-x="841" unicode="Ъ" d="M412 325v-231h128q47 0 79 29.5t32 86.5q0 29 -9.5 50.5t-26 36t-37.5 21.5t-45 7h-121zM412 418h140q53 0 98.5 -13.5t78.5 -39.5t52 -65.5t19 -91.5q0 -53 -16.5 -92.5t-46.5 -65t-71.5 -38t-91.5 -12.5h-376v94h71v500h-150v-101h-101v194h462v-93h-67z"/>
<glyph glyph-name="afii10045" horiz-adv-x="1013" unicode="Ы" d="M689 0v94h68v500h-68v93h279v-93h-68v-500h68v-94h-279zM329 594h-72v-176h141q53 0 98.5 -13.5t78.5 -39.5t52 -65.5t19 -91.5q0 -53 -17 -92.5t-47 -65t-71.5 -38t-91.5 -12.5h-376v94h71v500h-71v94h286v-94zM257 325v-231h128q48 0 79.5 29.5t31.5 86.5 q0 29 -9.5 50.5t-26 36t-37.5 21.5t-45 7h-121z"/>
<glyph glyph-name="afii10046" horiz-adv-x="691" unicode="Ь" d="M334 594h-72v-176h141q53 0 98.5 -13.5t78.5 -39.5t52 -65.5t19 -91.5q0 -53 -17 -92.5t-47 -65t-71.5 -38t-91.5 -12.5h-376v94h71v500h-71v94h286v-94zM262 325v-231h128q48 0 79.5 29.5t31.5 86.5q0 29 -9.5 50.5t-26 36t-37.5 21.5t-45 7h-121z"/>
<glyph glyph-name="afii10047" horiz-adv-x="622" unicode="Э" d="M424 313q-57 -1 -114.5 -2t-114.5 -1v93l229 -3q-2 87 -42.5 139.5t-130.5 52.5q-22 0 -48.5 -3.5t-42.5 -7.5v-91h-102v181q38 13 88.5 21t105.5 8q98 0 161 -29.5t99 -77.5t49.5 -110t13.5 -127q0 -70 -17 -135.5t-56 -116.5t-103 -81.5t-157 -30.5q-52 0 -109 8 t-99 25q5 26 11 50.5t12 49.5q19 -5 41 -8.5t43.5 -6.5t40.5 -4.5t32 -1.5q106 0 157.5 56t52.5 153z"/>
<glyph glyph-name="afii10048" horiz-adv-x="1051" unicode="Ю" d="M855 342q0 48 -6 94t-23 82t-49 58t-83 22t-83.5 -21.5t-50.5 -57.5t-25 -82.5t-7 -96.5q0 -60 8.5 -106t28 -78t51 -48.5t78.5 -16.5q44 0 75 19t50 52.5t27.5 79.5t8.5 100zM1001 343q0 -76 -18.5 -140.5t-56 -111.5t-95.5 -73.5t-137 -26.5q-78 0 -135 22.5t-95 64.5 t-57.5 101t-22.5 133h-129v-218h63v-94h-276v94h70v500h-70v93h276v-93h-63v-192h130q7 63 27.5 117.5t57.5 94.5t92 63t132 23q87 0 145.5 -28.5t94.5 -77.5t51.5 -113.5t15.5 -137.5z"/>
<glyph glyph-name="afii10049" horiz-adv-x="705" unicode="Я" d="M331 284l-110 -222q-8 -18 -16.5 -31.5t-20 -23t-26.5 -14t-37 -4.5q-9 0 -22 1t-27.5 3t-29.5 5t-27 7v78l79 11l110 213q-36 10 -59.5 29t-38 42t-20 48.5t-5.5 49.5q0 45 14 83.5t42 67t71 45t101 16.5h341v-94h-66v-500h68v-94h-277v94h67v190h-111zM229 480 q0 -33 11.5 -54t28.5 -32.5t38 -15.5t41 -4h94v220h-101q-48 0 -80 -29t-32 -85z"/>
<glyph glyph-name="afii10065" horiz-adv-x="565" unicode="а" d="M472 93h75l7 -75q-36 -16 -71 -21t-59 -5q-32 0 -53.5 11.5t-22.5 51.5q-1 0 -1 0.5t-1 0.5q-25 -24 -50 -37.5t-46.5 -19.5t-39.5 -7.5t-28 -1.5q-45 0 -74.5 14t-46 35.5t-23 46.5t-6.5 46q0 28 11 53.5t32.5 45t54 32t74.5 15.5l137 9v24q0 43 -18.5 65.5t-71.5 22.5 q-36 0 -76.5 -7t-73.5 -18q-6 21 -12 42.5t-11 43.5q43 19 99 29t108 10q43 0 78 -8.5t59 -28.5t37 -52.5t13 -79.5v-237zM247 213q-36 -4 -53.5 -22t-17.5 -43q0 -35 16 -51.5t53 -16.5q23 0 48.5 11.5t45.5 30.5v100z"/>
<glyph glyph-name="afii10066" horiz-adv-x="573" unicode="б" d="M290 388q-30 0 -51 -14.5t-33.5 -37t-18.5 -50t-6 -53.5q0 -27 4 -53t15 -47t32 -33.5t54 -12.5q31 0 50.5 12.5t31 33.5t16 48.5t4.5 56.5t-4 56t-14.5 48t-30 33.5t-49.5 12.5zM272 675q16 6 40.5 16t51 20.5t51 20.5t39.5 18q9 -20 19 -40t19 -40q-32 -19 -63 -32.5 t-53 -22.5q-47 -18 -85 -36t-66.5 -42t-46.5 -57t-25 -81q2 0 3 -1q26 38 69 60.5t96 22.5q58 0 98 -18.5t65 -51t36 -77t11 -96.5q0 -48 -13.5 -92t-43 -78.5t-77 -55t-116.5 -20.5q-65 0 -110 19t-73 51.5t-41 74t-16 86.5q-1 23 -1 45.5v45.5q1 55 5 87.5t10 54.5 q20 77 74.5 130.5t142.5 88.5z"/>
<glyph glyph-name="afii10067" horiz-adv-x="557" unicode="в" d="M219 405v-111h98q26 0 43 15.5t17 40.5t-15 40t-50 15h-93zM219 208v-120h104q34 0 51 18.5t17 44.5q0 25 -16.5 41t-51.5 16h-104zM343 490q85 0 126.5 -35t41.5 -95q0 -25 -12 -52.5t-44 -47.5q21 -9 35 -23t22 -30t11 -33t3 -32q0 -33 -13 -59.5t-36 -44.5t-54 -28 t-68 -10h-324v91h54v311h-53v88h311z"/>
<glyph glyph-name="afii10068" horiz-adv-x="501" unicode="г" d="M36 0v90h54v312h-52v88h443v-168h-92v80h-161v-312h73v-90h-265z"/>
<glyph glyph-name="afii10069" horiz-adv-x="634" unicode="д" d="M278 402v-34q0 -38 -2 -76t-8 -74t-18 -68t-32 -59h184v311h-124zM540 91l54 -3v-236h-105v148h-362v-148h-107v236l56 3q26 25 40.5 58t21.5 70t9 76.5t2 79.5v27h-62v88h454z"/>
<glyph glyph-name="afii10070" horiz-adv-x="532" unicode="е" d="M279 502q71 0 113.5 -23.5t65 -59t29.5 -77.5t7 -79v-50h-314q-1 -62 26 -92t96 -30q39 0 76 8t75 23l30 -84q-48 -26 -100.5 -37t-102.5 -11q-73 0 -119.5 21.5t-73.5 57t-37 81t-10 94.5q0 40 10.5 85.5t37.5 84t73.5 63.5t117.5 25zM279 405q-25 0 -42.5 -9.5 t-29.5 -24.5t-18 -34t-7 -39h184q0 21 -4.5 40.5t-14 34t-26.5 23.5t-42 9z"/>
<glyph glyph-name="afii10072" horiz-adv-x="871" unicode="ж" d="M107 402l-56 4l-7 73q17 9 42 15t48 6q28 0 46.5 -9.5t34.5 -33.5l132 -191v-30l-141 -209q-15 -21 -34 -29t-50 -8q-18 1 -46 5.5t-48 12.5v70l65 10l122 172zM779 88l65 -10v-70q-10 -4 -22.5 -7.5t-25 -5.5t-24.5 -3.5t-21 -1.5q-32 0 -51 8t-34 29l-145 209v30 l136 191q17 24 35 33.5t46 9.5q23 0 47.5 -6t41.5 -15l-6 -73l-57 -4l-112 -142zM316 89h50v312h-52v89h244v-89h-54v-312h55v-89h-243v89z"/>
<glyph glyph-name="afii10073" horiz-adv-x="486" unicode="з" d="M214 -9q-29 0 -57.5 3t-54 7.5t-46.5 11t-36 12.5l25 89q40 -13 76.5 -18.5t67.5 -5.5q114 0 114 72q0 18 -8 30t-20 18.5t-26.5 9t-28.5 2.5h-65v75h54q15 0 29.5 2.5t26 8.5t19 17t7.5 28q0 21 -18.5 37t-58.5 16q-19 0 -39 -2.5t-41 -9.5v-56h-93v129q42 17 92.5 26.5 t101.5 9.5q99 0 149 -36.5t50 -94.5q0 -36 -20.5 -63t-55.5 -42v-3q40 -12 63.5 -44t23.5 -70q0 -74 -61 -116.5t-170 -42.5z"/>
<glyph glyph-name="afii10074" horiz-adv-x="664" unicode="и" d="M428 291q-5 -8 -23.5 -35.5t-43.5 -62.5l-138 -193h-133v401h-66v88h204v-300h4q1 3 7 11q7 10 18.5 26.5t26 38t31.5 45.5l124 179h133q0 -99 0.5 -196.5t0.5 -197.5h66v-82q-26 -11 -55 -16t-52 -5q-32 0 -51 9t-30 24t-14.5 33.5t-3.5 37.5v195h-5z"/>
<glyph glyph-name="afii10075" horiz-adv-x="664" unicode="й" d="M324 543q-29 0 -55 10.5t-48.5 28t-42.5 41t-37 49.5l58 45q32 -44 66.5 -65.5t61.5 -21.5q9 0 22.5 1t32 8.5t42.5 24t55 46.5l39 -38q-48 -73 -98.5 -101t-95.5 -28zM428 291q-5 -8 -23.5 -35.5t-43.5 -62.5l-138 -193h-133v401h-66v88h204v-300h4q1 3 7 11 q7 10 18.5 26.5t26 38t31.5 45.5l124 179h133q0 -99 0.5 -196.5t0.5 -197.5h66v-82q-26 -11 -55 -16t-52 -5q-32 0 -51 9t-30 24t-14.5 33.5t-3.5 37.5v195h-5z"/>
<glyph glyph-name="afii10076" horiz-adv-x="598" unicode="к" d="M508 88l65 -10v-70q-19 -8 -47 -12.5t-46 -5.5q-32 0 -50.5 8t-33.5 29l-148 210v31l140 189q16 24 34.5 33.5t46.5 9.5q23 0 47.5 -6t41.5 -15l-7 -73l-56 -4l-115 -141zM33 90h59v312h-68v88h208v-400h55v-90h-254v90z"/>
<glyph glyph-name="afii10077" horiz-adv-x="610" unicode="л" d="M325 0v90h56v312h-124v-32q0 -73 -7 -136.5t-29 -114t-61.5 -86t-104.5 -51.5l-42 98q37 16 60 37t35.5 52.5t16.5 75.5t4 104v53h-75v88h467v-400h59v-90h-255z"/>
<glyph glyph-name="afii10078" horiz-adv-x="794" unicode="м" d="M400 214q1 3 7 15l14 28l17 34t17 33q11 22 25 48t26.5 50t22.5 42.5t14 25.5h211v-89h-61v-306h67v-82q-25 -11 -53 -16t-52 -5q-32 0 -51 8.5t-28.5 23.5t-12.5 35t-4 43v188h-4q-5 -9 -10.5 -20.5t-11.5 -23.5t-12 -23.5t-10 -19.5q-17 -30 -37 -67.5t-37 -73.5h-78 q-2 5 -10.5 20t-19.5 35t-23.5 42t-23.5 41q-7 13 -15 28t-15 28.5t-12.5 24.5l-7.5 15h-5v-296h-135v401h-66v89h220q4 -7 14 -25.5t23.5 -42t27.5 -49.5t26 -48q8 -14 17 -31t17.5 -33.5t15 -29t9.5 -17.5h4z"/>
<glyph glyph-name="afii10079" horiz-adv-x="636" unicode="н" d="M552 490v-394h66v-83q-25 -11 -54.5 -16.5t-52.5 -5.5q-54 0 -76 22t-22 70v132h-191v-215h-140v402h-62v88h202v-194h191v194h139z"/>
<glyph glyph-name="afii10080" horiz-adv-x="574" unicode="о" d="M391 244q0 28 -4 56.5t-15 50.5t-30.5 36t-50.5 14q-32 0 -53 -13.5t-33 -35.5t-17 -50.5t-5 -57.5q0 -32 4 -60t15.5 -49t32 -33.5t53.5 -12.5q31 0 51.5 13t31.5 35t15.5 49.5t4.5 57.5zM534 245q0 -51 -14 -97t-44 -81t-77.5 -55.5t-115.5 -20.5q-65 0 -111.5 20 t-75.5 54t-42.5 80t-13.5 99q0 52 14.5 98.5t45 81.5t77.5 56t112 21q66 0 113 -20.5t76 -56t42.5 -82t13.5 -97.5z"/>
<glyph glyph-name="afii10081" horiz-adv-x="644" unicode="п" d="M227 397v-397h-137v397h-66v92h593v-92h-68v-302h71v-82q-25 -11 -57 -16.5t-55 -5.5q-31 0 -50 7.5t-29.5 20t-14.5 30t-4 38.5v310h-183z"/>
<glyph glyph-name="afii10082" horiz-adv-x="607" unicode="р" d="M329 93q19 0 37 6.5t32 24t23 48.5t9 81q0 44 -7.5 71.5t-21 43t-31.5 21t-39 5.5q-26 0 -56 -12t-48 -26v-234q18 -11 46.5 -20t55.5 -9zM20 -118h68v515h-68v93h199v-44l2 -1q16 13 35 23t39.5 16.5t40 10t35.5 3.5q57 0 95.5 -19.5t61.5 -52.5t33 -77t10 -94 q0 -57 -11 -106t-36 -84t-65.5 -55t-98.5 -20q-25 0 -62 6.5t-71 23.5v-138h73v-93h-280v93z"/>
<glyph glyph-name="afii10083" horiz-adv-x="494" unicode="с" d="M287 501q41 0 81 -6t74 -19v-148h-94v66q-28 5 -47 5q-63 0 -92 -40t-29 -115q0 -83 32.5 -117.5t89.5 -34.5q35 0 70 7t66 18l26 -88q-34 -17 -83.5 -27.5t-100.5 -10.5q-71 0 -117.5 20t-73.5 53.5t-38 79t-11 96.5q0 43 10 89t37 84t75 63t125 25z"/>
<glyph glyph-name="afii10084" horiz-adv-x="543" unicode="т" d="M137 90h65v312h-89v-71h-93v159h503v-159h-93v71h-89v-312h68v-90h-272v90z"/>
<glyph glyph-name="afii10085" d="M296 89q11 35 22 69.5t22 69.5l57 171h-56v91h236v-91h-48q-44 -124 -89 -247l-90 -246q-9 -26 -21 -48.5t-30 -38.5t-44 -25t-65 -9q-15 0 -45 2.5t-77 17.5q4 23 7.5 45t8.5 45q21 -4 40 -6.5t36 -2.5q23 0 38 8t25.5 24t19 39.5t18.5 53.5h-66l-129 381h-51v98h155 l79 -260l42 -141h5z" unicode="у"/>
<glyph glyph-name="afii10086" horiz-adv-x="758" unicode="ф" d="M311 407q-37 -2 -63 -15.5t-42.5 -35t-24 -50t-7.5 -60.5q0 -75 32.5 -118t104.5 -45v324zM446 83q68 3 103 46.5t35 115.5q0 33 -6.5 62t-22.5 50.5t-42.5 35t-66.5 14.5v-324zM242 -122h69v114q-77 3 -129 25t-83.5 57.5t-45 79.5t-13.5 91q0 55 18 101t52.5 80 t85 53.5t115.5 21.5v127h-70v88h205v-215q67 -1 117.5 -19.5t85 -51t52 -78t17.5 -100.5t-17 -102t-51 -81.5t-85 -55t-119 -21.5v-114h75v-89h-279v89z"/>
<glyph glyph-name="afii10087" horiz-adv-x="587" unicode="х" d="M33 493h169l111 -155l53 66h-46v89h227v-89h-50l-133 -153l120 -162h69v-89h-262v89h35l-61 83l-69 -83h34v-89h-206l1 89h38l145 173l-103 141h-73z"/>
<glyph glyph-name="afii10088" horiz-adv-x="657" unicode="ц" d="M515 0h-479v91h59v310h-60v89h198v-399h188v310h-48v89h240v-89h-52v-310h61v-238h-107v147z"/>
<glyph glyph-name="afii10089" horiz-adv-x="628" unicode="ч" d="M223 491v-138q0 -45 15.5 -65.5t56.5 -20.5q26 0 51.5 5.5t48.5 16.5v202h140v-398h65v-82q-33 -13 -62 -17t-48 -4q-48 0 -71.5 26t-23.5 66v114q-34 -17 -73 -24.5t-76 -7.5q-44 0 -75 11.5t-50.5 33t-28 51.5t-8.5 66v75h-67v90h206z"/>
<glyph glyph-name="afii10090" horiz-adv-x="891" unicode="ш" d="M613 489h237v-89h-55v-310h60v-90h-822v90h59v310h-60v89h199v-399h141v310h-41v89h222v-89h-43v-310h145v310h-42v89z"/>
<glyph glyph-name="afii10091" horiz-adv-x="894" unicode="щ" d="M750 0h-717v90h59v310h-60v89h199v-399h141v310h-41v89h222v-89h-43v-310h145v310h-42v89h237v-89h-55v-310h61v-237h-106v147z"/>
<glyph glyph-name="afii10092" horiz-adv-x="695" unicode="ъ" d="M361 225v-139h95q35 0 55 18.5t20 50.5q0 36 -22 53t-59 17h-89zM361 306h127q38 0 71 -10t57 -29.5t38 -47.5t14 -65t-12.5 -65.5t-35.5 -48t-54.5 -30t-68.5 -10.5h-275v402h-114v-80h-94v168h347v-184z"/>
<glyph glyph-name="afii10093" horiz-adv-x="835" unicode="ы" d="M230 225v-139h95q36 0 55.5 18.5t19.5 50.5q0 36 -22.5 53t-58.5 17h-89zM230 305h127q38 0 71 -10t57 -29t38 -47.5t14 -64.5q0 -37 -13 -65.5t-35.5 -48t-53.5 -30t-68 -10.5h-275v403h-68v87h206v-185zM545 401v90h192v-395h71v-83q-25 -11 -56.5 -16t-55.5 -5 q-56 0 -77 26.5t-21 77.5v305h-53z"/>
<glyph glyph-name="afii10094" horiz-adv-x="565" unicode="ь" d="M230 225v-139h95q36 0 55.5 18.5t19.5 50.5q0 36 -22.5 53t-58.5 17h-89zM230 305h127q38 0 71 -10t57 -29t38 -47.5t14 -64.5q0 -37 -13 -65.5t-35.5 -48t-53.5 -30t-68 -10.5h-275v403h-68v87h206v-185z"/>
<glyph glyph-name="afii10095" horiz-adv-x="503" unicode="э" d="M216 502q74 0 121 -22t73.5 -57t36.5 -79.5t10 -89.5q0 -51 -12.5 -98.5t-41.5 -84t-77 -58.5t-120 -22q-49 0 -96 10.5t-83 28.5l26 84q31 -11 64.5 -18t68.5 -7q60 0 92.5 36t34.5 94l-161 -2v72l162 -2q-4 55 -28.5 88t-77.5 33q-16 0 -31 -2t-32 -6v-61h-91l-2 135 q35 14 78.5 21t85.5 7z"/>
<glyph glyph-name="afii10096" horiz-adv-x="824" unicode="ю" d="M644 245q0 28 -4 56.5t-14.5 51t-29 36.5t-48.5 14t-49.5 -14t-31 -36.5t-16 -51t-4.5 -57.5q0 -32 3.5 -60t14.5 -49.5t30.5 -34t52.5 -12.5q29 0 48 13.5t29.5 35t14.5 50t4 58.5zM91 0v401h-66v90h205v-197h80q6 43 22.5 81t46 66t71.5 44.5t98 16.5q63 0 107.5 -20.5 t73 -56t42 -82t13.5 -97.5t-13.5 -97.5t-42.5 -81.5t-75 -55.5t-111 -20.5q-59 0 -101.5 17.5t-71 48.5t-43 72t-18.5 89h-78v-218h-139z"/>
<glyph glyph-name="afii10097" horiz-adv-x="586" unicode="я" d="M348 272v132h-77q-35 0 -54.5 -18t-19.5 -52q0 -18 7 -30t18 -19t25.5 -10t28.5 -3h72zM539 491v-90h-51v-305h65v-83q-24 -11 -53.5 -16.5t-53.5 -5.5q-54 0 -75.5 22t-22.5 70v109h-74q-6 -12 -17 -32t-22 -41t-22 -40.5t-17 -31.5q-15 -27 -35 -43t-57 -16 q-17 0 -40.5 3t-46.5 11v77l68 9q7 12 16.5 28t19.5 32.5t19.5 32.5t15.5 28q-49 11 -72 47.5t-23 80.5q0 39 13.5 68t37 47.5t54 28t65.5 9.5z"/>
<glyph glyph-name="afii10071" horiz-adv-x="532" unicode="ё" d="M236 614q0 -24 -16.5 -40.5t-42.5 -16.5q-25 0 -41.5 16.5t-16.5 40.5q0 25 17 41.5t40 16.5q26 0 43 -16t17 -42zM437 614q0 -24 -17.5 -40.5t-43.5 -16.5q-24 0 -40.5 16.5t-16.5 40.5q0 25 17 41.5t40 16.5q26 0 43.5 -16t17.5 -42zM279 502q71 0 113.5 -23.5t65 -59 t29.5 -77.5t7 -79v-50h-314q-1 -62 26 -92t96 -30q39 0 76 8t75 23l30 -84q-48 -26 -100.5 -37t-102.5 -11q-73 0 -119.5 21.5t-73.5 57t-37 81t-10 94.5q0 40 10.5 85.5t37.5 84t73.5 63.5t117.5 25zM279 405q-25 0 -42.5 -9.5t-29.5 -24.5t-18 -34t-7 -39h184 q0 21 -4.5 40.5t-14 34t-26.5 23.5t-42 9z"/>
<glyph glyph-name="afii10099" horiz-adv-x="605" unicode="ђ" d="M36 567h51v60h-77v89h218v-149h183v-55h-183v-95q38 19 75 28.5t69 9.5q103 0 149 -61.5t46 -187.5q0 -50 -10.5 -95t-37 -78.5t-71 -53t-113.5 -19.5h-12t-11 1l1 94q30 2 52 9t36.5 23.5t21.5 45.5t7 74q0 46 -7.5 74.5t-21 45t-31 22.5t-36.5 6q-24 0 -52.5 -8.5 t-53.5 -21.5v-325h-141v512h-51v55z"/>
<glyph glyph-name="afii10100" horiz-adv-x="501" unicode="ѓ" d="M229 562l-46 48l147 169l73 -77zM36 0v90h54v312h-52v88h443v-168h-92v80h-161v-312h73v-90h-265z"/>
<glyph glyph-name="afii10101" horiz-adv-x="494" unicode="є" d="M183 214q3 -60 31 -93t88 -33q35 0 70 7.5t67 18.5l25 -83q-36 -19 -84.5 -29t-99.5 -10q-71 0 -117.5 19.5t-73.5 53.5t-38 79t-11 96q0 43 10 89t37 84t75 63t125 25q41 0 82 -7t76 -20q0 -33 -0.5 -66.5t-0.5 -68.5h-93v55q-14 5 -26.5 6t-26.5 1q-49 0 -79.5 -31.5 t-36.5 -87.5l162 5v-75z"/>
<glyph glyph-name="afii10102" horiz-adv-x="499" unicode="ѕ" d="M128 158l2 -58q17 -8 45 -12.5t50 -4.5q38 0 66 12.5t28 38.5q0 15 -7 25.5t-18.5 18t-26 12.5t-30.5 9q-36 10 -72 21t-64.5 27t-46 40t-17.5 61q0 79 57 116t154 37q45 0 92.5 -9t84.5 -29v-61.5t1 -62.5h-97l-1 56q-15 6 -34.5 9t-36.5 3q-34 0 -56 -13t-22 -38 q0 -12 8 -20.5t20 -14.5t26.5 -10t26.5 -7q30 -8 65.5 -18t66 -28t50.5 -47t20 -77q0 -72 -59.5 -107.5t-168.5 -35.5q-21 0 -46.5 1.5t-52 6t-53 12t-49.5 19.5v64t-1 64h96z"/>
<glyph glyph-name="afii10103" horiz-adv-x="345" unicode="і" d="M249 636q0 -34 -24.5 -58.5t-58.5 -24.5q-35 0 -58.5 24.5t-23.5 58.5q0 35 23.5 59t58.5 24q34 0 58.5 -24t24.5 -59zM50 397v93h189v-394h71v-83q-24 -11 -56 -16.5t-55 -5.5q-54 0 -76 22t-23 70v314h-50z"/>
<glyph glyph-name="afii10104" horiz-adv-x="345" unicode="ї" d="M113 607q0 -24 -16.5 -40.5t-42.5 -16.5q-25 0 -41.5 16.5t-16.5 40.5q0 25 17 41.5t40 16.5q26 0 43 -16t17 -42zM314 607q0 -24 -17.5 -40.5t-43.5 -16.5q-24 0 -40.5 16.5t-16.5 40.5q0 25 17 41.5t40 16.5q26 0 43.5 -16t17.5 -42zM47 401v90h192v-395h71v-83 q-24 -11 -56 -16.5t-55 -5.5q-54 0 -75.5 22t-22.5 70v318h-54z"/>
<glyph glyph-name="afii10105" horiz-adv-x="328" unicode="ј" d="M250 636q0 -17 -7 -32t-18 -26.5t-26.5 -18t-31.5 -6.5q-35 0 -59 24.5t-24 58.5q0 35 24 59t59 24q16 0 31.5 -6.5t26.5 -18t18 -26.5t7 -32zM39 490h201v-432q0 -62 -12 -108.5t-39 -81t-70 -59t-105 -42.5l-38 86q41 24 65.5 44.5t37.5 43t17 49.5t4 63v344h-61v93z "/>
<glyph glyph-name="afii10106" horiz-adv-x="836" unicode="љ" d="M501 225v-139h96q35 0 55 18.5t20 50.5q0 36 -22.5 53t-57.5 17h-91zM259 402v-31q0 -73 -7 -136.5t-29 -114t-61.5 -86t-104.5 -51.5l-42 100q37 16 60 37t35.5 52t16.5 74.5t4 103.5v52h-75v88h445v-184h128q38 0 71 -10t57 -29.5t38 -47.5t14 -65t-13 -65.5t-35.5 -48 t-54 -30t-68.5 -10.5h-275v403z"/>
<glyph glyph-name="afii10107" horiz-adv-x="865" unicode="њ" d="M530 220v-134h99q33 0 52.5 17.5t19.5 49.5q0 36 -21.5 51.5t-56.5 15.5h-93zM530 301h127q38 0 71 -9t57.5 -27.5t38.5 -46t14 -64.5t-13 -65.5t-35.5 -48t-54 -30t-68.5 -10.5h-275v217h-166v-217h-139v402h-62v88h201v-197h166v110h-62v87h200v-189z"/>
<glyph glyph-name="afii10108" horiz-adv-x="640" unicode="ћ" d="M35 519v54h51v60h-66v83h207v-143h188v-54h-188v-115q39 27 82.5 41t81.5 14q48 0 78.5 -13.5t48.5 -36t24.5 -53t6.5 -64.5v-196h66v-83q-26 -11 -55 -16.5t-53 -5.5q-54 0 -75.5 22t-21.5 70v178q0 44 -14 67.5t-59 23.5q-25 0 -56 -11.5t-54 -26.5v-314h-141v519h-51z "/>
<glyph glyph-name="afii10109" horiz-adv-x="598" unicode="ќ" d="M508 88l65 -10v-70q-19 -8 -47 -12.5t-46 -5.5q-32 0 -50.5 8t-33.5 29l-148 210v31l140 189q16 24 34.5 33.5t46.5 9.5q23 0 47.5 -6t41.5 -15l-7 -73l-56 -4l-115 -141zM33 90h59v312h-68v88h208v-400h55v-90h-254v90zM281 532l-46 48l147 169l73 -77z"/>
<glyph glyph-name="afii10110" d="M308 550q-29 0 -55 10.5t-48.5 28t-42.5 41t-37 49.5l58 45q32 -44 66.5 -65.5t61.5 -21.5q9 0 22.5 1t32 8.5t42.5 24t55 46.5l39 -38q-48 -73 -98.5 -101t-95.5 -28zM299 101q4 15 17.5 56t28.5 88.5t29 90.5t20 61h-54v93h234v-93h-47l-181 -508q-18 -51 -50 -77.5 t-98 -26.5q-3 0 -15 0.5t-30 2t-40 5.5t-45 12l19 100q21 -4 39.5 -6.5t35.5 -2.5q33 0 47 9.5t22 28.5l30 77h-63q-32 95 -61.5 189.5t-61.5 190.5h-54v99h155q5 -16 15 -47.5t22 -71t25 -82t24.5 -80t20 -67t12.5 -41.5h4z" unicode="ў"/>
<glyph glyph-name="afii10193" horiz-adv-x="657" unicode="џ" d="M382 0v-158h-108v158h-238v90h59v311h-60v89h198v-400h188v311h-48v89h239v-89h-51v-310h12.5t17.5 -0.5t17.5 -0.5h13.5v-90h-240z"/>
<glyph glyph-name="afii10050" horiz-adv-x="619" unicode="Ґ" d="M43 0v94h70v500h-69v93h458v131h101v-224h-347v-500h94v-94h-307z"/>
<glyph glyph-name="afii10098" horiz-adv-x="498" unicode="ґ" d="M36 0v90h54v311h-53v89h346v114h94v-203h-249v-311h72v-90h-264z"/>
<glyph glyph-name="schwacyrillic" horiz-adv-x="532" unicode="ә" d="M258 -8q-71 0 -113.5 25t-65 62t-29.5 78t-7 74v35h315q0 61 -27 99t-96 38q-38 0 -75.5 -8.5t-75.5 -22.5l-29 82q48 26 100 37t102 11q73 0 119.5 -20.5t73.5 -55t37 -80.5t10 -96q0 -41 -10.5 -86t-37 -83.5t-73 -63.5t-118.5 -25zM258 88q26 0 44 10t29.5 27t17 39.5 t6.5 46.5h-185q0 -55 18.5 -89t69.5 -34z"/>
<glyph glyph-name="endash" horiz-adv-x="500" unicode="–" d="M40 214v86h422v-86h-422z"/>
<glyph glyph-name="emdash" horiz-adv-x="1000" unicode="—" d="M50 214v86h898v-86h-898z"/>
<glyph glyph-name="quoteleft" horiz-adv-x="255" unicode="‘" d="M205 522q0 -29 -21.5 -50.5t-54.5 -21.5q-41 0 -60 27t-19 62q0 27 10.5 55t28.5 53.5t41 46t48 32.5l33 -45q-24 -20 -38 -42t-17 -52q25 -5 37 -22t12 -43z"/>
<glyph glyph-name="quotesinglbase" horiz-adv-x="261" unicode="‚" d="M51 70q0 29 21 50t56 21q40 0 59.5 -26.5t19.5 -61.5q0 -27 -9.5 -54.5t-26 -53t-39 -47.5t-49.5 -38l-35 44q26 24 39.5 48t17.5 53q-30 3 -42 21.5t-12 43.5z"/>
<glyph glyph-name="quotedblleft" horiz-adv-x="421" unicode="“" d="M377 522q0 -29 -22 -50.5t-55 -21.5q-41 0 -59.5 27t-18.5 62q0 27 10.5 55t28 53.5t40 46t47.5 32.5q9 -11 17 -22.5t18 -22.5q-24 -20 -38.5 -42t-17.5 -52q25 -5 37.5 -22t12.5 -43zM202 522q0 -29 -21.5 -50.5t-55.5 -21.5q-40 0 -59 27t-19 62q0 28 10.5 56t28 52.5 t40.5 45t48 33.5q9 -11 17 -22.5t17 -22.5q-24 -20 -38.5 -42t-17.5 -52q25 -5 37.5 -22t12.5 -43z"/>
<glyph glyph-name="quotedblright" horiz-adv-x="421" unicode="”" d="M55 655q0 29 21 50.5t56 21.5q40 0 59 -27t19 -62q0 -27 -10.5 -55t-28 -53t-40.5 -45.5t-48 -33.5l-35 45q25 20 39 42.5t17 51.5q-25 5 -37 22.5t-12 42.5zM229 655q0 29 22 50.5t56 21.5q40 0 59 -27t19 -62q0 -27 -10.5 -55t-27.5 -53t-40.5 -45.5t-48.5 -33.5 l-34 45q23 20 38 42.5t17 51.5q-25 5 -37.5 22.5t-12.5 42.5z"/>
<glyph glyph-name="dagger" horiz-adv-x="494" unicode="†" d="M302 399v-467h-114v467h-148v94h148v197h114v-197h152v-94h-152z"/>
<glyph glyph-name="daggerdbl" horiz-adv-x="494" unicode="‡" d="M188 203v196h-148v94h148v197h114v-197h152v-94h-152v-196h152v-94h-152v-177h-114v177h-148v94h148z"/>
<glyph glyph-name="ellipsis" horiz-adv-x="756" unicode="…" d="M202 67q0 -32 -22.5 -54t-52.5 -22q-32 0 -54 22t-22 54q0 30 22 52t54 22q31 0 53 -22t22 -52zM449 67q0 -32 -22 -54t-53 -22t-53 22t-22 54q0 30 21.5 52t53.5 22q31 0 53 -22t22 -52zM704 67q0 -32 -22 -54t-52 -22q-31 0 -53.5 22t-22.5 54q0 30 22.5 52t52.5 22 q32 0 53.5 -22t21.5 -52z"/>
<glyph glyph-name="perthousand" horiz-adv-x="1299" unicode="‰" d="M1172 199q0 21 -2 44.5t-9.5 43t-22 32.5t-39.5 13q-26 0 -41.5 -12.5t-23.5 -32t-10.5 -43.5t-2.5 -46q0 -27 3 -51t11.5 -41t23.5 -27t40 -10q22 0 36.5 11t22.5 29t11 41.5t3 48.5zM1275 200q0 -39 -9 -76t-29.5 -65.5t-54.5 -45.5t-84 -17q-53 0 -87.5 16.5 t-54.5 44.5t-28.5 65t-8.5 77q0 38 8.5 75t29 66.5t55 47.5t87.5 18q54 0 88 -18.5t53.5 -48t27 -66t7.5 -73.5zM774 199q0 21 -2 44.5t-9.5 43t-22 32.5t-39.5 13q-26 0 -41.5 -12.5t-23.5 -32t-10.5 -43.5t-2.5 -46q0 -27 3 -51t11.5 -41t23.5 -27t40 -10q22 0 36.5 11 t22.5 29t11 41.5t3 48.5zM877 200q0 -39 -9 -76t-29.5 -65.5t-54.5 -45.5t-84 -17q-53 0 -87.5 16.5t-54.5 44.5t-28.5 65t-8.5 77q0 38 8.5 75t29 66.5t55 47.5t87.5 18q54 0 88 -18.5t53.5 -48t27 -66t7.5 -73.5zM336 -20h-82l315 728h82zM275 465q0 21 -2 44.5t-9.5 43 t-22 32t-39.5 12.5q-26 0 -41.5 -12.5t-23.5 -31.5t-10.5 -43t-2.5 -46q0 -28 3 -51.5t11.5 -41t23.5 -27t40 -9.5q22 0 36.5 11t22.5 29t11 41.5t3 48.5zM378 465q0 -39 -9 -76t-29.5 -65t-54.5 -45t-84 -17q-53 0 -87.5 16.5t-54.5 44.5t-28.5 64.5t-8.5 77.5q0 38 8.5 75 t29 66.5t55 47.5t87.5 18q54 0 88 -18.5t53.5 -48t27 -66.5t7.5 -74z"/>
<glyph glyph-name="guilsinglleft" horiz-adv-x="346" unicode="‹" d="M55 216l165 179l57 -40l-104 -158l103 -156l-57 -42l-164 179v38z"/>
<glyph glyph-name="guilsinglright" horiz-adv-x="346" unicode="›" d="M277 178l-163 -179l-57 42l102 156l-104 158l57 40l165 -179v-38z"/>
<glyph glyph-name="Euro" d="M29 312h427v-50h-239q5 -37 17 -67t33 -51.5t52 -33t73 -11.5q14 0 33.5 2t40.5 7v68h95v-158q-18 -6 -41.5 -11t-49 -8.5t-51 -5.5t-47.5 -2q-75 0 -128.5 20.5t-88.5 57t-53.5 86t-23.5 107.5h-49v50zM381 677q50 0 91.5 -7.5t76.5 -18.5v-155h-95v67q-15 5 -33 7.5 t-38 2.5q-77 0 -116 -44t-50 -121h239v-52h-427v52h50q6 50 24.5 98.5t54 86.5t90.5 61t133 23z" unicode="€"/>
<glyph glyph-name="trademark" horiz-adv-x="855" unicode="™" d="M102 342v54h43v235h-57v-57h-58v113h316v-113h-58v57h-59v-235h43v-54h-170zM598 491q5 11 11.5 25.5t13 29.5t13.5 29.5t12 25.5q8 17 20 43t19 43h139v-55h-35v-236h35v-54h-148v54h32v175h-2q-5 -10 -11 -23t-12.5 -27t-13 -27.5t-11.5 -24.5l-29 -65h-67 q-6 12 -15.5 33.5t-16.5 33.5l-47 97h-1v-172h35v-54h-151v54h38v236h-38v55h138l40 -86q11 -23 25.5 -55.5t25.5 -54.5h1z"/>
<glyph glyph-name="arrowleft" horiz-adv-x="829" unicode="←" d="M769 372v-99h-532l120 -116l-71 -71l-236 237l236 238l71 -71l-120 -118h532z"/>
<glyph glyph-name="arrowup" horiz-adv-x="518" unicode="↑" d="M310 0h-99v516l-116 -119l-71 71l237 236l238 -236l-71 -71l-118 119v-516z"/>
<glyph glyph-name="arrowright" horiz-adv-x="829" unicode="→" d="M584 372l-120 118l70 71l236 -238l-236 -237l-70 71l120 116h-533v99h533z"/>
<glyph glyph-name="arrowdown" horiz-adv-x="518" unicode="↓" d="M310 187l118 120l71 -71l-238 -236l-237 236l71 71l117 -120v517h98v-517z"/>
<glyph glyph-name="carriagereturn" horiz-adv-x="854" unicode="↵" d="M717 693h98v-419h-552l119 -118l-69 -69l-235 236l235 236l69 -69l-119 -119h454v322z"/>
<glyph glyph-name="partialdiff" horiz-adv-x="535" unicode="∂" d="M250 78q36 0 61.5 19t42.5 50t25 69t8 77q-35 43 -69 59t-69 16q-29 0 -51 -13t-36 -34t-21 -47t-7 -52q0 -39 9.5 -66.5t25 -44.5t36.5 -25t45 -8zM247 -10q-45 0 -84 14.5t-67.5 43.5t-45 72t-16.5 100q0 53 16 95.5t44.5 72t66.5 45.5t82 16q32 0 69.5 -11t69.5 -43 q-7 125 -62 184.5t-143 59.5q-13 0 -25.5 -0.5t-27.5 -2.5l-1 78q20 4 38 5t35 1q78 0 133 -29t90 -79.5t51.5 -118t16.5 -144.5q0 -90 -18 -157t-49.5 -112t-76 -67.5t-96.5 -22.5z"/>
<glyph glyph-name="gradient" horiz-adv-x="719" unicode="∇" d="M176 595q13 -38 28 -76.5t31.5 -81t35 -91t39.5 -105.5q23 -67 49 -135h3q10 30 20 59.5t21 59.5q35 93 66.5 185t66.5 185h-360zM683 605l-234 -604h-171l-245 602v85h650v-83z"/>
<glyph glyph-name="product" horiz-adv-x="786" unicode="∏" d="M468 -107v95h62v605h-274v-605h63v-95h-276v95h69v605h-69v95h701v-95h-69v-605h69v-95h-276z"/>
<glyph glyph-name="summation" horiz-adv-x="622" unicode="∑" d="M372 311v-27l-167 -297h283v113h102v-208h-563v83l187 323l-181 311v79h545v-204h-99v110h-268z"/>
<glyph glyph-name="minus" d="M101 261v83h412v-83h-412z" unicode="−"/>
<glyph glyph-name="radical" horiz-adv-x="555" unicode="√" d="M83 242q-7 20 -14 39t-13 39q31 16 62 32.5t63 33.5l90 -294h3l190 654h92l-240 -799h-91q-25 78 -49.5 157t-50.5 158z"/>
<glyph glyph-name="infinity" horiz-adv-x="786" unicode="∞" d="M571 347q-15 0 -31 -7t-31.5 -18t-30.5 -25t-28 -28q35 -35 62 -58t58 -23q33 0 53 24.5t20 56.5q0 37 -21 57.5t-51 20.5zM213 347q-31 0 -50 -23.5t-19 -55.5q0 -34 21 -57t52 -23q17 0 33 7t31 18t29 25t27 28q-27 31 -57.5 56t-66.5 25zM215 429q51 0 96.5 -28.5 t82.5 -64.5q19 19 38.5 36t42 29.5t48 20t55.5 7.5q36 0 66.5 -12t52 -33t34 -50t12.5 -64q0 -34 -13 -64t-36.5 -52t-55.5 -35t-70 -13q-46 0 -88 25.5t-86 70.5q-19 -18 -38.5 -35.5t-42 -31t-48.5 -21.5t-56 -8q-35 0 -65 12.5t-52.5 34t-35.5 51t-13 64.5 q0 33 12.5 62.5t35 51t54.5 34.5t70 13z"/>
<glyph glyph-name="logicaland" horiz-adv-x="587" unicode="∧" d="M41 1q23 55 50.5 119t56 130t56 130t50.5 119h76q24 -55 53.5 -119t59.5 -130t59 -130t53 -119h-111q-17 38 -36.5 82.5t-39.5 90t-39.5 90t-35.5 83.5l-14 -35t-23.5 -58.5t-29 -72t-30 -73.5t-26.5 -63.5t-19 -43.5h-110z"/>
<glyph glyph-name="logicalor" d="M151 498q16 -39 34 -86t37 -96t37 -96t34 -86q6 15 18 44t27 65t30.5 75t30.5 74.5t26.5 63.5t18.5 42h111l-225 -498h-76l-213 498h110z" unicode="∨"/>
<glyph glyph-name="intersection" horiz-adv-x="618" unicode="∩" d="M308 408q-33 0 -56 -10.5t-37.5 -27.5t-20.5 -39t-6 -45v-286h-107l-1 289q0 46 16 85.5t45.5 68.5t72 45.5t95.5 16.5q57 0 100.5 -17.5t73.5 -49t45.5 -74t15.5 -93.5v-271h-109v281q0 23 -6.5 45.5t-21.5 40.5t-39 29.5t-60 11.5z"/>
<glyph glyph-name="union" horiz-adv-x="618" unicode="∪" d="M308 91q36 0 60 11.5t39 29.5t21.5 41t6.5 46v278h109v-269q0 -51 -15.5 -93.5t-45.5 -74t-73.5 -49t-100.5 -17.5q-53 0 -95.5 16.5t-72 45.5t-45.5 68.5t-16 85.5l1 287h107v-284q0 -23 6 -45t20.5 -39t37.5 -27.5t56 -10.5z"/>
<glyph glyph-name="approxequal" d="M386 177q-29 0 -57.5 6.5t-55 14.5t-50 14.5t-42.5 6.5l-66 -43l-42 34q19 49 49 71t68 22q24 0 51.5 -6.5t55 -14.5t53.5 -14.5t47 -6.5l62 44l42 -30q-17 -48 -46 -73t-69 -25zM386 323q-29 0 -57.5 6.5t-55 15t-50 15t-42.5 6.5l-66 -43l-42 32q19 50 49 73t68 23 q24 0 51.5 -6.5t55 -14.5t53.5 -14.5t47 -6.5l62 44l42 -31q-17 -48 -46 -73.5t-69 -25.5z" unicode="≈"/>
<glyph glyph-name="notequal" d="M441 421h69v-81h-131l-67 -80h198v-80h-262l-92 -110h-78l93 110h-85v80h148l66 80h-214v81h278l77 88l73 -1z" unicode="≠"/>
<glyph glyph-name="lessequal" d="M55 0v83h454v-83h-454zM510 125l-454 177v70l454 168v-100l-333 -102q12 -4 38.5 -13t59 -20.5t69 -24t69 -24t58.5 -20t39 -12.5v-99z" unicode="≤"/>
<glyph glyph-name="greaterequal" d="M70 225l334 113q-12 3 -38.5 11t-59 18.5t-69 21.5t-69.5 21.5t-59 18.5t-39 11v101l455 -168v-71l-455 -176v99zM71 0v84h455v-84h-455z" unicode="≥"/>
<glyph glyph-name="lozenge" horiz-adv-x="530" unicode="◊" d="M253 520q-5 -10 -19 -39t-30.5 -61.5t-31 -61.5t-18.5 -39q4 -10 19 -39t32 -62t31.5 -62.5t18.5 -38.5q5 10 19.5 38.5t30.5 61.5t30 62t19 39zM294 -18h-82q-4 8 -17.5 34t-31.5 60.5t-38 73t-38 73t-31.5 60.5t-17.5 35l175 337h82l172 -337z"/>
</font>
</defs>
</svg>
